Evolventa-Oblique.ufo
<glyph name="exclam" format="1">
  <advance width="295"/>
  <unicode hex="0021"/>
  <outline>
    <contour>
      <point x="111" y="0" type="line"/>
      <point x="134" y="126" type="line"/>
      <point x="208" y="126" type="line"/>
      <point x="185" y="0" type="line"/>
    </contour>
    <contour>
      <point x="148" y="197" type="line"/>
      <point x="248" y="739" type="line"/>
      <point x="322" y="739" type="line"/>
      <point x="222" y="197" type="line"/>
    </contour>
  </outline>
</glyph>
<glyph name="quotedbl" format="1">
  <advance width="309"/>
  <unicode hex="0022"/>
  <outline>
    <contour>
      <point x="332" y="513" type="line"/>
      <point x="282" y="513" type="line"/>
      <point x="324" y="739" type="line"/>
      <point x="374" y="739" type="line"/>
    </contour>
    <contour>
      <point x="219" y="513" type="line"/>
      <point x="169" y="513" type="line"/>
      <point x="211" y="739" type="line"/>
      <point x="261" y="739" type="line"/>
    </contour>
  </outline>
</glyph>
<glyph name="numbersign" format="1">
  <advance width="554"/>
  <unicode hex="0023"/>
  <outline>
    <contour>
      <point x="589" y="298" type="line"/>
      <point x="578" y="237" type="line"/>
      <point x="443" y="237" type="line"/>
      <point x="356" y="0" type="line"/>
      <point x="290" y="0" type="line"/>
      <point x="377" y="237" type="line"/>
      <point x="213" y="237" type="line"/>
      <point x="124" y="0" type="line"/>
      <point x="59" y="0" type="line"/>
      <point x="148" y="237" type="line"/>
      <point x="49" y="237" type="line"/>
      <point x="60" y="298" type="line"/>
      <point x="171" y="298" type="line"/>
      <point x="229" y="453" type="line"/>
      <point x="105" y="453" type="line"/>
      <point x="116" y="514" type="line"/>
      <point x="251" y="514" type="line"/>
      <point x="335" y="739" type="line"/>
      <point x="399" y="739" type="line"/>
      <point x="316" y="514" type="line"/>
      <point x="479" y="514" type="line"/>
      <point x="561" y="739" type="line"/>
      <point x="628" y="739" type="line"/>
      <point x="545" y="514" type="line"/>
      <point x="644" y="514" type="line"/>
      <point x="633" y="453" type="line"/>
      <point x="523" y="453" type="line"/>
      <point x="466" y="298" type="line"/>
    </contour>
    <contour>
      <point x="457" y="453" type="line"/>
      <point x="294" y="453" type="line"/>
      <point x="236" y="298" type="line"/>
      <point x="399" y="298" type="line"/>
    </contour>
  </outline>
</glyph>
<glyph name="dollar" format="1">
  <advance width="554"/>
  <unicode hex="0024"/>
  <outline>
    <contour>
      <point x="235" y="-56" type="line"/>
      <point x="250" y="29" type="line"/>
      <point x="157" y="47"/>
      <point x="111" y="96"/>
      <point x="111" y="178" type="curve" smooth="yes"/>
      <point x="111" y="193"/>
      <point x="113" y="210"/>
      <point x="116" y="228" type="curve"/>
      <point x="186" y="228" type="line"/>
      <point x="185" y="218"/>
      <point x="184" y="209"/>
      <point x="184" y="200" type="curve" smooth="yes"/>
      <point x="184" y="130"/>
      <point x="224" y="90"/>
      <point x="294" y="90" type="curve" smooth="yes"/>
      <point x="369" y="90"/>
      <point x="433" y="146"/>
      <point x="447" y="224" type="curve" smooth="yes"/>
      <point x="449" y="233"/>
      <point x="449" y="242"/>
      <point x="449" y="251" type="curve" smooth="yes"/>
      <point x="449" y="279"/>
      <point x="439" y="303"/>
      <point x="422" y="321" type="curve" smooth="yes"/>
      <point x="405" y="337"/>
      <point x="384" y="348"/>
      <point x="337" y="363" type="curve" smooth="yes"/>
      <point x="266" y="386"/>
      <point x="240" y="403"/>
      <point x="220" y="436" type="curve" smooth="yes"/>
      <point x="206" y="457"/>
      <point x="199" y="485"/>
      <point x="199" y="515" type="curve" smooth="yes"/>
      <point x="199" y="527"/>
      <point x="200" y="539"/>
      <point x="202" y="552" type="curve" smooth="yes"/>
      <point x="219" y="643"/>
      <point x="288" y="710"/>
      <point x="380" y="728" type="curve"/>
      <point x="395" y="810" type="line"/>
      <point x="461" y="810" type="line"/>
      <point x="446" y="728" type="line"/>
      <point x="530" y="715"/>
      <point x="577" y="661"/>
      <point x="577" y="581" type="curve" smooth="yes"/>
      <point x="577" y="570"/>
      <point x="576" y="559"/>
      <point x="574" y="547" type="curve"/>
      <point x="504" y="547" type="line"/>
      <point x="505" y="555"/>
      <point x="506" y="563"/>
      <point x="506" y="570" type="curve" smooth="yes"/>
      <point x="506" y="630"/>
      <point x="471" y="665"/>
      <point x="410" y="665" type="curve" smooth="yes"/>
      <point x="341" y="665"/>
      <point x="289" y="619"/>
      <point x="275" y="546" type="curve" smooth="yes"/>
      <point x="273" y="536"/>
      <point x="272" y="527"/>
      <point x="272" y="519" type="curve" smooth="yes"/>
      <point x="272" y="476"/>
      <point x="300" y="453"/>
      <point x="375" y="428" type="curve" smooth="yes"/>
      <point x="442" y="405"/>
      <point x="469" y="390"/>
      <point x="491" y="363" type="curve" smooth="yes"/>
      <point x="513" y="338"/>
      <point x="525" y="304"/>
      <point x="525" y="266" type="curve" smooth="yes"/>
      <point x="525" y="253"/>
      <point x="524" y="240"/>
      <point x="521" y="226" type="curve" smooth="yes"/>
      <point x="501" y="120"/>
      <point x="417" y="39"/>
      <point x="316" y="29" type="curve"/>
      <point x="301" y="-56" type="line"/>
    </contour>
  </outline>
</glyph>
<glyph name="ampersand" format="1">
  <advance width="757"/>
  <unicode hex="0026"/>
  <outline>
    <contour>
      <point x="691" y="481" type="line"/>
      <point x="773" y="481" type="line"/>
      <point x="589" y="220" type="line"/>
      <point x="742" y="38" type="line"/>
      <point x="682" y="-13" type="line"/>
      <point x="541" y="153" type="line"/>
      <point x="461" y="36"/>
      <point x="386" y="-13"/>
      <point x="288" y="-13" type="curve" smooth="yes"/>
      <point x="170" y="-13"/>
      <point x="92" y="62"/>
      <point x="92" y="169" type="curve" smooth="yes"/>
      <point x="92" y="183"/>
      <point x="93" y="198"/>
      <point x="96" y="213" type="curve" smooth="yes"/>
      <point x="108" y="280"/>
      <point x="149" y="338"/>
      <point x="212" y="381" type="curve" smooth="yes"/>
      <point x="236" y="397"/>
      <point x="262" y="412"/>
      <point x="307" y="433" type="curve"/>
      <point x="267" y="485"/>
      <point x="251" y="520"/>
      <point x="251" y="558" type="curve" smooth="yes"/>
      <point x="251" y="568"/>
      <point x="252" y="578"/>
      <point x="254" y="588" type="curve" smooth="yes"/>
      <point x="271" y="680"/>
      <point x="361" y="752"/>
      <point x="459" y="752" type="curve" smooth="yes"/>
      <point x="549" y="752"/>
      <point x="609" y="695"/>
      <point x="609" y="615" type="curve" smooth="yes"/>
      <point x="609" y="605"/>
      <point x="608" y="594"/>
      <point x="606" y="583" type="curve" smooth="yes"/>
      <point x="596" y="528"/>
      <point x="566" y="486"/>
      <point x="512" y="453" type="curve" smooth="yes"/>
      <point x="495" y="441"/>
      <point x="477" y="433"/>
      <point x="430" y="411" type="curve"/>
      <point x="545" y="273" type="line"/>
    </contour>
    <contour>
      <point x="496" y="206" type="curve"/>
      <point x="350" y="380" type="line"/>
      <point x="230" y="327"/>
      <point x="182" y="280"/>
      <point x="168" y="205" type="curve" smooth="yes"/>
      <point x="166" y="196"/>
      <point x="165" y="186"/>
      <point x="165" y="177" type="curve" smooth="yes"/>
      <point x="165" y="106"/>
      <point x="218" y="54"/>
      <point x="295" y="54" type="curve" smooth="yes"/>
      <point x="366" y="54"/>
      <point x="422" y="96"/>
    </contour>
    <contour>
      <point x="386" y="464" type="curve"/>
      <point x="480" y="498"/>
      <point x="527" y="537"/>
      <point x="537" y="589" type="curve" smooth="yes"/>
      <point x="538" y="595"/>
      <point x="539" y="601"/>
      <point x="539" y="607" type="curve" smooth="yes"/>
      <point x="539" y="653"/>
      <point x="503" y="685"/>
      <point x="449" y="685" type="curve" smooth="yes"/>
      <point x="391" y="685"/>
      <point x="338" y="643"/>
      <point x="328" y="590" type="curve" smooth="yes"/>
      <point x="327" y="584"/>
      <point x="327" y="579"/>
      <point x="327" y="574" type="curve" smooth="yes"/>
      <point x="327" y="542"/>
      <point x="345" y="509"/>
    </contour>
  </outline>
</glyph>
<glyph name="quotesingle" format="1">
  <advance width="198"/>
  <unicode hex="0027"/>
  <outline>
    <contour>
      <point x="219" y="513" type="line"/>
      <point x="169" y="513" type="line"/>
      <point x="211" y="739" type="line"/>
      <point x="261" y="739" type="line"/>
    </contour>
  </outline>
</glyph>
<glyph name="parenleft" format="1">
  <advance width="369"/>
  <unicode hex="0028"/>
  <outline>
    <contour>
      <point x="472" y="739" type="curve"/>
      <point x="460" y="676" type="line"/>
      <point x="394" y="640"/>
      <point x="350" y="603"/>
      <point x="303" y="545" type="curve" smooth="yes"/>
      <point x="242" y="469"/>
      <point x="203" y="389"/>
      <point x="188" y="309" type="curve" smooth="yes"/>
      <point x="183" y="284"/>
      <point x="181" y="259"/>
      <point x="181" y="234" type="curve" smooth="yes"/>
      <point x="181" y="161"/>
      <point x="200" y="89"/>
      <point x="236" y="29" type="curve" smooth="yes"/>
      <point x="258" y="-6"/>
      <point x="282" y="-31"/>
      <point x="324" y="-60" type="curve"/>
      <point x="312" y="-125" type="line"/>
      <point x="239" y="-97"/>
      <point x="193" y="-53"/>
      <point x="153" y="26" type="curve" smooth="yes"/>
      <point x="122" y="87"/>
      <point x="106" y="152"/>
      <point x="106" y="220" type="curve" smooth="yes"/>
      <point x="106" y="249"/>
      <point x="108" y="278"/>
      <point x="114" y="309" type="curve" smooth="yes"/>
      <point x="138" y="436"/>
      <point x="216" y="565"/>
      <point x="323" y="656" type="curve" smooth="yes"/>
      <point x="372" y="698"/>
      <point x="410" y="719"/>
    </contour>
  </outline>
</glyph>
<glyph name="parenright" format="1">
  <advance width="369"/>
  <unicode hex="0029"/>
  <outline>
    <contour>
      <point x="11" y="-125" type="curve"/>
      <point x="23" y="-61" type="line"/>
      <point x="88" y="-26"/>
      <point x="133" y="11"/>
      <point x="180" y="70" type="curve" smooth="yes"/>
      <point x="241" y="146"/>
      <point x="280" y="225"/>
      <point x="295" y="306" type="curve" smooth="yes"/>
      <point x="300" y="330"/>
      <point x="301" y="355"/>
      <point x="301" y="380" type="curve" smooth="yes"/>
      <point x="301" y="453"/>
      <point x="282" y="526"/>
      <point x="246" y="585" type="curve" smooth="yes"/>
      <point x="224" y="620"/>
      <point x="201" y="645"/>
      <point x="159" y="674" type="curve"/>
      <point x="171" y="739" type="line"/>
      <point x="244" y="711"/>
      <point x="290" y="668"/>
      <point x="330" y="589" type="curve" smooth="yes"/>
      <point x="361" y="528"/>
      <point x="377" y="463"/>
      <point x="377" y="395" type="curve" smooth="yes"/>
      <point x="377" y="366"/>
      <point x="375" y="336"/>
      <point x="369" y="305" type="curve" smooth="yes"/>
      <point x="346" y="179"/>
      <point x="267" y="49"/>
      <point x="160" y="-42" type="curve" smooth="yes"/>
      <point x="111" y="-83"/>
      <point x="73" y="-105"/>
    </contour>
  </outline>
</glyph>
<glyph name="asterisk" format="1">
  <advance width="425"/>
  <unicode hex="002A"/>
  <outline>
    <contour>
      <point x="406" y="752" type="line"/>
      <point x="448" y="724" type="line"/>
      <point x="374" y="632" type="line"/>
      <point x="478" y="635" type="line"/>
      <point x="468" y="583" type="line"/>
      <point x="366" y="585" type="line"/>
      <point x="405" y="495" type="line"/>
      <point x="353" y="468" type="line"/>
      <point x="317" y="559" type="line"/>
      <point x="247" y="468" type="line"/>
      <point x="204" y="496" type="line"/>
      <point x="277" y="585" type="line"/>
      <point x="172" y="583" type="line"/>
      <point x="182" y="635" type="line"/>
      <point x="286" y="632" type="line"/>
      <point x="247" y="724" type="line"/>
      <point x="301" y="752" type="line"/>
      <point x="338" y="662" type="line"/>
    </contour>
  </outline>
</glyph>
<glyph name="comma" format="1">
  <advance width="277"/>
  <unicode hex="002C"/>
  <outline>
    <contour>
      <point x="79" y="-67" type="line"/>
      <point x="202" y="126" type="line"/>
      <point x="276" y="126" type="line"/>
      <point x="153" y="-67" type="line"/>
    </contour>
  </outline>
</glyph>
<glyph name="hyphen" format="1">
  <advance width="332"/>
  <unicode hex="002D"/>
  <outline>
    <contour>
      <point x="86" y="296" type="line"/>
      <point x="357" y="296" type="line"/>
      <point x="345" y="233" type="line"/>
      <point x="74" y="233" type="line"/>
    </contour>
  </outline>
</glyph>
<glyph name="period" format="1">
  <advance width="277"/>
  <unicode hex="002E"/>
  <outline>
    <contour>
      <point x="101" y="0" type="line"/>
      <point x="124" y="126" type="line"/>
      <point x="198" y="126" type="line"/>
      <point x="175" y="0" type="line"/>
    </contour>
  </outline>
</glyph>
<glyph name="slash" format="1">
  <advance width="437"/>
  <unicode hex="002F"/>
  <outline>
    <contour>
      <point x="16" y="-128" type="line"/>
      <point x="464" y="739" type="line"/>
      <point x="534" y="739" type="line"/>
      <point x="83" y="-128" type="line"/>
    </contour>
  </outline>
</glyph>
<glyph name="one" format="1">
  <advance width="554"/>
  <unicode hex="0031"/>
  <outline>
    <contour>
      <point x="281" y="0" type="line"/>
      <point x="406" y="672" type="line"/>
      <point x="280" y="672" type="line"/>
      <point x="292" y="739" type="line"/>
      <point x="491" y="739" type="line"/>
      <point x="354" y="0" type="line"/>
    </contour>
  </outline>
</glyph>
<glyph name="two" format="1">
  <advance width="554"/>
  <unicode hex="0032"/>
  <outline>
    <contour>
      <point x="33" y="0" type="line"/>
      <point x="45" y="67" type="line"/>
      <point x="351" y="317" type="line" smooth="yes"/>
      <point x="429" y="380"/>
      <point x="428" y="380"/>
      <point x="455" y="407" type="curve" smooth="yes"/>
      <point x="499" y="449"/>
      <point x="522" y="487"/>
      <point x="530" y="531" type="curve" smooth="yes"/>
      <point x="532" y="542"/>
      <point x="533" y="552"/>
      <point x="533" y="562" type="curve" smooth="yes"/>
      <point x="533" y="635"/>
      <point x="481" y="685"/>
      <point x="399" y="685" type="curve" smooth="yes"/>
      <point x="334" y="685"/>
      <point x="275" y="652"/>
      <point x="240" y="598" type="curve" smooth="yes"/>
      <point x="223" y="572"/>
      <point x="213" y="544"/>
      <point x="205" y="500" type="curve"/>
      <point x="132" y="500" type="line"/>
      <point x="142" y="552"/>
      <point x="149" y="573"/>
      <point x="168" y="608" type="curve" smooth="yes"/>
      <point x="219" y="698"/>
      <point x="309" y="752"/>
      <point x="412" y="752" type="curve" smooth="yes"/>
      <point x="531" y="752"/>
      <point x="608" y="679"/>
      <point x="608" y="572" type="curve" smooth="yes"/>
      <point x="608" y="558"/>
      <point x="607" y="543"/>
      <point x="604" y="527" type="curve" smooth="yes"/>
      <point x="589" y="448"/>
      <point x="546" y="393"/>
      <point x="424" y="294" type="curve" smooth="yes"/>
      <point x="145" y="67" type="line"/>
      <point x="514" y="67" type="line"/>
      <point x="502" y="0" type="line"/>
    </contour>
  </outline>
</glyph>
<glyph name="three" format="1">
  <advance width="554"/>
  <unicode hex="0033"/>
  <outline>
    <contour>
      <point x="258" y="555" type="curve"/>
      <point x="185" y="555" type="line"/>
      <point x="211" y="676"/>
      <point x="297" y="752"/>
      <point x="408" y="752" type="curve" smooth="yes"/>
      <point x="504" y="752"/>
      <point x="564" y="693"/>
      <point x="564" y="605" type="curve" smooth="yes"/>
      <point x="564" y="592"/>
      <point x="563" y="579"/>
      <point x="560" y="565" type="curve" smooth="yes"/>
      <point x="549" y="504"/>
      <point x="516" y="459"/>
      <point x="457" y="423" type="curve"/>
      <point x="519" y="389"/>
      <point x="550" y="337"/>
      <point x="550" y="270" type="curve" smooth="yes"/>
      <point x="550" y="255"/>
      <point x="549" y="240"/>
      <point x="546" y="224" type="curve" smooth="yes"/>
      <point x="521" y="91"/>
      <point x="400" y="-13"/>
      <point x="271" y="-13" type="curve" smooth="yes"/>
      <point x="179" y="-13"/>
      <point x="108" y="33"/>
      <point x="82" y="108" type="curve" smooth="yes"/>
      <point x="75" y="129"/>
      <point x="71" y="151"/>
      <point x="71" y="176" type="curve" smooth="yes"/>
      <point x="71" y="193"/>
      <point x="73" y="210"/>
      <point x="76" y="231" type="curve"/>
      <point x="149" y="231" type="line"/>
      <point x="147" y="214"/>
      <point x="146" y="200"/>
      <point x="146" y="187" type="curve" smooth="yes"/>
      <point x="146" y="160"/>
      <point x="151" y="141"/>
      <point x="161" y="122" type="curve" smooth="yes"/>
      <point x="183" y="79"/>
      <point x="226" y="54"/>
      <point x="280" y="54" type="curve" smooth="yes"/>
      <point x="371" y="54"/>
      <point x="454" y="126"/>
      <point x="471" y="220" type="curve" smooth="yes"/>
      <point x="473" y="231"/>
      <point x="474" y="242"/>
      <point x="474" y="252" type="curve" smooth="yes"/>
      <point x="474" y="316"/>
      <point x="437" y="367"/>
      <point x="376" y="382" type="curve" smooth="yes"/>
      <point x="357" y="386"/>
      <point x="340" y="387"/>
      <point x="291" y="388" type="curve"/>
      <point x="303" y="454" type="line"/>
      <point x="332" y="452"/>
      <point x="333" y="452"/>
      <point x="339" y="452" type="curve" smooth="yes"/>
      <point x="416" y="452"/>
      <point x="473" y="497"/>
      <point x="486" y="569" type="curve" smooth="yes"/>
      <point x="488" y="578"/>
      <point x="489" y="587"/>
      <point x="489" y="595" type="curve" smooth="yes"/>
      <point x="489" y="649"/>
      <point x="453" y="685"/>
      <point x="396" y="685" type="curve" smooth="yes"/>
      <point x="324" y="685"/>
      <point x="274" y="638"/>
    </contour>
  </outline>
</glyph>
<glyph name="four" format="1">
  <advance width="554"/>
  <unicode hex="0034"/>
  <outline>
    <contour>
      <point x="386" y="0" type="line"/>
      <point x="411" y="135" type="line"/>
      <point x="37" y="135" type="line"/>
      <point x="49" y="202" type="line"/>
      <point x="509" y="739" type="line"/>
      <point x="596" y="739" type="line"/>
      <point x="496" y="202" type="line"/>
      <point x="564" y="202" type="line"/>
      <point x="552" y="135" type="line"/>
      <point x="484" y="135" type="line"/>
      <point x="459" y="0" type="line"/>
    </contour>
    <contour>
      <point x="423" y="202" type="line"/>
      <point x="504" y="637" type="line"/>
      <point x="134" y="202" type="line"/>
    </contour>
  </outline>
</glyph>
<glyph name="five" format="1">
  <advance width="554"/>
  <unicode hex="0035"/>
  <outline>
    <contour>
      <point x="137" y="375" type="line"/>
      <point x="270" y="739" type="line"/>
      <point x="603" y="739" type="line"/>
      <point x="591" y="672" type="line"/>
      <point x="317" y="672" type="line"/>
      <point x="243" y="468" type="line"/>
      <point x="293" y="493"/>
      <point x="332" y="503"/>
      <point x="376" y="503" type="curve" smooth="yes"/>
      <point x="497" y="503"/>
      <point x="578" y="417"/>
      <point x="578" y="298" type="curve" smooth="yes"/>
      <point x="578" y="281"/>
      <point x="577" y="264"/>
      <point x="574" y="246" type="curve" smooth="yes"/>
      <point x="547" y="100"/>
      <point x="417" y="-13"/>
      <point x="278" y="-13" type="curve" smooth="yes"/>
      <point x="179" y="-13"/>
      <point x="102" y="43"/>
      <point x="76" y="134" type="curve" smooth="yes"/>
      <point x="70" y="155"/>
      <point x="68" y="171"/>
      <point x="68" y="197" type="curve" smooth="yes"/>
      <point x="68" y="207"/>
      <point x="68" y="219"/>
      <point x="69" y="232" type="curve"/>
      <point x="141" y="232" type="line"/>
      <point x="141" y="227"/>
      <point x="140" y="221"/>
      <point x="140" y="216" type="curve" smooth="yes"/>
      <point x="140" y="119"/>
      <point x="198" y="54"/>
      <point x="287" y="54" type="curve" smooth="yes"/>
      <point x="387" y="54"/>
      <point x="480" y="138"/>
      <point x="500" y="246" type="curve" smooth="yes"/>
      <point x="503" y="260"/>
      <point x="503" y="273"/>
      <point x="503" y="286" type="curve" smooth="yes"/>
      <point x="503" y="374"/>
      <point x="446" y="436"/>
      <point x="358" y="436" type="curve" smooth="yes"/>
      <point x="300" y="436"/>
      <point x="244" y="409"/>
      <point x="189" y="353" type="curve"/>
    </contour>
  </outline>
</glyph>
<glyph name="six" format="1">
  <advance width="554"/>
  <unicode hex="0036"/>
  <outline>
    <contour>
      <point x="433" y="739" type="line"/>
      <point x="518" y="739" type="line"/>
      <point x="296" y="482" type="line"/>
      <point x="332" y="498"/>
      <point x="355" y="503"/>
      <point x="386" y="503" type="curve" smooth="yes"/>
      <point x="502" y="503"/>
      <point x="580" y="417"/>
      <point x="580" y="300" type="curve" smooth="yes"/>
      <point x="580" y="283"/>
      <point x="578" y="267"/>
      <point x="575" y="249" type="curve" smooth="yes"/>
      <point x="547" y="97"/>
      <point x="422" y="-13"/>
      <point x="278" y="-13" type="curve" smooth="yes"/>
      <point x="150" y="-13"/>
      <point x="65" y="72"/>
      <point x="65" y="192" type="curve" smooth="yes"/>
      <point x="65" y="209"/>
      <point x="67" y="226"/>
      <point x="70" y="244" type="curve" smooth="yes"/>
      <point x="84" y="318"/>
      <point x="109" y="361"/>
      <point x="200" y="467" type="curve" smooth="yes"/>
    </contour>
    <contour>
      <point x="357" y="436" type="curve" smooth="yes"/>
      <point x="257" y="436"/>
      <point x="165" y="354"/>
      <point x="145" y="246" type="curve" smooth="yes"/>
      <point x="142" y="232"/>
      <point x="141" y="218"/>
      <point x="141" y="205" type="curve" smooth="yes"/>
      <point x="141" y="116"/>
      <point x="199" y="54"/>
      <point x="289" y="54" type="curve" smooth="yes"/>
      <point x="392" y="54"/>
      <point x="479" y="134"/>
      <point x="500" y="245" type="curve" smooth="yes"/>
      <point x="503" y="260"/>
      <point x="505" y="275"/>
      <point x="505" y="289" type="curve" smooth="yes"/>
      <point x="505" y="378"/>
      <point x="449" y="436"/>
    </contour>
  </outline>
</glyph>
<glyph name="seven" format="1">
  <advance width="554"/>
  <unicode hex="0037"/>
  <outline>
    <contour>
      <point x="110" y="0" type="line"/>
      <point x="539" y="672" type="line"/>
      <point x="189" y="672" type="line"/>
      <point x="201" y="739" type="line"/>
      <point x="627" y="739" type="line"/>
      <point x="615" y="672" type="line"/>
      <point x="188" y="0" type="line"/>
    </contour>
  </outline>
</glyph>
<glyph name="eight" format="1">
  <advance width="554"/>
  <unicode hex="0038"/>
  <outline>
    <contour>
      <point x="244" y="413" type="curve"/>
      <point x="221" y="428"/>
      <point x="211" y="437"/>
      <point x="201" y="452" type="curve" smooth="yes"/>
      <point x="188" y="473"/>
      <point x="182" y="498"/>
      <point x="182" y="526" type="curve" smooth="yes"/>
      <point x="182" y="537"/>
      <point x="183" y="549"/>
      <point x="185" y="561" type="curve" smooth="yes"/>
      <point x="205" y="670"/>
      <point x="305" y="752"/>
      <point x="417" y="752" type="curve" smooth="yes"/>
      <point x="517" y="752"/>
      <point x="581" y="692"/>
      <point x="581" y="601" type="curve" smooth="yes"/>
      <point x="581" y="588"/>
      <point x="580" y="575"/>
      <point x="577" y="561" type="curve" smooth="yes"/>
      <point x="563" y="488"/>
      <point x="527" y="441"/>
      <point x="462" y="413" type="curve"/>
      <point x="524" y="383"/>
      <point x="557" y="331"/>
      <point x="557" y="263" type="curve" smooth="yes"/>
      <point x="557" y="249"/>
      <point x="555" y="234"/>
      <point x="552" y="218" type="curve" smooth="yes"/>
      <point x="527" y="83"/>
      <point x="413" y="-13"/>
      <point x="278" y="-13" type="curve" smooth="yes"/>
      <point x="158" y="-13"/>
      <point x="78" y="64"/>
      <point x="78" y="172" type="curve" smooth="yes"/>
      <point x="78" y="186"/>
      <point x="79" y="200"/>
      <point x="82" y="215" type="curve" smooth="yes"/>
      <point x="98" y="304"/>
      <point x="156" y="374"/>
    </contour>
    <contour>
      <point x="345" y="375" type="curve" smooth="yes"/>
      <point x="252" y="375"/>
      <point x="173" y="308"/>
      <point x="155" y="213" type="curve" smooth="yes"/>
      <point x="153" y="202"/>
      <point x="152" y="191"/>
      <point x="152" y="181" type="curve" smooth="yes"/>
      <point x="152" y="106"/>
      <point x="205" y="54"/>
      <point x="289" y="54" type="curve" smooth="yes"/>
      <point x="382" y="54"/>
      <point x="460" y="121"/>
      <point x="478" y="216" type="curve" smooth="yes"/>
      <point x="480" y="228"/>
      <point x="481" y="239"/>
      <point x="481" y="250" type="curve" smooth="yes"/>
      <point x="481" y="325"/>
      <point x="430" y="375"/>
    </contour>
    <contour>
      <point x="402" y="685" type="curve" smooth="yes"/>
      <point x="332" y="685"/>
      <point x="273" y="635"/>
      <point x="260" y="566" type="curve" smooth="yes"/>
      <point x="258" y="558"/>
      <point x="258" y="550"/>
      <point x="258" y="542" type="curve" smooth="yes"/>
      <point x="258" y="484"/>
      <point x="299" y="444"/>
      <point x="362" y="444" type="curve" smooth="yes"/>
      <point x="430" y="444"/>
      <point x="491" y="496"/>
      <point x="504" y="565" type="curve" smooth="yes"/>
      <point x="506" y="574"/>
      <point x="506" y="583"/>
      <point x="506" y="591" type="curve" smooth="yes"/>
      <point x="506" y="648"/>
      <point x="467" y="685"/>
    </contour>
  </outline>
</glyph>
<glyph name="nine" format="1">
  <advance width="554"/>
  <unicode hex="0039"/>
  <outline>
    <contour>
      <point x="258" y="0" type="line"/>
      <point x="173" y="0" type="line"/>
      <point x="395" y="257" type="line"/>
      <point x="359" y="241"/>
      <point x="336" y="236"/>
      <point x="305" y="236" type="curve" smooth="yes"/>
      <point x="189" y="236"/>
      <point x="111" y="322"/>
      <point x="111" y="439" type="curve" smooth="yes"/>
      <point x="111" y="456"/>
      <point x="113" y="472"/>
      <point x="116" y="490" type="curve" smooth="yes"/>
      <point x="144" y="642"/>
      <point x="269" y="752"/>
      <point x="413" y="752" type="curve" smooth="yes"/>
      <point x="541" y="752"/>
      <point x="626" y="667"/>
      <point x="626" y="547" type="curve" smooth="yes"/>
      <point x="626" y="530"/>
      <point x="624" y="513"/>
      <point x="621" y="495" type="curve" smooth="yes"/>
      <point x="607" y="421"/>
      <point x="582" y="378"/>
      <point x="491" y="272" type="curve" smooth="yes"/>
    </contour>
    <contour>
      <point x="399" y="685" type="curve" smooth="yes"/>
      <point x="299" y="685"/>
      <point x="211" y="604"/>
      <point x="190" y="493" type="curve" smooth="yes"/>
      <point x="187" y="478"/>
      <point x="186" y="464"/>
      <point x="186" y="451" type="curve" smooth="yes"/>
      <point x="186" y="363"/>
      <point x="243" y="303"/>
      <point x="332" y="303" type="curve" smooth="yes"/>
      <point x="434" y="303"/>
      <point x="526" y="384"/>
      <point x="546" y="493" type="curve" smooth="yes"/>
      <point x="549" y="507"/>
      <point x="550" y="521"/>
      <point x="550" y="534" type="curve" smooth="yes"/>
      <point x="550" y="623"/>
      <point x="491" y="685"/>
    </contour>
  </outline>
</glyph>
<glyph name="colon" format="1">
  <advance width="277"/>
  <unicode hex="003A"/>
  <outline>
    <contour>
      <point x="101" y="0" type="line"/>
      <point x="124" y="126" type="line"/>
      <point x="198" y="126" type="line"/>
      <point x="175" y="0" type="line"/>
    </contour>
    <contour>
      <point x="172" y="381" type="line"/>
      <point x="195" y="507" type="line"/>
      <point x="269" y="507" type="line"/>
      <point x="246" y="381" type="line"/>
    </contour>
  </outline>
</glyph>
<glyph name="semicolon" format="1">
  <advance width="277"/>
  <unicode hex="003B"/>
  <outline>
    <contour>
      <point x="29" y="-67" type="line"/>
      <point x="152" y="126" type="line"/>
      <point x="226" y="126" type="line"/>
      <point x="103" y="-67" type="line"/>
    </contour>
    <contour>
      <point x="196" y="381" type="line"/>
      <point x="219" y="507" type="line"/>
      <point x="293" y="507" type="line"/>
      <point x="270" y="381" type="line"/>
    </contour>
  </outline>
</glyph>
<glyph name="less" format="1">
  <advance width="606"/>
  <unicode hex="003C"/>
  <outline>
    <contour>
      <point x="663" y="565" type="line"/>
      <point x="648" y="487" type="line"/>
      <point x="213" y="300" type="line"/>
      <point x="579" y="115" type="line"/>
      <point x="565" y="37" type="line"/>
      <point x="99" y="268" type="line"/>
      <point x="111" y="333" type="line"/>
    </contour>
  </outline>
</glyph>
<glyph name="equal" format="1">
  <advance width="606"/>
  <unicode hex="003D"/>
  <outline>
    <contour>
      <point x="636" y="436" type="line"/>
      <point x="622" y="362" type="line"/>
      <point x="118" y="362" type="line"/>
      <point x="132" y="436" type="line"/>
    </contour>
    <contour>
      <point x="599" y="238" type="line"/>
      <point x="585" y="164" type="line"/>
      <point x="81" y="164" type="line"/>
      <point x="95" y="238" type="line"/>
    </contour>
  </outline>
</glyph>
<glyph name="greater" format="1">
  <advance width="606"/>
  <unicode hex="003E"/>
  <outline>
    <contour>
      <point x="55" y="37" type="line"/>
      <point x="69" y="115" type="line"/>
      <point x="506" y="302" type="line"/>
      <point x="138" y="487" type="line"/>
      <point x="153" y="565" type="line"/>
      <point x="619" y="334" type="line"/>
      <point x="607" y="269" type="line"/>
    </contour>
  </outline>
</glyph>
<glyph name="question" format="1">
  <advance width="591"/>
  <unicode hex="003F"/>
  <outline>
    <contour>
      <point x="261" y="0" type="line"/>
      <point x="284" y="126" type="line"/>
      <point x="358" y="126" type="line"/>
      <point x="335" y="0" type="line"/>
    </contour>
    <contour>
      <point x="229" y="508" type="curve"/>
      <point x="159" y="508" type="line"/>
      <point x="173" y="575"/>
      <point x="190" y="613"/>
      <point x="225" y="654" type="curve" smooth="yes"/>
      <point x="280" y="717"/>
      <point x="355" y="752"/>
      <point x="438" y="752" type="curve" smooth="yes"/>
      <point x="553" y="752"/>
      <point x="628" y="681"/>
      <point x="628" y="578" type="curve" smooth="yes"/>
      <point x="628" y="564"/>
      <point x="627" y="550"/>
      <point x="624" y="535" type="curve" smooth="yes"/>
      <point x="612" y="470"/>
      <point x="580" y="425"/>
      <point x="503" y="365" type="curve" smooth="yes"/>
      <point x="417" y="300"/>
      <point x="382" y="256"/>
      <point x="369" y="193" type="curve"/>
      <point x="299" y="193" type="line"/>
      <point x="315" y="275"/>
      <point x="352" y="328"/>
      <point x="441" y="397" type="curve" smooth="yes"/>
      <point x="520" y="460"/>
      <point x="542" y="488"/>
      <point x="551" y="537" type="curve" smooth="yes"/>
      <point x="553" y="547"/>
      <point x="553" y="557"/>
      <point x="553" y="567" type="curve" smooth="yes"/>
      <point x="553" y="637"/>
      <point x="503" y="685"/>
      <point x="426" y="685" type="curve" smooth="yes"/>
      <point x="364" y="685"/>
      <point x="304" y="655"/>
      <point x="269" y="604" type="curve" smooth="yes"/>
      <point x="252" y="580"/>
      <point x="242" y="555"/>
    </contour>
  </outline>
</glyph>
<glyph name="at" format="1">
  <advance width="867"/>
  <unicode hex="0040"/>
  <outline>
    <contour>
      <point x="762" y="574" type="line"/>
      <point x="618" y="296" type="line" smooth="yes"/>
      <point x="587" y="234"/>
      <point x="587" y="234"/>
      <point x="584" y="219" type="curve" smooth="yes"/>
      <point x="584" y="217"/>
      <point x="583" y="216"/>
      <point x="583" y="214" type="curve" smooth="yes"/>
      <point x="583" y="200"/>
      <point x="594" y="191"/>
      <point x="611" y="191" type="curve" smooth="yes"/>
      <point x="637" y="191"/>
      <point x="675" y="209"/>
      <point x="710" y="239" type="curve" smooth="yes"/>
      <point x="772" y="291"/>
      <point x="813" y="361"/>
      <point x="827" y="434" type="curve" smooth="yes"/>
      <point x="830" y="450"/>
      <point x="832" y="466"/>
      <point x="832" y="482" type="curve" smooth="yes"/>
      <point x="832" y="610"/>
      <point x="732" y="701"/>
      <point x="582" y="701" type="curve" smooth="yes"/>
      <point x="401" y="701"/>
      <point x="225" y="551"/>
      <point x="191" y="368" type="curve" smooth="yes"/>
      <point x="187" y="347"/>
      <point x="185" y="326"/>
      <point x="185" y="306" type="curve" smooth="yes"/>
      <point x="185" y="152"/>
      <point x="297" y="37"/>
      <point x="460" y="37" type="curve" smooth="yes"/>
      <point x="551" y="37"/>
      <point x="638" y="72"/>
      <point x="713" y="138" type="curve"/>
      <point x="746" y="105" type="line"/>
      <point x="669" y="32"/>
      <point x="558" y="-13"/>
      <point x="449" y="-13" type="curve" smooth="yes"/>
      <point x="261" y="-13"/>
      <point x="132" y="118"/>
      <point x="132" y="295" type="curve" smooth="yes"/>
      <point x="132" y="318"/>
      <point x="134" y="342"/>
      <point x="139" y="367" type="curve" smooth="yes"/>
      <point x="179" y="581"/>
      <point x="380" y="752"/>
      <point x="591" y="752" type="curve" smooth="yes"/>
      <point x="679" y="752"/>
      <point x="760" y="721"/>
      <point x="813" y="667" type="curve" smooth="yes"/>
      <point x="860" y="620"/>
      <point x="883" y="561"/>
      <point x="883" y="493" type="curve" smooth="yes"/>
      <point x="883" y="474"/>
      <point x="881" y="454"/>
      <point x="877" y="433" type="curve" smooth="yes"/>
      <point x="860" y="342"/>
      <point x="809" y="259"/>
      <point x="732" y="198" type="curve" smooth="yes"/>
      <point x="682" y="158"/>
      <point x="636" y="139"/>
      <point x="590" y="139" type="curve" smooth="yes"/>
      <point x="543" y="139"/>
      <point x="520" y="155"/>
      <point x="512" y="196" type="curve"/>
      <point x="468" y="159"/>
      <point x="431" y="144"/>
      <point x="384" y="144" type="curve" smooth="yes"/>
      <point x="314" y="144"/>
      <point x="270" y="189"/>
      <point x="270" y="258" type="curve" smooth="yes"/>
      <point x="270" y="269"/>
      <point x="271" y="280"/>
      <point x="273" y="292" type="curve" smooth="yes"/>
      <point x="301" y="445"/>
      <point x="449" y="593"/>
      <point x="573" y="593" type="curve" smooth="yes"/>
      <point x="603" y="593"/>
      <point x="631" y="585"/>
      <point x="649" y="571" type="curve" smooth="yes"/>
      <point x="663" y="561"/>
      <point x="669" y="549"/>
      <point x="675" y="524" type="curve"/>
      <point x="701" y="574" type="line"/>
    </contour>
    <contour>
      <point x="563" y="539" type="curve" smooth="yes"/>
      <point x="478" y="539"/>
      <point x="367" y="415"/>
      <point x="345" y="294" type="curve" smooth="yes"/>
      <point x="343" y="286"/>
      <point x="343" y="278"/>
      <point x="343" y="271" type="curve" smooth="yes"/>
      <point x="343" y="229"/>
      <point x="367" y="202"/>
      <point x="408" y="202" type="curve" smooth="yes"/>
      <point x="455" y="202"/>
      <point x="496" y="231"/>
      <point x="544" y="297" type="curve" smooth="yes"/>
      <point x="583" y="351"/>
      <point x="619" y="422"/>
      <point x="626" y="462" type="curve" smooth="yes"/>
      <point x="627" y="468"/>
      <point x="627" y="474"/>
      <point x="627" y="480" type="curve" smooth="yes"/>
      <point x="627" y="517"/>
      <point x="604" y="539"/>
    </contour>
  </outline>
</glyph>
<glyph name="B" format="1">
  <advance width="574"/>
  <unicode hex="0042"/>
  <outline>
    <contour>
      <point x="76" y="0" type="line"/>
      <point x="213" y="739" type="line"/>
      <point x="386" y="739" type="line" smooth="yes"/>
      <point x="476" y="739"/>
      <point x="529" y="726"/>
      <point x="565" y="696" type="curve" smooth="yes"/>
      <point x="593" y="672"/>
      <point x="608" y="635"/>
      <point x="608" y="590" type="curve" smooth="yes"/>
      <point x="608" y="576"/>
      <point x="606" y="562"/>
      <point x="603" y="547" type="curve" smooth="yes"/>
      <point x="589" y="474"/>
      <point x="556" y="426"/>
      <point x="493" y="394" type="curve"/>
      <point x="558" y="365"/>
      <point x="588" y="323"/>
      <point x="588" y="259" type="curve" smooth="yes"/>
      <point x="588" y="244"/>
      <point x="586" y="229"/>
      <point x="583" y="212" type="curve" smooth="yes"/>
      <point x="569" y="136"/>
      <point x="526" y="71"/>
      <point x="468" y="39" type="curve" smooth="yes"/>
      <point x="416" y="11"/>
      <point x="358" y="0"/>
      <point x="259" y="0" type="curve" smooth="yes"/>
    </contour>
    <contour>
      <point x="162" y="67" type="line"/>
      <point x="263" y="67" type="line" smooth="yes"/>
      <point x="338" y="67"/>
      <point x="389" y="75"/>
      <point x="428" y="94" type="curve" smooth="yes"/>
      <point x="466" y="112"/>
      <point x="499" y="157"/>
      <point x="508" y="208" type="curve" smooth="yes"/>
      <point x="510" y="220"/>
      <point x="511" y="230"/>
      <point x="511" y="241" type="curve" smooth="yes"/>
      <point x="511" y="290"/>
      <point x="488" y="326"/>
      <point x="447" y="340" type="curve" smooth="yes"/>
      <point x="416" y="350"/>
      <point x="380" y="354"/>
      <point x="304" y="354" type="curve" smooth="yes"/>
      <point x="216" y="354" type="line"/>
    </contour>
    <contour>
      <point x="228" y="421" type="line"/>
      <point x="318" y="421" type="line" smooth="yes"/>
      <point x="385" y="421"/>
      <point x="418" y="426"/>
      <point x="452" y="440" type="curve" smooth="yes"/>
      <point x="492" y="457"/>
      <point x="519" y="495"/>
      <point x="528" y="546" type="curve" smooth="yes"/>
      <point x="530" y="556"/>
      <point x="531" y="566"/>
      <point x="531" y="576" type="curve" smooth="yes"/>
      <point x="531" y="607"/>
      <point x="521" y="633"/>
      <point x="504" y="646" type="curve" smooth="yes"/>
      <point x="480" y="665"/>
      <point x="440" y="672"/>
      <point x="364" y="672" type="curve" smooth="yes"/>
      <point x="275" y="672" type="line"/>
    </contour>
  </outline>
</glyph>
<glyph name="D" format="1">
  <advance width="744"/>
  <unicode hex="0044"/>
  <outline>
    <contour>
      <point x="76" y="0" type="line"/>
      <point x="213" y="739" type="line"/>
      <point x="387" y="739" type="line" smooth="yes"/>
      <point x="525" y="739"/>
      <point x="602" y="722"/>
      <point x="665" y="676" type="curve" smooth="yes"/>
      <point x="738" y="624"/>
      <point x="776" y="546"/>
      <point x="776" y="449" type="curve" smooth="yes"/>
      <point x="776" y="423"/>
      <point x="773" y="396"/>
      <point x="768" y="367" type="curve" smooth="yes"/>
      <point x="742" y="226"/>
      <point x="659" y="115"/>
      <point x="531" y="51" type="curve" smooth="yes"/>
      <point x="461" y="16"/>
      <point x="382" y="0"/>
      <point x="275" y="0" type="curve" smooth="yes"/>
    </contour>
    <contour>
      <point x="162" y="67" type="line"/>
      <point x="265" y="67" type="line" smooth="yes"/>
      <point x="400" y="67"/>
      <point x="482" y="87"/>
      <point x="551" y="138" type="curve" smooth="yes"/>
      <point x="625" y="193"/>
      <point x="677" y="276"/>
      <point x="694" y="370" type="curve" smooth="yes"/>
      <point x="698" y="392"/>
      <point x="700" y="413"/>
      <point x="700" y="433" type="curve" smooth="yes"/>
      <point x="700" y="518"/>
      <point x="664" y="588"/>
      <point x="600" y="628" type="curve" smooth="yes"/>
      <point x="552" y="659"/>
      <point x="486" y="672"/>
      <point x="378" y="672" type="curve" smooth="yes"/>
      <point x="275" y="672" type="line"/>
    </contour>
  </outline>
</glyph>
<glyph name="F" format="1">
  <advance width="485"/>
  <unicode hex="0046"/>
  <outline>
    <contour>
      <point x="76" y="0" type="line"/>
      <point x="213" y="739" type="line"/>
      <point x="588" y="739" type="line"/>
      <point x="576" y="672" type="line"/>
      <point x="275" y="672" type="line"/>
      <point x="225" y="405" type="line"/>
      <point x="515" y="405" type="line"/>
      <point x="503" y="338" type="line"/>
      <point x="213" y="338" type="line"/>
      <point x="150" y="0" type="line"/>
    </contour>
  </outline>
</glyph>
<glyph name="G" format="1">
  <advance width="872"/>
  <unicode hex="0047"/>
  <outline>
    <contour>
      <point x="392" y="341" type="line"/>
      <point x="894" y="341" type="line"/>
      <point x="873" y="255"/>
      <point x="824" y="174"/>
      <point x="748" y="106" type="curve" smooth="yes"/>
      <point x="663" y="28"/>
      <point x="558" y="-13"/>
      <point x="444" y="-13" type="curve" smooth="yes"/>
      <point x="243" y="-13"/>
      <point x="106" y="119"/>
      <point x="106" y="300" type="curve" smooth="yes"/>
      <point x="106" y="323"/>
      <point x="108" y="347"/>
      <point x="113" y="371" type="curve" smooth="yes"/>
      <point x="153" y="585"/>
      <point x="355" y="752"/>
      <point x="575" y="752" type="curve" smooth="yes"/>
      <point x="736" y="752"/>
      <point x="860" y="668"/>
      <point x="886" y="542" type="curve"/>
      <point x="803" y="542" type="line"/>
      <point x="769" y="632"/>
      <point x="683" y="684"/>
      <point x="569" y="684" type="curve" smooth="yes"/>
      <point x="386" y="684"/>
      <point x="220" y="547"/>
      <point x="187" y="369" type="curve" smooth="yes"/>
      <point x="183" y="349"/>
      <point x="182" y="330"/>
      <point x="182" y="311" type="curve" smooth="yes"/>
      <point x="182" y="163"/>
      <point x="292" y="55"/>
      <point x="453" y="55" type="curve" smooth="yes"/>
      <point x="541" y="55"/>
      <point x="626" y="87"/>
      <point x="695" y="147" type="curve" smooth="yes"/>
      <point x="743" y="189"/>
      <point x="773" y="228"/>
      <point x="793" y="274" type="curve"/>
      <point x="380" y="274" type="line"/>
    </contour>
  </outline>
</glyph>
<glyph name="J" format="1">
  <advance width="482"/>
  <unicode hex="004A"/>
  <outline>
    <contour>
      <point x="543" y="739" type="line"/>
      <point x="449" y="231" type="line" smooth="yes"/>
      <point x="420" y="72"/>
      <point x="334" y="-14"/>
      <point x="206" y="-14" type="curve" smooth="yes"/>
      <point x="100" y="-14"/>
      <point x="41" y="42"/>
      <point x="41" y="139" type="curve" smooth="yes"/>
      <point x="41" y="150"/>
      <point x="41" y="163"/>
      <point x="43" y="175" type="curve"/>
      <point x="116" y="175" type="line"/>
      <point x="115" y="168"/>
      <point x="115" y="161"/>
      <point x="115" y="155" type="curve" smooth="yes"/>
      <point x="115" y="92"/>
      <point x="154" y="54"/>
      <point x="220" y="54" type="curve" smooth="yes"/>
      <point x="300" y="54"/>
      <point x="353" y="114"/>
      <point x="375" y="231" type="curve" smooth="yes"/>
      <point x="469" y="739" type="line"/>
    </contour>
  </outline>
</glyph>
<glyph name="K" format="1">
  <advance width="591"/>
  <unicode hex="004B"/>
  <outline>
    <contour>
      <point x="76" y="0" type="line"/>
      <point x="213" y="739" type="line"/>
      <point x="287" y="739" type="line"/>
      <point x="208" y="314" type="line"/>
      <point x="629" y="739" type="line"/>
      <point x="722" y="739" type="line"/>
      <point x="363" y="379" type="line"/>
      <point x="585" y="0" type="line"/>
      <point x="492" y="0" type="line"/>
      <point x="305" y="320" type="line"/>
      <point x="187" y="202" type="line"/>
      <point x="150" y="0" type="line"/>
    </contour>
  </outline>
</glyph>
<glyph name="L" format="1">
  <advance width="462"/>
  <unicode hex="004C"/>
  <outline>
    <contour>
      <point x="76" y="0" type="line"/>
      <point x="213" y="739" type="line"/>
      <point x="287" y="739" type="line"/>
      <point x="162" y="67" type="line"/>
      <point x="468" y="67" type="line"/>
      <point x="456" y="0" type="line"/>
    </contour>
  </outline>
</glyph>
<glyph name="P" format="1">
  <advance width="592"/>
  <unicode hex="0050"/>
  <outline>
    <contour>
      <point x="76" y="0" type="line"/>
      <point x="213" y="739" type="line"/>
      <point x="417" y="739" type="line" smooth="yes"/>
      <point x="512" y="739"/>
      <point x="566" y="728"/>
      <point x="607" y="700" type="curve" smooth="yes"/>
      <point x="646" y="674"/>
      <point x="666" y="629"/>
      <point x="666" y="570" type="curve" smooth="yes"/>
      <point x="666" y="553"/>
      <point x="664" y="534"/>
      <point x="660" y="515" type="curve" smooth="yes"/>
      <point x="646" y="441"/>
      <point x="609" y="380"/>
      <point x="555" y="345" type="curve" smooth="yes"/>
      <point x="504" y="312"/>
      <point x="447" y="299"/>
      <point x="347" y="299" type="curve" smooth="yes"/>
      <point x="205" y="299" type="line"/>
      <point x="150" y="0" type="line"/>
    </contour>
    <contour>
      <point x="218" y="366" type="line"/>
      <point x="355" y="366" type="line" smooth="yes"/>
      <point x="423" y="366"/>
      <point x="467" y="373"/>
      <point x="501" y="391" type="curve" smooth="yes"/>
      <point x="544" y="412"/>
      <point x="575" y="458"/>
      <point x="586" y="516" type="curve" smooth="yes"/>
      <point x="589" y="530"/>
      <point x="590" y="543"/>
      <point x="590" y="556" type="curve" smooth="yes"/>
      <point x="590" y="607"/>
      <point x="569" y="642"/>
      <point x="529" y="656" type="curve" smooth="yes"/>
      <point x="498" y="667"/>
      <point x="453" y="672"/>
      <point x="380" y="672" type="curve" smooth="yes"/>
      <point x="275" y="672" type="line"/>
    </contour>
  </outline>
</glyph>
<glyph name="Q" format="1">
  <advance width="871"/>
  <unicode hex="0051"/>
  <outline>
    <contour>
      <point x="837" y="56" type="curve"/>
      <point x="825" y="-13" type="line"/>
      <point x="756" y="-12"/>
      <point x="716" y="4"/>
      <point x="674" y="51" type="curve"/>
      <point x="603" y="9"/>
      <point x="523" y="-13"/>
      <point x="441" y="-13" type="curve" smooth="yes"/>
      <point x="243" y="-13"/>
      <point x="106" y="120"/>
      <point x="106" y="300" type="curve" smooth="yes"/>
      <point x="106" y="322"/>
      <point x="108" y="346"/>
      <point x="112" y="369" type="curve" smooth="yes"/>
      <point x="153" y="588"/>
      <point x="354" y="752"/>
      <point x="583" y="752" type="curve" smooth="yes"/>
      <point x="783" y="752"/>
      <point x="915" y="625"/>
      <point x="915" y="445" type="curve" smooth="yes"/>
      <point x="915" y="421"/>
      <point x="913" y="397"/>
      <point x="908" y="371" type="curve" smooth="yes"/>
      <point x="887" y="257"/>
      <point x="826" y="161"/>
      <point x="733" y="93" type="curve"/>
      <point x="765" y="66"/>
      <point x="791" y="55"/>
      <point x="822" y="55" type="curve" smooth="yes"/>
      <point x="825" y="55"/>
      <point x="830" y="55"/>
    </contour>
    <contour>
      <point x="201" y="216" type="curve"/>
      <point x="235" y="119"/>
      <point x="336" y="55"/>
      <point x="453" y="55" type="curve" smooth="yes"/>
      <point x="516" y="55"/>
      <point x="569" y="69"/>
      <point x="624" y="100" type="curve"/>
      <point x="535" y="198"/>
      <point x="447" y="237"/>
      <point x="321" y="237" type="curve" smooth="yes"/>
      <point x="274" y="237"/>
      <point x="244" y="232"/>
    </contour>
    <contour>
      <point x="182" y="279" type="curve"/>
      <point x="243" y="298"/>
      <point x="288" y="305"/>
      <point x="345" y="305" type="curve" smooth="yes"/>
      <point x="452" y="305"/>
      <point x="538" y="276"/>
      <point x="612" y="215" type="curve" smooth="yes"/>
      <point x="637" y="193"/>
      <point x="660" y="171"/>
      <point x="689" y="142" type="curve"/>
      <point x="769" y="208"/>
      <point x="817" y="284"/>
      <point x="833" y="371" type="curve" smooth="yes"/>
      <point x="837" y="391"/>
      <point x="838" y="411"/>
      <point x="838" y="430" type="curve" smooth="yes"/>
      <point x="838" y="577"/>
      <point x="730" y="684"/>
      <point x="569" y="684" type="curve" smooth="yes"/>
      <point x="386" y="684"/>
      <point x="220" y="545"/>
      <point x="186" y="363" type="curve" smooth="yes"/>
      <point x="182" y="343"/>
      <point x="181" y="327"/>
      <point x="181" y="306" type="curve" smooth="yes"/>
      <point x="181" y="298"/>
      <point x="182" y="289"/>
    </contour>
  </outline>
</glyph>
<glyph name="R" format="1">
  <advance width="607"/>
  <unicode hex="0052"/>
  <outline>
    <contour>
      <point x="410" y="276" type="curve"/>
      <point x="566" y="0" type="line"/>
      <point x="474" y="0" type="line"/>
      <point x="287" y="335" type="line"/>
      <point x="377" y="335"/>
      <point x="423" y="339"/>
      <point x="460" y="349" type="curve" smooth="yes"/>
      <point x="535" y="370"/>
      <point x="580" y="422"/>
      <point x="595" y="503" type="curve" smooth="yes"/>
      <point x="598" y="517"/>
      <point x="599" y="530"/>
      <point x="599" y="542" type="curve" smooth="yes"/>
      <point x="599" y="590"/>
      <point x="580" y="626"/>
      <point x="544" y="645" type="curve" smooth="yes"/>
      <point x="508" y="664"/>
      <point x="457" y="672"/>
      <point x="379" y="672" type="curve" smooth="yes"/>
      <point x="275" y="672" type="line"/>
      <point x="150" y="0" type="line"/>
      <point x="76" y="0" type="line"/>
      <point x="213" y="739" type="line"/>
      <point x="396" y="739" type="line" smooth="yes"/>
      <point x="497" y="739"/>
      <point x="559" y="727"/>
      <point x="601" y="701" type="curve" smooth="yes"/>
      <point x="650" y="669"/>
      <point x="675" y="619"/>
      <point x="675" y="555" type="curve" smooth="yes"/>
      <point x="675" y="538"/>
      <point x="673" y="521"/>
      <point x="670" y="502" type="curve" smooth="yes"/>
      <point x="646" y="370"/>
      <point x="555" y="291"/>
    </contour>
  </outline>
</glyph>
<glyph name="T" format="1">
  <advance width="426"/>
  <unicode hex="0054"/>
  <outline>
    <contour>
      <point x="176" y="0" type="line"/>
      <point x="301" y="672" type="line"/>
      <point x="132" y="672" type="line"/>
      <point x="144" y="739" type="line"/>
      <point x="556" y="739" type="line"/>
      <point x="544" y="672" type="line"/>
      <point x="375" y="672" type="line"/>
      <point x="250" y="0" type="line"/>
    </contour>
  </outline>
</glyph>
<glyph name="W" format="1">
  <advance width="960"/>
  <unicode hex="0057"/>
  <outline>
    <contour>
      <point x="221" y="0" type="line"/>
      <point x="147" y="739" type="line"/>
      <point x="223" y="739" type="line"/>
      <point x="286" y="96" type="line"/>
      <point x="582" y="739" type="line"/>
      <point x="652" y="739" type="line"/>
      <point x="710" y="96" type="line"/>
      <point x="1011" y="739" type="line"/>
      <point x="1087" y="739" type="line"/>
      <point x="738" y="0" type="line"/>
      <point x="643" y="0" type="line"/>
      <point x="591" y="606" type="line"/>
      <point x="317" y="0" type="line"/>
    </contour>
  </outline>
</glyph>
<glyph name="X" format="1">
  <advance width="609"/>
  <unicode hex="0058"/>
  <outline>
    <contour>
      <point x="8" y="0" type="line"/>
      <point x="329" y="378" type="line"/>
      <point x="159" y="739" type="line"/>
      <point x="246" y="739" type="line"/>
      <point x="387" y="443" type="line"/>
      <point x="637" y="739" type="line"/>
      <point x="723" y="739" type="line"/>
      <point x="419" y="378" type="line"/>
      <point x="601" y="0" type="line"/>
      <point x="514" y="0" type="line"/>
      <point x="364" y="316" type="line"/>
      <point x="95" y="0" type="line"/>
    </contour>
  </outline>
</glyph>
<glyph name="Y" format="1">
  <advance width="592"/>
  <unicode hex="0059"/>
  <outline>
    <contour>
      <point x="258" y="0" type="line"/>
      <point x="304" y="247" type="line"/>
      <point x="139" y="739" type="line"/>
      <point x="221" y="739" type="line"/>
      <point x="354" y="325" type="line"/>
      <point x="646" y="739" type="line"/>
      <point x="727" y="739" type="line"/>
      <point x="378" y="247" type="line"/>
      <point x="332" y="0" type="line"/>
    </contour>
  </outline>
</glyph>
<glyph name="Z" format="1">
  <advance width="480"/>
  <unicode hex="005A"/>
  <outline>
    <contour>
      <point x="17" y="0" type="line"/>
      <point x="29" y="67" type="line"/>
      <point x="505" y="672" type="line"/>
      <point x="153" y="672" type="line"/>
      <point x="165" y="739" type="line"/>
      <point x="600" y="739" type="line"/>
      <point x="588" y="672" type="line"/>
      <point x="113" y="67" type="line"/>
      <point x="486" y="67" type="line"/>
      <point x="474" y="0" type="line"/>
    </contour>
  </outline>
</glyph>
<glyph name="bracketleft" format="1">
  <advance width="351"/>
  <unicode hex="005B"/>
  <outline>
    <contour>
      <point x="304" y="-50" type="curve"/>
      <point x="290" y="-125" type="line"/>
      <point x="236" y="-109"/>
      <point x="197" y="-81"/>
      <point x="168" y="-38" type="curve" smooth="yes"/>
      <point x="145" y="-4"/>
      <point x="133" y="31"/>
      <point x="133" y="79" type="curve" smooth="yes"/>
      <point x="133" y="104"/>
      <point x="136" y="132"/>
      <point x="142" y="164" type="curve" smooth="yes"/>
      <point x="198" y="462" type="line" smooth="yes"/>
      <point x="214" y="551"/>
      <point x="250" y="616"/>
      <point x="314" y="668" type="curve" smooth="yes"/>
      <point x="358" y="705"/>
      <point x="397" y="726"/>
      <point x="450" y="739" type="curve"/>
      <point x="436" y="664" type="line"/>
      <point x="330" y="621"/>
      <point x="287" y="566"/>
      <point x="265" y="448" type="curve" smooth="yes"/>
      <point x="215" y="177" type="line" smooth="yes"/>
      <point x="209" y="146"/>
      <point x="206" y="119"/>
      <point x="206" y="95" type="curve" smooth="yes"/>
      <point x="206" y="23"/>
      <point x="235" y="-17"/>
    </contour>
  </outline>
</glyph>
<glyph name="backslash" format="1">
  <advance width="605"/>
  <unicode hex="005C"/>
  <outline>
    <contour>
      <point x="464" y="0" type="line"/>
      <point x="394" y="0" type="line"/>
      <point x="221" y="739" type="line"/>
      <point x="291" y="739" type="line"/>
    </contour>
  </outline>
</glyph>
<glyph name="bracketright" format="1">
  <advance width="351"/>
  <unicode hex="005D"/>
  <outline>
    <contour>
      <point x="161" y="664" type="curve"/>
      <point x="175" y="739" type="line"/>
      <point x="229" y="723"/>
      <point x="268" y="695"/>
      <point x="297" y="653" type="curve" smooth="yes"/>
      <point x="320" y="620"/>
      <point x="331" y="583"/>
      <point x="331" y="535" type="curve" smooth="yes"/>
      <point x="331" y="510"/>
      <point x="328" y="482"/>
      <point x="322" y="450" type="curve" smooth="yes"/>
      <point x="267" y="153" type="line" smooth="yes"/>
      <point x="250" y="63"/>
      <point x="215" y="-1"/>
      <point x="151" y="-54" type="curve" smooth="yes"/>
      <point x="107" y="-91"/>
      <point x="69" y="-111"/>
      <point x="15" y="-125" type="curve"/>
      <point x="29" y="-50" type="line"/>
      <point x="135" y="-6"/>
      <point x="178" y="48"/>
      <point x="200" y="166" type="curve" smooth="yes"/>
      <point x="250" y="438" type="line" smooth="yes"/>
      <point x="256" y="469"/>
      <point x="259" y="496"/>
      <point x="259" y="519" type="curve" smooth="yes"/>
      <point x="259" y="591"/>
      <point x="230" y="631"/>
    </contour>
  </outline>
</glyph>
<glyph name="asciicircum" format="1">
  <advance width="606"/>
  <unicode hex="005E"/>
  <outline>
    <contour>
      <point x="621" y="180" type="line"/>
      <point x="540" y="180" type="line"/>
      <point x="426" y="660" type="line"/>
      <point x="132" y="180" type="line"/>
      <point x="51" y="180" type="line"/>
      <point x="398" y="739" type="line"/>
      <point x="483" y="739" type="line"/>
    </contour>
  </outline>
</glyph>
<glyph name="grave" format="1">
  <advance width="378"/>
  <unicode hex="0060"/>
  <outline>
    <contour>
      <point x="250" y="776" type="line"/>
      <point x="427" y="666" type="line"/>
      <point x="384" y="610" type="line"/>
      <point x="207" y="718" type="line"/>
    </contour>
  </outline>
</glyph>
<glyph name="a" format="1">
  <advance width="683"/>
  <unicode hex="0061"/>
  <outline>
    <contour>
      <point x="721" y="547" type="line"/>
      <point x="620" y="0" type="line"/>
      <point x="546" y="0" type="line"/>
      <point x="564" y="96" type="line"/>
      <point x="492" y="18"/>
      <point x="427" y="-13"/>
      <point x="334" y="-13" type="curve" smooth="yes"/>
      <point x="185" y="-13"/>
      <point x="87" y="81"/>
      <point x="87" y="216" type="curve" smooth="yes"/>
      <point x="87" y="234"/>
      <point x="88" y="253"/>
      <point x="92" y="272" type="curve" smooth="yes"/>
      <point x="122" y="436"/>
      <point x="270" y="560"/>
      <point x="434" y="560" type="curve" smooth="yes"/>
      <point x="529" y="560"/>
      <point x="588" y="527"/>
      <point x="629" y="450" type="curve"/>
      <point x="647" y="547" type="line"/>
    </contour>
    <contour>
      <point x="420" y="492" type="curve" smooth="yes"/>
      <point x="303" y="492"/>
      <point x="190" y="395"/>
      <point x="168" y="275" type="curve" smooth="yes"/>
      <point x="165" y="261"/>
      <point x="164" y="246"/>
      <point x="164" y="233" type="curve" smooth="yes"/>
      <point x="164" y="130"/>
      <point x="238" y="55"/>
      <point x="345" y="55" type="curve" smooth="yes"/>
      <point x="464" y="55"/>
      <point x="574" y="151"/>
      <point x="597" y="275" type="curve" smooth="yes"/>
      <point x="600" y="290"/>
      <point x="601" y="304"/>
      <point x="601" y="318" type="curve" smooth="yes"/>
      <point x="601" y="420"/>
      <point x="529" y="492"/>
    </contour>
  </outline>
</glyph>
<glyph name="b" format="1">
  <advance width="682"/>
  <unicode hex="0062"/>
  <outline>
    <contour>
      <point x="63" y="0" type="line"/>
      <point x="200" y="739" type="line"/>
      <point x="274" y="739" type="line"/>
      <point x="221" y="453" type="line"/>
      <point x="281" y="522"/>
      <point x="364" y="560"/>
      <point x="456" y="560" type="curve" smooth="yes"/>
      <point x="599" y="560"/>
      <point x="696" y="463"/>
      <point x="696" y="329" type="curve" smooth="yes"/>
      <point x="696" y="311"/>
      <point x="694" y="293"/>
      <point x="691" y="274" type="curve" smooth="yes"/>
      <point x="661" y="110"/>
      <point x="514" y="-13"/>
      <point x="349" y="-13" type="curve" smooth="yes"/>
      <point x="259" y="-13"/>
      <point x="187" y="26"/>
      <point x="154" y="94" type="curve"/>
      <point x="137" y="0" type="line"/>
    </contour>
    <contour>
      <point x="438" y="492" type="curve" smooth="yes"/>
      <point x="317" y="492"/>
      <point x="206" y="396"/>
      <point x="183" y="273" type="curve" smooth="yes"/>
      <point x="180" y="259"/>
      <point x="179" y="245"/>
      <point x="179" y="232" type="curve" smooth="yes"/>
      <point x="179" y="131"/>
      <point x="252" y="55"/>
      <point x="359" y="55" type="curve" smooth="yes"/>
      <point x="482" y="55"/>
      <point x="593" y="149"/>
      <point x="616" y="275" type="curve" smooth="yes"/>
      <point x="619" y="290"/>
      <point x="620" y="306"/>
      <point x="620" y="320" type="curve" smooth="yes"/>
      <point x="620" y="422"/>
      <point x="549" y="492"/>
    </contour>
  </outline>
</glyph>
<glyph name="d" format="1">
  <advance width="685"/>
  <unicode hex="0064"/>
  <outline>
    <contour>
      <point x="759" y="739" type="line"/>
      <point x="622" y="0" type="line"/>
      <point x="548" y="0" type="line"/>
      <point x="566" y="99" type="line"/>
      <point x="495" y="20"/>
      <point x="430" y="-13"/>
      <point x="338" y="-13" type="curve" smooth="yes"/>
      <point x="188" y="-13"/>
      <point x="87" y="83"/>
      <point x="87" y="218" type="curve" smooth="yes"/>
      <point x="87" y="235"/>
      <point x="89" y="254"/>
      <point x="92" y="272" type="curve" smooth="yes"/>
      <point x="122" y="436"/>
      <point x="271" y="560"/>
      <point x="437" y="560" type="curve" smooth="yes"/>
      <point x="523" y="560"/>
      <point x="591" y="525"/>
      <point x="633" y="460" type="curve"/>
      <point x="685" y="739" type="line"/>
    </contour>
    <contour>
      <point x="419" y="492" type="curve" smooth="yes"/>
      <point x="302" y="492"/>
      <point x="190" y="395"/>
      <point x="168" y="274" type="curve" smooth="yes"/>
      <point x="165" y="260"/>
      <point x="164" y="246"/>
      <point x="164" y="233" type="curve" smooth="yes"/>
      <point x="164" y="131"/>
      <point x="238" y="55"/>
      <point x="348" y="55" type="curve" smooth="yes"/>
      <point x="465" y="55"/>
      <point x="580" y="154"/>
      <point x="602" y="275" type="curve" smooth="yes"/>
      <point x="605" y="289"/>
      <point x="606" y="302"/>
      <point x="606" y="315" type="curve" smooth="yes"/>
      <point x="606" y="417"/>
      <point x="530" y="492"/>
    </contour>
  </outline>
</glyph>
<glyph name="f" format="1">
  <advance width="314"/>
  <unicode hex="0066"/>
  <outline>
    <contour>
      <point x="101" y="0" type="line"/>
      <point x="190" y="480" type="line"/>
      <point x="105" y="480" type="line"/>
      <point x="117" y="547" type="line"/>
      <point x="202" y="547" type="line"/>
      <point x="226" y="677"/>
      <point x="307" y="739"/>
      <point x="448" y="739" type="curve"/>
      <point x="436" y="672" type="line"/>
      <point x="334" y="672"/>
      <point x="293" y="639"/>
      <point x="276" y="547" type="curve"/>
      <point x="412" y="547" type="line"/>
      <point x="400" y="480" type="line"/>
      <point x="264" y="480" type="line"/>
      <point x="175" y="0" type="line"/>
    </contour>
  </outline>
</glyph>
<glyph name="h" format="1">
  <advance width="610"/>
  <unicode hex="0068"/>
  <outline>
    <contour>
      <point x="63" y="0" type="line"/>
      <point x="200" y="739" type="line"/>
      <point x="274" y="739" type="line"/>
      <point x="225" y="476" type="line"/>
      <point x="272" y="530"/>
      <point x="340" y="560"/>
      <point x="414" y="560" type="curve" smooth="yes"/>
      <point x="494" y="560"/>
      <point x="557" y="529"/>
      <point x="588" y="476" type="curve" smooth="yes"/>
      <point x="603" y="449"/>
      <point x="610" y="417"/>
      <point x="610" y="378" type="curve" smooth="yes"/>
      <point x="610" y="353"/>
      <point x="607" y="326"/>
      <point x="601" y="294" type="curve" smooth="yes"/>
      <point x="547" y="0" type="line"/>
      <point x="473" y="0" type="line"/>
      <point x="527" y="294" type="line" smooth="yes"/>
      <point x="532" y="318"/>
      <point x="534" y="339"/>
      <point x="534" y="358" type="curve" smooth="yes"/>
      <point x="534" y="390"/>
      <point x="528" y="415"/>
      <point x="514" y="436" type="curve" smooth="yes"/>
      <point x="491" y="471"/>
      <point x="446" y="492"/>
      <point x="395" y="492" type="curve" smooth="yes"/>
      <point x="338" y="492"/>
      <point x="280" y="465"/>
      <point x="243" y="421" type="curve" smooth="yes"/>
      <point x="217" y="391"/>
      <point x="204" y="357"/>
      <point x="193" y="300" type="curve" smooth="yes"/>
      <point x="137" y="0" type="line"/>
    </contour>
  </outline>
</glyph>
<glyph name="k" format="1">
  <advance width="502"/>
  <unicode hex="006B"/>
  <outline>
    <contour>
      <point x="63" y="0" type="line"/>
      <point x="200" y="739" type="line"/>
      <point x="274" y="739" type="line"/>
      <point x="177" y="215" type="line"/>
      <point x="493" y="547" type="line"/>
      <point x="584" y="547" type="line"/>
      <point x="320" y="272" type="line"/>
      <point x="497" y="0" type="line"/>
      <point x="405" y="0" type="line"/>
      <point x="264" y="219" type="line"/>
      <point x="158" y="113" type="line"/>
      <point x="137" y="0" type="line"/>
    </contour>
  </outline>
</glyph>
<glyph name="o" format="1">
  <advance width="655"/>
  <unicode hex="006F"/>
  <outline>
    <contour>
      <point x="436" y="560" type="curve" smooth="yes"/>
      <point x="577" y="560"/>
      <point x="669" y="465"/>
      <point x="669" y="331" type="curve" smooth="yes"/>
      <point x="669" y="312"/>
      <point x="667" y="292"/>
      <point x="663" y="272" type="curve" smooth="yes"/>
      <point x="633" y="108"/>
      <point x="493" y="-13"/>
      <point x="332" y="-13" type="curve" smooth="yes"/>
      <point x="185" y="-13"/>
      <point x="87" y="82"/>
      <point x="87" y="217" type="curve" smooth="yes"/>
      <point x="87" y="235"/>
      <point x="89" y="254"/>
      <point x="93" y="273" type="curve" smooth="yes"/>
      <point x="124" y="439"/>
      <point x="268" y="560"/>
    </contour>
    <contour>
      <point x="417" y="492" type="curve" smooth="yes"/>
      <point x="297" y="492"/>
      <point x="190" y="398"/>
      <point x="167" y="272" type="curve" smooth="yes"/>
      <point x="164" y="257"/>
      <point x="163" y="242"/>
      <point x="163" y="228" type="curve" smooth="yes"/>
      <point x="163" y="126"/>
      <point x="233" y="55"/>
      <point x="342" y="55" type="curve" smooth="yes"/>
      <point x="462" y="55"/>
      <point x="565" y="145"/>
      <point x="588" y="271" type="curve" smooth="yes"/>
      <point x="591" y="288"/>
      <point x="593" y="304"/>
      <point x="593" y="319" type="curve" smooth="yes"/>
      <point x="593" y="422"/>
      <point x="525" y="492"/>
    </contour>
  </outline>
</glyph>
<glyph name="p" format="1">
  <advance width="682"/>
  <unicode hex="0070"/>
  <outline>
    <contour>
      <point x="164" y="547" type="line"/>
      <point x="238" y="547" type="line"/>
      <point x="221" y="453" type="line"/>
      <point x="280" y="523"/>
      <point x="362" y="560"/>
      <point x="456" y="560" type="curve" smooth="yes"/>
      <point x="600" y="560"/>
      <point x="696" y="464"/>
      <point x="696" y="329" type="curve" smooth="yes"/>
      <point x="696" y="311"/>
      <point x="695" y="292"/>
      <point x="691" y="273" type="curve" smooth="yes"/>
      <point x="661" y="112"/>
      <point x="512" y="-13"/>
      <point x="348" y="-13" type="curve" smooth="yes"/>
      <point x="257" y="-13"/>
      <point x="189" y="24"/>
      <point x="154" y="94" type="curve"/>
      <point x="101" y="-192" type="line"/>
      <point x="27" y="-192" type="line"/>
    </contour>
    <contour>
      <point x="437" y="492" type="curve" smooth="yes"/>
      <point x="317" y="492"/>
      <point x="206" y="396"/>
      <point x="183" y="273" type="curve" smooth="yes"/>
      <point x="180" y="258"/>
      <point x="179" y="245"/>
      <point x="179" y="231" type="curve" smooth="yes"/>
      <point x="179" y="129"/>
      <point x="251" y="55"/>
      <point x="359" y="55" type="curve" smooth="yes"/>
      <point x="482" y="55"/>
      <point x="592" y="148"/>
      <point x="615" y="271" type="curve" smooth="yes"/>
      <point x="618" y="287"/>
      <point x="620" y="302"/>
      <point x="620" y="317" type="curve" smooth="yes"/>
      <point x="620" y="421"/>
      <point x="548" y="492"/>
    </contour>
  </outline>
</glyph>
<glyph name="q" format="1">
  <advance width="682"/>
  <unicode hex="0071"/>
  <outline>
    <contour>
      <point x="720" y="547" type="line"/>
      <point x="583" y="-192" type="line"/>
      <point x="509" y="-192" type="line"/>
      <point x="562" y="94" type="line"/>
      <point x="501" y="24"/>
      <point x="421" y="-13"/>
      <point x="330" y="-13" type="curve" smooth="yes"/>
      <point x="185" y="-13"/>
      <point x="87" y="85"/>
      <point x="87" y="219" type="curve" smooth="yes"/>
      <point x="87" y="237"/>
      <point x="90" y="254"/>
      <point x="93" y="273" type="curve" smooth="yes"/>
      <point x="123" y="436"/>
      <point x="271" y="560"/>
      <point x="434" y="560" type="curve" smooth="yes"/>
      <point x="528" y="560"/>
      <point x="596" y="523"/>
      <point x="629" y="453" type="curve"/>
      <point x="646" y="547" type="line"/>
    </contour>
    <contour>
      <point x="422" y="492" type="curve" smooth="yes"/>
      <point x="300" y="492"/>
      <point x="190" y="397"/>
      <point x="167" y="272" type="curve" smooth="yes"/>
      <point x="164" y="257"/>
      <point x="163" y="243"/>
      <point x="163" y="229" type="curve" smooth="yes"/>
      <point x="163" y="127"/>
      <point x="235" y="55"/>
      <point x="343" y="55" type="curve" smooth="yes"/>
      <point x="466" y="55"/>
      <point x="578" y="150"/>
      <point x="601" y="273" type="curve" smooth="yes"/>
      <point x="604" y="288"/>
      <point x="605" y="302"/>
      <point x="605" y="316" type="curve" smooth="yes"/>
      <point x="605" y="419"/>
      <point x="532" y="492"/>
    </contour>
  </outline>
</glyph>
<glyph name="r" format="1">
  <advance width="301"/>
  <unicode hex="0072"/>
  <outline>
    <contour>
      <point x="63" y="0" type="line"/>
      <point x="164" y="547" type="line"/>
      <point x="238" y="547" type="line"/>
      <point x="224" y="469" type="line"/>
      <point x="264" y="529"/>
      <point x="316" y="556"/>
      <point x="396" y="560" type="curve"/>
      <point x="382" y="487" type="line"/>
      <point x="277" y="477"/>
      <point x="215" y="421"/>
      <point x="196" y="319" type="curve" smooth="yes"/>
      <point x="137" y="0" type="line"/>
    </contour>
  </outline>
</glyph>
<glyph name="t" format="1">
  <advance width="339"/>
  <unicode hex="0074"/>
  <outline>
    <contour>
      <point x="130" y="0" type="line"/>
      <point x="219" y="480" type="line"/>
      <point x="101" y="480" type="line"/>
      <point x="113" y="547" type="line"/>
      <point x="231" y="547" type="line"/>
      <point x="267" y="739" type="line"/>
      <point x="341" y="739" type="line"/>
      <point x="305" y="547" type="line"/>
      <point x="428" y="547" type="line"/>
      <point x="416" y="480" type="line"/>
      <point x="293" y="480" type="line"/>
      <point x="204" y="0" type="line"/>
    </contour>
  </outline>
</glyph>
<glyph name="u" format="1">
  <advance width="608"/>
  <unicode hex="0075"/>
  <outline>
    <contour>
      <point x="646" y="547" type="line"/>
      <point x="545" y="0" type="line"/>
      <point x="471" y="0" type="line"/>
      <point x="487" y="85" type="line"/>
      <point x="437" y="17"/>
      <point x="378" y="-13"/>
      <point x="293" y="-13" type="curve" smooth="yes"/>
      <point x="208" y="-13"/>
      <point x="147" y="19"/>
      <point x="118" y="79" type="curve" smooth="yes"/>
      <point x="106" y="102"/>
      <point x="100" y="129"/>
      <point x="100" y="163" type="curve" smooth="yes"/>
      <point x="100" y="189"/>
      <point x="104" y="218"/>
      <point x="110" y="252" type="curve" smooth="yes"/>
      <point x="164" y="547" type="line"/>
      <point x="238" y="547" type="line"/>
      <point x="184" y="252" type="line" smooth="yes"/>
      <point x="179" y="226"/>
      <point x="176" y="202"/>
      <point x="176" y="181" type="curve" smooth="yes"/>
      <point x="176" y="156"/>
      <point x="180" y="136"/>
      <point x="187" y="120" type="curve" smooth="yes"/>
      <point x="205" y="79"/>
      <point x="251" y="55"/>
      <point x="310" y="55" type="curve" smooth="yes"/>
      <point x="368" y="55"/>
      <point x="422" y="79"/>
      <point x="461" y="123" type="curve" smooth="yes"/>
      <point x="490" y="157"/>
      <point x="508" y="199"/>
      <point x="520" y="266" type="curve" smooth="yes"/>
      <point x="572" y="547" type="line"/>
    </contour>
  </outline>
</glyph>
<glyph name="v" format="1">
  <advance width="554"/>
  <unicode hex="0076"/>
  <outline>
    <contour>
      <point x="238" y="0" type="line"/>
      <point x="109" y="547" type="line"/>
      <point x="184" y="547" type="line"/>
      <point x="291" y="87" type="line"/>
      <point x="572" y="547" type="line"/>
      <point x="647" y="547" type="line"/>
      <point x="316" y="0" type="line"/>
    </contour>
  </outline>
</glyph>
<glyph name="w" format="1">
  <advance width="831"/>
  <unicode hex="0077"/>
  <outline>
    <contour>
      <point x="216" y="0" type="line"/>
      <point x="108" y="547" type="line"/>
      <point x="182" y="547" type="line"/>
      <point x="271" y="89" type="line"/>
      <point x="473" y="480" type="line"/>
      <point x="534" y="480" type="line"/>
      <point x="590" y="89" type="line"/>
      <point x="853" y="547" type="line"/>
      <point x="925" y="547" type="line"/>
      <point x="612" y="0" type="line"/>
      <point x="533" y="0" type="line"/>
      <point x="481" y="363" type="line"/>
      <point x="296" y="0" type="line"/>
    </contour>
  </outline>
</glyph>
<glyph name="y" format="1">
  <advance width="536"/>
  <unicode hex="0079"/>
  <outline>
    <contour>
      <point x="96" y="-192" type="line"/>
      <point x="224" y="18" type="line"/>
      <point x="110" y="547" type="line"/>
      <point x="191" y="547" type="line"/>
      <point x="284" y="111" type="line"/>
      <point x="549" y="547" type="line"/>
      <point x="628" y="547" type="line"/>
      <point x="175" y="-192" type="line"/>
    </contour>
  </outline>
</glyph>
<glyph name="z" format="1">
  <advance width="425"/>
  <unicode hex="007A"/>
  <outline>
    <contour>
      <point x="10" y="0" type="line"/>
      <point x="22" y="67" type="line"/>
      <point x="401" y="480" type="line"/>
      <point x="109" y="480" type="line"/>
      <point x="121" y="547" type="line"/>
      <point x="497" y="547" type="line"/>
      <point x="486" y="484" type="line"/>
      <point x="109" y="67" type="line"/>
      <point x="427" y="67" type="line"/>
      <point x="415" y="0" type="line"/>
    </contour>
  </outline>
</glyph>
<glyph name="braceleft" format="1">
  <advance width="351"/>
  <unicode hex="007B"/>
  <outline>
    <contour>
      <point x="182" y="306" type="curve"/>
      <point x="199" y="300" type="line" smooth="yes"/>
      <point x="237" y="284"/>
      <point x="253" y="265"/>
      <point x="253" y="226" type="curve" smooth="yes"/>
      <point x="253" y="214"/>
      <point x="251" y="199"/>
      <point x="248" y="182" type="curve" smooth="yes"/>
      <point x="216" y="12" type="line" smooth="yes"/>
      <point x="214" y="1"/>
      <point x="213" y="-7"/>
      <point x="213" y="-15" type="curve" smooth="yes"/>
      <point x="213" y="-44"/>
      <point x="229" y="-54"/>
      <point x="270" y="-58" type="curve" smooth="yes"/>
      <point x="281" y="-59" type="line"/>
      <point x="269" y="-126" type="line"/>
      <point x="202" y="-125"/>
      <point x="185" y="-121"/>
      <point x="164" y="-105" type="curve" smooth="yes"/>
      <point x="145" y="-91"/>
      <point x="135" y="-68"/>
      <point x="135" y="-34" type="curve" smooth="yes"/>
      <point x="135" y="-20"/>
      <point x="136" y="-4"/>
      <point x="139" y="13" type="curve" smooth="yes"/>
      <point x="171" y="183" type="line" smooth="yes"/>
      <point x="174" y="197"/>
      <point x="175" y="208"/>
      <point x="175" y="218" type="curve" smooth="yes"/>
      <point x="175" y="252"/>
      <point x="157" y="263"/>
      <point x="108" y="272" type="curve"/>
      <point x="121" y="341" type="line"/>
      <point x="188" y="352"/>
      <point x="206" y="368"/>
      <point x="217" y="430" type="curve" smooth="yes"/>
      <point x="248" y="600" type="line" smooth="yes"/>
      <point x="259" y="660"/>
      <point x="281" y="698"/>
      <point x="316" y="718" type="curve" smooth="yes"/>
      <point x="343" y="734"/>
      <point x="362" y="737"/>
      <point x="429" y="739" type="curve"/>
      <point x="417" y="672" type="line"/>
      <point x="376" y="668"/>
      <point x="370" y="667"/>
      <point x="360" y="662" type="curve" smooth="yes"/>
      <point x="344" y="654"/>
      <point x="331" y="631"/>
      <point x="325" y="601" type="curve" smooth="yes"/>
      <point x="294" y="431" type="line" smooth="yes"/>
      <point x="281" y="362"/>
      <point x="259" y="333"/>
      <point x="201" y="313" type="curve" smooth="yes"/>
      <point x="195" y="311"/>
      <point x="189" y="309"/>
    </contour>
  </outline>
</glyph>
<glyph name="bar" format="1">
  <advance width="672"/>
  <unicode hex="007C"/>
  <outline>
    <contour>
      <point x="505" y="739" type="line"/>
      <point x="368" y="0" type="line"/>
      <point x="304" y="0" type="line"/>
      <point x="441" y="739" type="line"/>
    </contour>
  </outline>
</glyph>
<glyph name="braceright" format="1">
  <advance width="348"/>
  <unicode hex="007D"/>
  <outline>
    <contour>
      <point x="283" y="306" type="line"/>
      <point x="266" y="313" type="line" smooth="yes"/>
      <point x="228" y="329"/>
      <point x="212" y="348"/>
      <point x="212" y="387" type="curve" smooth="yes"/>
      <point x="212" y="399"/>
      <point x="214" y="414"/>
      <point x="217" y="431" type="curve" smooth="yes"/>
      <point x="248" y="601" type="line" smooth="yes"/>
      <point x="249" y="609"/>
      <point x="251" y="617"/>
      <point x="251" y="624" type="curve" smooth="yes"/>
      <point x="251" y="637"/>
      <point x="249" y="649"/>
      <point x="244" y="656" type="curve" smooth="yes"/>
      <point x="238" y="665"/>
      <point x="225" y="668"/>
      <point x="194" y="671" type="curve" smooth="yes"/>
      <point x="184" y="672" type="line"/>
      <point x="196" y="739" type="line"/>
      <point x="274" y="737"/>
      <point x="297" y="730"/>
      <point x="317" y="702" type="curve" smooth="yes"/>
      <point x="325" y="690"/>
      <point x="330" y="671"/>
      <point x="330" y="647" type="curve" smooth="yes"/>
      <point x="330" y="633"/>
      <point x="328" y="617"/>
      <point x="325" y="600" type="curve" smooth="yes"/>
      <point x="294" y="430" type="line" smooth="yes"/>
      <point x="291" y="416"/>
      <point x="290" y="404"/>
      <point x="290" y="394" type="curve" smooth="yes"/>
      <point x="290" y="361"/>
      <point x="307" y="349"/>
      <point x="354" y="341" type="curve"/>
      <point x="340" y="272" type="line"/>
      <point x="275" y="261"/>
      <point x="259" y="245"/>
      <point x="248" y="183" type="curve" smooth="yes"/>
      <point x="216" y="13" type="line" smooth="yes"/>
      <point x="206" y="-40"/>
      <point x="188" y="-78"/>
      <point x="160" y="-98" type="curve" smooth="yes"/>
      <point x="131" y="-119"/>
      <point x="108" y="-125"/>
      <point x="36" y="-126" type="curve"/>
      <point x="48" y="-59" type="line"/>
      <point x="59" y="-58" type="line" smooth="yes"/>
      <point x="96" y="-55"/>
      <point x="109" y="-51"/>
      <point x="119" y="-38" type="curve" smooth="yes"/>
      <point x="128" y="-27"/>
      <point x="135" y="-8"/>
      <point x="139" y="12" type="curve" smooth="yes"/>
      <point x="171" y="182" type="line" smooth="yes"/>
      <point x="184" y="251"/>
      <point x="206" y="279"/>
      <point x="264" y="300" type="curve" smooth="yes"/>
    </contour>
  </outline>
</glyph>
<glyph name="asciitilde" format="1">
  <advance width="606"/>
  <unicode hex="007E"/>
  <outline>
    <contour>
      <point x="583" y="390" type="curve"/>
      <point x="619" y="343" type="line"/>
      <point x="572" y="275"/>
      <point x="509" y="231"/>
      <point x="458" y="231" type="curve" smooth="yes"/>
      <point x="435" y="231"/>
      <point x="410" y="238"/>
      <point x="370" y="257" type="curve" smooth="yes"/>
      <point x="319" y="279" type="line" smooth="yes"/>
      <point x="279" y="297"/>
      <point x="270" y="300"/>
      <point x="250" y="300" type="curve" smooth="yes"/>
      <point x="224" y="300"/>
      <point x="198" y="287"/>
      <point x="177" y="265" type="curve" smooth="yes"/>
      <point x="163" y="250"/>
      <point x="157" y="242"/>
      <point x="132" y="210" type="curve"/>
      <point x="99" y="257" type="line"/>
      <point x="163" y="343"/>
      <point x="208" y="377"/>
      <point x="264" y="377" type="curve" smooth="yes"/>
      <point x="285" y="377"/>
      <point x="309" y="371"/>
      <point x="337" y="358" type="curve" smooth="yes"/>
      <point x="397" y="331" type="line" smooth="yes"/>
      <point x="438" y="313"/>
      <point x="453" y="308"/>
      <point x="473" y="308" type="curve" smooth="yes"/>
      <point x="505" y="308"/>
      <point x="538" y="332"/>
    </contour>
  </outline>
</glyph>
<glyph name="exclamdown" format="1">
  <advance width="295"/>
  <unicode hex="00A1"/>
  <outline>
    <contour>
      <point x="75" y="-192" type="line"/>
      <point x="176" y="352" type="line"/>
      <point x="250" y="352" type="line"/>
      <point x="149" y="-192" type="line"/>
    </contour>
    <contour>
      <point x="189" y="421" type="line"/>
      <point x="212" y="547" type="line"/>
      <point x="286" y="547" type="line"/>
      <point x="263" y="421" type="line"/>
    </contour>
  </outline>
</glyph>
<glyph name="cent" format="1">
  <advance width="554"/>
  <unicode hex="00A2"/>
  <outline>
    <contour>
      <point x="270" y="62" type="line"/>
      <point x="287" y="151" type="line"/>
      <point x="181" y="160"/>
      <point x="112" y="236"/>
      <point x="112" y="338" type="curve" smooth="yes"/>
      <point x="112" y="352"/>
      <point x="113" y="367"/>
      <point x="116" y="382" type="curve" smooth="yes"/>
      <point x="139" y="507"/>
      <point x="244" y="601"/>
      <point x="373" y="614" type="curve"/>
      <point x="390" y="707" type="line"/>
      <point x="456" y="707" type="line"/>
      <point x="439" y="614" type="line"/>
      <point x="523" y="602"/>
      <point x="581" y="545"/>
      <point x="595" y="463" type="curve"/>
      <point x="512" y="463" type="line"/>
      <point x="491" y="518"/>
      <point x="447" y="547"/>
      <point x="384" y="547" type="curve" smooth="yes"/>
      <point x="290" y="547"/>
      <point x="207" y="477"/>
      <point x="190" y="383" type="curve" smooth="yes"/>
      <point x="188" y="372"/>
      <point x="187" y="361"/>
      <point x="187" y="351" type="curve" smooth="yes"/>
      <point x="187" y="274"/>
      <point x="242" y="217"/>
      <point x="322" y="217" type="curve" smooth="yes"/>
      <point x="377" y="217"/>
      <point x="421" y="238"/>
      <point x="476" y="290" type="curve"/>
      <point x="557" y="290" type="line"/>
      <point x="516" y="217"/>
      <point x="435" y="162"/>
      <point x="353" y="151" type="curve"/>
      <point x="336" y="62" type="line"/>
    </contour>
  </outline>
</glyph>
<glyph name="sterling" format="1">
  <advance width="554"/>
  <unicode hex="00A3"/>
  <outline>
    <contour>
      <point x="59" y="0" type="line"/>
      <point x="71" y="67" type="line"/>
      <point x="210" y="67" type="line"/>
      <point x="244" y="98"/>
      <point x="265" y="136"/>
      <point x="274" y="183" type="curve" smooth="yes"/>
      <point x="276" y="196"/>
      <point x="278" y="209"/>
      <point x="278" y="220" type="curve" smooth="yes"/>
      <point x="278" y="262"/>
      <point x="259" y="293"/>
      <point x="208" y="347" type="curve"/>
      <point x="82" y="347" type="line"/>
      <point x="95" y="414" type="line"/>
      <point x="170" y="414" type="line"/>
      <point x="165" y="438"/>
      <point x="162" y="455"/>
      <point x="162" y="472" type="curve" smooth="yes"/>
      <point x="162" y="485"/>
      <point x="163" y="497"/>
      <point x="166" y="512" type="curve" smooth="yes"/>
      <point x="192" y="652"/>
      <point x="308" y="752"/>
      <point x="445" y="752" type="curve" smooth="yes"/>
      <point x="572" y="752"/>
      <point x="655" y="676"/>
      <point x="655" y="560" type="curve" smooth="yes"/>
      <point x="655" y="554"/>
      <point x="654" y="547"/>
      <point x="654" y="541" type="curve"/>
      <point x="585" y="541" type="line"/>
      <point x="582" y="632"/>
      <point x="526" y="685"/>
      <point x="434" y="685" type="curve" smooth="yes"/>
      <point x="338" y="685"/>
      <point x="259" y="615"/>
      <point x="240" y="513" type="curve" smooth="yes"/>
      <point x="237" y="499"/>
      <point x="236" y="487"/>
      <point x="236" y="476" type="curve" smooth="yes"/>
      <point x="236" y="457"/>
      <point x="240" y="440"/>
      <point x="250" y="414" type="curve"/>
      <point x="534" y="414" type="line"/>
      <point x="521" y="347" type="line"/>
      <point x="306" y="347" type="line"/>
      <point x="336" y="306"/>
      <point x="352" y="264"/>
      <point x="352" y="220" type="curve" smooth="yes"/>
      <point x="352" y="208"/>
      <point x="350" y="196"/>
      <point x="348" y="184" type="curve" smooth="yes"/>
      <point x="341" y="146"/>
      <point x="328" y="116"/>
      <point x="297" y="67" type="curve"/>
      <point x="354" y="67" type="line" smooth="yes"/>
      <point x="416" y="67"/>
      <point x="461" y="80"/>
      <point x="493" y="106" type="curve" smooth="yes"/>
      <point x="525" y="133"/>
      <point x="551" y="177"/>
      <point x="559" y="219" type="curve" smooth="yes"/>
      <point x="561" y="230"/>
      <point x="562" y="240"/>
      <point x="562" y="257" type="curve" smooth="yes"/>
      <point x="562" y="268" type="line"/>
      <point x="634" y="268" type="line"/>
      <point x="635" y="259"/>
      <point x="635" y="252"/>
      <point x="635" y="245" type="curve" smooth="yes"/>
      <point x="635" y="234"/>
      <point x="634" y="225"/>
      <point x="632" y="213" type="curve" smooth="yes"/>
      <point x="619" y="144"/>
      <point x="576" y="80"/>
      <point x="519" y="43" type="curve" smooth="yes"/>
      <point x="474" y="14"/>
      <point x="418" y="0"/>
      <point x="344" y="0" type="curve" smooth="yes"/>
    </contour>
  </outline>
</glyph>
<glyph name="currency" format="1">
  <advance width="554"/>
  <unicode hex="00A4"/>
  <outline>
    <contour>
      <point x="121" y="494" type="line"/>
      <point x="186" y="548" type="line"/>
      <point x="221" y="506" type="line"/>
      <point x="280" y="540"/>
      <point x="322" y="553"/>
      <point x="378" y="553" type="curve" smooth="yes"/>
      <point x="436" y="553"/>
      <point x="482" y="538"/>
      <point x="520" y="507" type="curve"/>
      <point x="571" y="549" type="line"/>
      <point x="615" y="494" type="line"/>
      <point x="566" y="452" type="line"/>
      <point x="582" y="420"/>
      <point x="589" y="389"/>
      <point x="589" y="354" type="curve" smooth="yes"/>
      <point x="589" y="337"/>
      <point x="588" y="319"/>
      <point x="584" y="300" type="curve" smooth="yes"/>
      <point x="573" y="240"/>
      <point x="548" y="191"/>
      <point x="509" y="153" type="curve"/>
      <point x="544" y="111" type="line"/>
      <point x="480" y="58" type="line"/>
      <point x="447" y="100" type="line"/>
      <point x="382" y="62"/>
      <point x="342" y="50"/>
      <point x="285" y="50" type="curve" smooth="yes"/>
      <point x="228" y="50"/>
      <point x="192" y="63"/>
      <point x="145" y="100" type="curve"/>
      <point x="95" y="58" type="line"/>
      <point x="52" y="112" type="line"/>
      <point x="100" y="153" type="line"/>
      <point x="84" y="183"/>
      <point x="77" y="214"/>
      <point x="77" y="249" type="curve" smooth="yes"/>
      <point x="77" y="266"/>
      <point x="78" y="284"/>
      <point x="82" y="303" type="curve" smooth="yes"/>
      <point x="93" y="362"/>
      <point x="115" y="406"/>
      <point x="157" y="452" type="curve"/>
    </contour>
    <contour>
      <point x="365" y="483" type="curve" smooth="yes"/>
      <point x="264" y="483"/>
      <point x="172" y="405"/>
      <point x="153" y="302" type="curve" smooth="yes"/>
      <point x="151" y="290"/>
      <point x="150" y="277"/>
      <point x="150" y="266" type="curve" smooth="yes"/>
      <point x="150" y="181"/>
      <point x="210" y="122"/>
      <point x="302" y="122" type="curve" smooth="yes"/>
      <point x="403" y="122"/>
      <point x="494" y="200"/>
      <point x="513" y="302" type="curve" smooth="yes"/>
      <point x="515" y="315"/>
      <point x="517" y="329"/>
      <point x="517" y="341" type="curve" smooth="yes"/>
      <point x="517" y="427"/>
      <point x="459" y="483"/>
    </contour>
  </outline>
</glyph>
<glyph name="yen" format="1">
  <advance width="554"/>
  <unicode hex="00A5"/>
  <outline>
    <contour>
      <point x="260" y="0" type="line"/>
      <point x="304" y="237" type="line"/>
      <point x="94" y="237" type="line"/>
      <point x="106" y="304" type="line"/>
      <point x="289" y="304" type="line"/>
      <point x="257" y="396" type="line"/>
      <point x="116" y="396" type="line"/>
      <point x="129" y="463" type="line"/>
      <point x="234" y="463" type="line"/>
      <point x="137" y="739" type="line"/>
      <point x="213" y="739" type="line"/>
      <point x="358" y="327" type="line"/>
      <point x="650" y="739" type="line"/>
      <point x="726" y="739" type="line"/>
      <point x="529" y="463" type="line"/>
      <point x="632" y="463" type="line"/>
      <point x="619" y="396" type="line"/>
      <point x="480" y="396" type="line"/>
      <point x="415" y="304" type="line"/>
      <point x="595" y="304" type="line"/>
      <point x="583" y="237" type="line"/>
      <point x="377" y="237" type="line"/>
      <point x="333" y="0" type="line"/>
    </contour>
  </outline>
</glyph>
<glyph name="section" format="1">
  <advance width="615"/>
  <unicode hex="00A7"/>
  <outline>
    <contour>
      <point x="595" y="606" type="curve"/>
      <point x="524" y="606" type="line"/>
      <point x="523" y="659"/>
      <point x="493" y="685"/>
      <point x="434" y="685" type="curve" smooth="yes"/>
      <point x="373" y="685"/>
      <point x="323" y="646"/>
      <point x="313" y="591" type="curve" smooth="yes"/>
      <point x="312" y="585"/>
      <point x="311" y="579"/>
      <point x="311" y="574" type="curve" smooth="yes"/>
      <point x="311" y="545"/>
      <point x="327" y="521"/>
      <point x="356" y="505" type="curve" smooth="yes"/>
      <point x="500" y="431" type="line" smooth="yes"/>
      <point x="557" y="401"/>
      <point x="585" y="363"/>
      <point x="585" y="315" type="curve" smooth="yes"/>
      <point x="585" y="307"/>
      <point x="585" y="298"/>
      <point x="583" y="289" type="curve" smooth="yes"/>
      <point x="573" y="234"/>
      <point x="536" y="183"/>
      <point x="480" y="146" type="curve"/>
      <point x="501" y="119"/>
      <point x="511" y="94"/>
      <point x="511" y="65" type="curve" smooth="yes"/>
      <point x="511" y="56"/>
      <point x="510" y="47"/>
      <point x="508" y="37" type="curve" smooth="yes"/>
      <point x="489" y="-65"/>
      <point x="395" y="-141"/>
      <point x="287" y="-141" type="curve" smooth="yes"/>
      <point x="182" y="-141"/>
      <point x="115" y="-73"/>
      <point x="115" y="27" type="curve" smooth="yes"/>
      <point x="115" y="39"/>
      <point x="116" y="51"/>
      <point x="118" y="64" type="curve"/>
      <point x="186" y="64" type="line"/>
      <point x="185" y="57"/>
      <point x="185" y="50"/>
      <point x="185" y="43" type="curve" smooth="yes"/>
      <point x="185" y="-28"/>
      <point x="228" y="-74"/>
      <point x="299" y="-74" type="curve" smooth="yes"/>
      <point x="367" y="-74"/>
      <point x="428" y="-27"/>
      <point x="439" y="35" type="curve" smooth="yes"/>
      <point x="440" y="40"/>
      <point x="441" y="45"/>
      <point x="441" y="50" type="curve" smooth="yes"/>
      <point x="441" y="83"/>
      <point x="417" y="108"/>
      <point x="364" y="137" type="curve" smooth="yes"/>
      <point x="234" y="207" type="line" smooth="yes"/>
      <point x="172" y="241"/>
      <point x="147" y="269"/>
      <point x="147" y="312" type="curve" smooth="yes"/>
      <point x="147" y="320"/>
      <point x="148" y="329"/>
      <point x="150" y="339" type="curve" smooth="yes"/>
      <point x="161" y="401"/>
      <point x="198" y="450"/>
      <point x="264" y="491" type="curve"/>
      <point x="248" y="513"/>
      <point x="241" y="533"/>
      <point x="241" y="558" type="curve" smooth="yes"/>
      <point x="241" y="567"/>
      <point x="242" y="578"/>
      <point x="244" y="589" type="curve" smooth="yes"/>
      <point x="261" y="683"/>
      <point x="347" y="752"/>
      <point x="446" y="752" type="curve" smooth="yes"/>
      <point x="537" y="752"/>
      <point x="596" y="699"/>
      <point x="596" y="622" type="curve" smooth="yes"/>
      <point x="596" y="617"/>
      <point x="596" y="612"/>
    </contour>
    <contour>
      <point x="468" y="365" type="curve" smooth="yes"/>
      <point x="296" y="454" type="line"/>
      <point x="257" y="430"/>
      <point x="227" y="390"/>
      <point x="220" y="350" type="curve" smooth="yes"/>
      <point x="219" y="345"/>
      <point x="219" y="340"/>
      <point x="219" y="336" type="curve" smooth="yes"/>
      <point x="219" y="312"/>
      <point x="233" y="293"/>
      <point x="261" y="278" type="curve" smooth="yes"/>
      <point x="441" y="182" type="line"/>
      <point x="478" y="206"/>
      <point x="506" y="244"/>
      <point x="513" y="280" type="curve" smooth="yes"/>
      <point x="514" y="286"/>
      <point x="515" y="292"/>
      <point x="515" y="297" type="curve" smooth="yes"/>
      <point x="515" y="326"/>
      <point x="500" y="349"/>
    </contour>
  </outline>
</glyph>
<glyph name="dieresis" format="1">
  <advance width="369"/>
  <unicode hex="00A8"/>
  <outline>
    <contour>
      <point x="213" y="749" type="line"/>
      <point x="287" y="749" type="line"/>
      <point x="263" y="623" type="line"/>
      <point x="189" y="623" type="line"/>
    </contour>
    <contour>
      <point x="360" y="749" type="line"/>
      <point x="434" y="749" type="line"/>
      <point x="410" y="623" type="line"/>
      <point x="336" y="623" type="line"/>
    </contour>
  </outline>
</glyph>
<glyph name="copyright" format="1">
  <advance width="747"/>
  <unicode hex="00A9"/>
  <outline>
    <contour>
      <point x="549" y="261" type="curve"/>
      <point x="624" y="261" type="line"/>
      <point x="571" y="190"/>
      <point x="491" y="148"/>
      <point x="409" y="148" type="curve" smooth="yes"/>
      <point x="303" y="148"/>
      <point x="228" y="227"/>
      <point x="228" y="331" type="curve" smooth="yes"/>
      <point x="228" y="344"/>
      <point x="229" y="358"/>
      <point x="232" y="372" type="curve" smooth="yes"/>
      <point x="255" y="496"/>
      <point x="371" y="594"/>
      <point x="493" y="594" type="curve" smooth="yes"/>
      <point x="577" y="594"/>
      <point x="639" y="552"/>
      <point x="667" y="477" type="curve"/>
      <point x="593" y="477" type="line"/>
      <point x="567" y="518"/>
      <point x="532" y="538"/>
      <point x="484" y="538" type="curve" smooth="yes"/>
      <point x="396" y="538"/>
      <point x="310" y="464"/>
      <point x="293" y="372" type="curve" smooth="yes"/>
      <point x="291" y="361"/>
      <point x="290" y="351"/>
      <point x="290" y="341" type="curve" smooth="yes"/>
      <point x="290" y="264"/>
      <point x="345" y="204"/>
      <point x="421" y="204" type="curve" smooth="yes"/>
      <point x="467" y="204"/>
      <point x="510" y="223"/>
    </contour>
    <contour>
      <point x="517" y="752" type="curve" smooth="yes"/>
      <point x="700" y="752"/>
      <point x="830" y="616"/>
      <point x="830" y="439" type="curve" smooth="yes"/>
      <point x="830" y="416"/>
      <point x="827" y="393"/>
      <point x="823" y="369" type="curve" smooth="yes"/>
      <point x="784" y="158"/>
      <point x="582" y="-13"/>
      <point x="371" y="-13" type="curve" smooth="yes"/>
      <point x="184" y="-13"/>
      <point x="53" y="121"/>
      <point x="53" y="299" type="curve" smooth="yes"/>
      <point x="53" y="322"/>
      <point x="55" y="345"/>
      <point x="59" y="369" type="curve" smooth="yes"/>
      <point x="99" y="583"/>
      <point x="300" y="752"/>
    </contour>
    <contour>
      <point x="499" y="700" type="curve" smooth="yes"/>
      <point x="323" y="700"/>
      <point x="149" y="550"/>
      <point x="115" y="369" type="curve" smooth="yes"/>
      <point x="111" y="348"/>
      <point x="110" y="328"/>
      <point x="110" y="308" type="curve" smooth="yes"/>
      <point x="110" y="155"/>
      <point x="221" y="39"/>
      <point x="380" y="39" type="curve" smooth="yes"/>
      <point x="560" y="39"/>
      <point x="733" y="187"/>
      <point x="767" y="369" type="curve" smooth="yes"/>
      <point x="771" y="391"/>
      <point x="773" y="412"/>
      <point x="773" y="432" type="curve" smooth="yes"/>
      <point x="773" y="586"/>
      <point x="662" y="700"/>
    </contour>
  </outline>
</glyph>
<glyph name="ordfeminine" format="1">
  <advance width="369"/>
  <unicode hex="00AA"/>
  <outline>
    <contour>
      <point x="470" y="739" type="line"/>
      <point x="416" y="448" type="line"/>
      <point x="368" y="448" type="line"/>
      <point x="376" y="493" type="line"/>
      <point x="339" y="456"/>
      <point x="307" y="441"/>
      <point x="264" y="441" type="curve" smooth="yes"/>
      <point x="191" y="441"/>
      <point x="139" y="496"/>
      <point x="139" y="567" type="curve" smooth="yes"/>
      <point x="139" y="576"/>
      <point x="139" y="585"/>
      <point x="141" y="594" type="curve" smooth="yes"/>
      <point x="156" y="677"/>
      <point x="237" y="745"/>
      <point x="321" y="745" type="curve" smooth="yes"/>
      <point x="362" y="745"/>
      <point x="401" y="724"/>
      <point x="414" y="694" type="curve"/>
      <point x="422" y="739" type="line"/>
    </contour>
    <contour>
      <point x="312" y="696" type="curve" smooth="yes"/>
      <point x="260" y="696"/>
      <point x="204" y="647"/>
      <point x="194" y="594" type="curve" smooth="yes"/>
      <point x="193" y="588"/>
      <point x="192" y="582"/>
      <point x="192" y="576" type="curve" smooth="yes"/>
      <point x="192" y="529"/>
      <point x="228" y="490"/>
      <point x="275" y="490" type="curve" smooth="yes"/>
      <point x="327" y="490"/>
      <point x="382" y="538"/>
      <point x="392" y="592" type="curve" smooth="yes"/>
      <point x="393" y="599"/>
      <point x="394" y="606"/>
      <point x="394" y="612" type="curve" smooth="yes"/>
      <point x="394" y="660"/>
      <point x="360" y="696"/>
    </contour>
    <contour>
      <point x="100" y="370" type="line"/>
      <point x="408" y="370" type="line"/>
      <point x="398" y="319" type="line"/>
      <point x="90" y="319" type="line"/>
    </contour>
  </outline>
</glyph>
<glyph name="guillemotleft" format="1">
  <advance width="425"/>
  <unicode hex="00AB"/>
  <outline>
    <contour>
      <point x="171" y="99" type="line"/>
      <point x="96" y="300" type="line"/>
      <point x="245" y="499" type="line"/>
      <point x="299" y="467" type="line"/>
      <point x="174" y="300" type="line"/>
      <point x="236" y="132" type="line"/>
    </contour>
    <contour>
      <point x="344" y="99" type="line"/>
      <point x="267" y="300" type="line"/>
      <point x="418" y="499" type="line"/>
      <point x="472" y="467" type="line"/>
      <point x="347" y="300" type="line"/>
      <point x="409" y="132" type="line"/>
    </contour>
  </outline>
</glyph>
<glyph name="logicalnot" format="1">
  <advance width="606"/>
  <unicode hex="00AC"/>
  <outline>
    <contour>
      <point x="132" y="436" type="line"/>
      <point x="636" y="436" type="line"/>
      <point x="582" y="148" type="line"/>
      <point x="510" y="148" type="line"/>
      <point x="550" y="363" type="line"/>
      <point x="118" y="363" type="line"/>
    </contour>
  </outline>
</glyph>
<glyph name="registered" format="1">
  <advance width="747"/>
  <unicode hex="00AE"/>
  <outline>
    <contour>
      <point x="559" y="157" type="line"/>
      <point x="483" y="157" type="line"/>
      <point x="376" y="359" type="line"/>
      <point x="338" y="157" type="line"/>
      <point x="277" y="157" type="line"/>
      <point x="356" y="585" type="line"/>
      <point x="488" y="585" type="line" smooth="yes"/>
      <point x="541" y="585"/>
      <point x="576" y="574"/>
      <point x="597" y="549" type="curve" smooth="yes"/>
      <point x="612" y="531"/>
      <point x="620" y="506"/>
      <point x="620" y="477" type="curve" smooth="yes"/>
      <point x="620" y="468"/>
      <point x="619" y="458"/>
      <point x="617" y="448" type="curve" smooth="yes"/>
      <point x="603" y="372"/>
      <point x="553" y="328"/>
      <point x="468" y="317" type="curve"/>
    </contour>
    <contour>
      <point x="377" y="365" type="line"/>
      <point x="421" y="365" type="line" smooth="yes"/>
      <point x="498" y="365"/>
      <point x="544" y="394"/>
      <point x="554" y="448" type="curve" smooth="yes"/>
      <point x="555" y="453"/>
      <point x="556" y="459"/>
      <point x="556" y="464" type="curve" smooth="yes"/>
      <point x="556" y="503"/>
      <point x="525" y="527"/>
      <point x="474" y="527" type="curve" smooth="yes"/>
      <point x="407" y="527" type="line"/>
    </contour>
    <contour>
      <point x="517" y="752" type="curve" smooth="yes"/>
      <point x="700" y="752"/>
      <point x="830" y="616"/>
      <point x="830" y="439" type="curve" smooth="yes"/>
      <point x="830" y="416"/>
      <point x="827" y="393"/>
      <point x="823" y="369" type="curve" smooth="yes"/>
      <point x="784" y="158"/>
      <point x="582" y="-13"/>
      <point x="371" y="-13" type="curve" smooth="yes"/>
      <point x="184" y="-13"/>
      <point x="53" y="121"/>
      <point x="53" y="299" type="curve" smooth="yes"/>
      <point x="53" y="322"/>
      <point x="55" y="345"/>
      <point x="59" y="369" type="curve" smooth="yes"/>
      <point x="99" y="583"/>
      <point x="300" y="752"/>
    </contour>
    <contour>
      <point x="499" y="700" type="curve" smooth="yes"/>
      <point x="323" y="700"/>
      <point x="149" y="550"/>
      <point x="115" y="369" type="curve" smooth="yes"/>
      <point x="111" y="348"/>
      <point x="110" y="328"/>
      <point x="110" y="308" type="curve" smooth="yes"/>
      <point x="110" y="155"/>
      <point x="221" y="39"/>
      <point x="380" y="39" type="curve" smooth="yes"/>
      <point x="560" y="39"/>
      <point x="733" y="187"/>
      <point x="767" y="369" type="curve" smooth="yes"/>
      <point x="771" y="391"/>
      <point x="773" y="412"/>
      <point x="773" y="432" type="curve" smooth="yes"/>
      <point x="773" y="586"/>
      <point x="662" y="700"/>
    </contour>
  </outline>
</glyph>
<glyph name="macron" format="1">
  <advance width="485"/>
  <unicode hex="00AF"/>
  <outline>
    <contour>
      <point x="205" y="707" type="line"/>
      <point x="542" y="707" type="line"/>
      <point x="530" y="643" type="line"/>
      <point x="193" y="643" type="line"/>
    </contour>
  </outline>
</glyph>
<glyph name="degree" format="1">
  <advance width="400"/>
  <unicode hex="00B0"/>
  <outline>
    <contour>
      <point x="331" y="686" type="curve" smooth="yes"/>
      <point x="403" y="686"/>
      <point x="452" y="635"/>
      <point x="452" y="564" type="curve" smooth="yes"/>
      <point x="452" y="554"/>
      <point x="451" y="544"/>
      <point x="449" y="533" type="curve" smooth="yes"/>
      <point x="433" y="447"/>
      <point x="354" y="380"/>
      <point x="270" y="380" type="curve" smooth="yes"/>
      <point x="196" y="380"/>
      <point x="146" y="433"/>
      <point x="146" y="504" type="curve" smooth="yes"/>
      <point x="146" y="514"/>
      <point x="147" y="524"/>
      <point x="149" y="534" type="curve" smooth="yes"/>
      <point x="165" y="619"/>
      <point x="244" y="686"/>
    </contour>
    <contour>
      <point x="317" y="629" type="curve" smooth="yes"/>
      <point x="265" y="629"/>
      <point x="215" y="585"/>
      <point x="205" y="533" type="curve" smooth="yes"/>
      <point x="204" y="527"/>
      <point x="203" y="521"/>
      <point x="203" y="515" type="curve" smooth="yes"/>
      <point x="203" y="471"/>
      <point x="235" y="437"/>
      <point x="281" y="437" type="curve" smooth="yes"/>
      <point x="333" y="437"/>
      <point x="382" y="479"/>
      <point x="392" y="533" type="curve" smooth="yes"/>
      <point x="393" y="539"/>
      <point x="394" y="546"/>
      <point x="394" y="552" type="curve" smooth="yes"/>
      <point x="394" y="597"/>
      <point x="363" y="629"/>
    </contour>
  </outline>
</glyph>
<glyph name="plusminus" format="1">
  <advance width="606"/>
  <unicode hex="00B1"/>
  <outline>
    <contour>
      <point x="333" y="369" type="line"/>
      <point x="373" y="585" type="line"/>
      <point x="450" y="585" type="line"/>
      <point x="410" y="369" type="line"/>
      <point x="623" y="369" type="line"/>
      <point x="610" y="295" type="line"/>
      <point x="397" y="295" type="line"/>
      <point x="365" y="124" type="line"/>
      <point x="288" y="124" type="line"/>
      <point x="320" y="295" type="line"/>
      <point x="106" y="295" type="line"/>
      <point x="119" y="369" type="line"/>
    </contour>
    <contour>
      <point x="569" y="74" type="line"/>
      <point x="555" y="0" type="line"/>
      <point x="51" y="0" type="line"/>
      <point x="65" y="74" type="line"/>
    </contour>
  </outline>
</glyph>
<glyph name="uni00B2" format="1">
  <advance width="332"/>
  <unicode hex="00B2"/>
  <outline>
    <contour>
      <point x="65" y="288" type="line"/>
      <point x="75" y="339" type="line"/>
      <point x="266" y="489" type="line" smooth="yes"/>
      <point x="315" y="527"/>
      <point x="314" y="527"/>
      <point x="329" y="541" type="curve" smooth="yes"/>
      <point x="353" y="564"/>
      <point x="368" y="586"/>
      <point x="372" y="608" type="curve" smooth="yes"/>
      <point x="373" y="613"/>
      <point x="373" y="617"/>
      <point x="373" y="622" type="curve" smooth="yes"/>
      <point x="373" y="661"/>
      <point x="341" y="692"/>
      <point x="296" y="692" type="curve" smooth="yes"/>
      <point x="257" y="692"/>
      <point x="218" y="668"/>
      <point x="200" y="634" type="curve" smooth="yes"/>
      <point x="192" y="620"/>
      <point x="189" y="612"/>
      <point x="184" y="583" type="curve"/>
      <point x="124" y="583" type="line"/>
      <point x="126" y="595" type="line" smooth="yes"/>
      <point x="144" y="686"/>
      <point x="217" y="747"/>
      <point x="309" y="747" type="curve" smooth="yes"/>
      <point x="383" y="747"/>
      <point x="435" y="697"/>
      <point x="435" y="631" type="curve" smooth="yes"/>
      <point x="435" y="623"/>
      <point x="434" y="614"/>
      <point x="432" y="606" type="curve" smooth="yes"/>
      <point x="423" y="559"/>
      <point x="395" y="521"/>
      <point x="320" y="464" type="curve" smooth="yes"/>
      <point x="165" y="343" type="line"/>
      <point x="382" y="343" type="line"/>
      <point x="371" y="288" type="line"/>
    </contour>
  </outline>
</glyph>
<glyph name="uni00B3" format="1">
  <advance width="332"/>
  <unicode hex="00B3"/>
  <outline>
    <contour>
      <point x="218" y="615" type="line"/>
      <point x="157" y="615" type="line"/>
      <point x="173" y="695"/>
      <point x="230" y="747"/>
      <point x="305" y="747" type="curve" smooth="yes"/>
      <point x="366" y="747"/>
      <point x="408" y="706"/>
      <point x="408" y="650" type="curve" smooth="yes"/>
      <point x="408" y="643"/>
      <point x="407" y="636"/>
      <point x="406" y="628" type="curve" smooth="yes"/>
      <point x="400" y="594"/>
      <point x="386" y="574"/>
      <point x="350" y="546" type="curve"/>
      <point x="384" y="522"/>
      <point x="401" y="492"/>
      <point x="401" y="454" type="curve" smooth="yes"/>
      <point x="401" y="445"/>
      <point x="400" y="436"/>
      <point x="398" y="427" type="curve" smooth="yes"/>
      <point x="383" y="347"/>
      <point x="301" y="280"/>
      <point x="218" y="280" type="curve" smooth="yes"/>
      <point x="163" y="280"/>
      <point x="116" y="309"/>
      <point x="99" y="355" type="curve" smooth="yes"/>
      <point x="93" y="369"/>
      <point x="91" y="382"/>
      <point x="91" y="398" type="curve" smooth="yes"/>
      <point x="91" y="410"/>
      <point x="92" y="423"/>
      <point x="94" y="439" type="curve"/>
      <point x="155" y="439" type="line"/>
      <point x="153" y="426"/>
      <point x="153" y="415"/>
      <point x="153" y="407" type="curve" smooth="yes"/>
      <point x="153" y="392"/>
      <point x="156" y="384"/>
      <point x="162" y="373" type="curve" smooth="yes"/>
      <point x="176" y="349"/>
      <point x="199" y="335"/>
      <point x="227" y="335" type="curve" smooth="yes"/>
      <point x="277" y="335"/>
      <point x="328" y="377"/>
      <point x="337" y="425" type="curve" smooth="yes"/>
      <point x="338" y="430"/>
      <point x="338" y="436"/>
      <point x="338" y="441" type="curve" smooth="yes"/>
      <point x="338" y="476"/>
      <point x="316" y="505"/>
      <point x="282" y="513" type="curve" smooth="yes"/>
      <point x="271" y="516"/>
      <point x="257" y="517"/>
      <point x="224" y="517" type="curve"/>
      <point x="234" y="571" type="line"/>
      <point x="244" y="570"/>
      <point x="249" y="570"/>
      <point x="254" y="570" type="curve" smooth="yes"/>
      <point x="305" y="570"/>
      <point x="339" y="593"/>
      <point x="346" y="631" type="curve" smooth="yes"/>
      <point x="347" y="635"/>
      <point x="347" y="639"/>
      <point x="347" y="643" type="curve" smooth="yes"/>
      <point x="347" y="672"/>
      <point x="326" y="692"/>
      <point x="294" y="692" type="curve" smooth="yes"/>
      <point x="257" y="692"/>
      <point x="229" y="665"/>
      <point x="220" y="624" type="curve" smooth="yes"/>
    </contour>
  </outline>
</glyph>
<glyph name="acute" format="1">
  <advance width="375"/>
  <unicode hex="00B4"/>
  <outline>
    <contour>
      <point x="197" y="666" type="line"/>
      <point x="412" y="782" type="line"/>
      <point x="435" y="724" type="line"/>
      <point x="221" y="610" type="line"/>
    </contour>
  </outline>
</glyph>
<glyph name="mu" format="1">
  <advance width="608"/>
  <unicode hex="00B5"/>
  <outline>
    <contour>
      <point x="646" y="547" type="line"/>
      <point x="545" y="0" type="line"/>
      <point x="471" y="0" type="line"/>
      <point x="487" y="85" type="line"/>
      <point x="441" y="18"/>
      <point x="382" y="-13"/>
      <point x="305" y="-13" type="curve" smooth="yes"/>
      <point x="233" y="-13"/>
      <point x="179" y="22"/>
      <point x="153" y="85" type="curve"/>
      <point x="101" y="-192" type="line"/>
      <point x="27" y="-192" type="line"/>
      <point x="164" y="547" type="line"/>
      <point x="238" y="547" type="line"/>
      <point x="186" y="266" type="line" smooth="yes"/>
      <point x="180" y="232"/>
      <point x="177" y="206"/>
      <point x="177" y="185" type="curve" smooth="yes"/>
      <point x="177" y="148"/>
      <point x="187" y="126"/>
      <point x="209" y="101" type="curve" smooth="yes"/>
      <point x="235" y="71"/>
      <point x="275" y="54"/>
      <point x="316" y="54" type="curve" smooth="yes"/>
      <point x="371" y="54"/>
      <point x="426" y="80"/>
      <point x="463" y="123" type="curve" smooth="yes"/>
      <point x="491" y="157"/>
      <point x="508" y="199"/>
      <point x="520" y="266" type="curve" smooth="yes"/>
      <point x="572" y="547" type="line"/>
    </contour>
  </outline>
</glyph>
<glyph name="paragraph" format="1">
  <advance width="564"/>
  <unicode hex="00B6"/>
  <outline>
    <contour>
      <point x="202" y="-133" type="line"/>
      <point x="293" y="355" type="line"/>
      <point x="192" y="365"/>
      <point x="135" y="423"/>
      <point x="135" y="509" type="curve" smooth="yes"/>
      <point x="135" y="522"/>
      <point x="136" y="535"/>
      <point x="139" y="549" type="curve" smooth="yes"/>
      <point x="151" y="616"/>
      <point x="193" y="675"/>
      <point x="254" y="708" type="curve" smooth="yes"/>
      <point x="292" y="730"/>
      <point x="335" y="739"/>
      <point x="397" y="739" type="curve" smooth="yes"/>
      <point x="628" y="739" type="line"/>
      <point x="466" y="-133" type="line"/>
      <point x="391" y="-133" type="line"/>
      <point x="541" y="672" type="line"/>
      <point x="427" y="672" type="line"/>
      <point x="277" y="-133" type="line"/>
    </contour>
  </outline>
</glyph>
<glyph name="periodcentered" format="1">
  <advance width="277"/>
  <unicode hex="00B7"/>
  <outline>
    <contour>
      <point x="143" y="229" type="line"/>
      <point x="167" y="355" type="line"/>
      <point x="241" y="355" type="line"/>
      <point x="217" y="229" type="line"/>
    </contour>
  </outline>
</glyph>
<glyph name="cedilla" format="1">
  <advance width="324"/>
  <unicode hex="00B8"/>
  <outline>
    <contour>
      <point x="124" y="0" type="line"/>
      <point x="160" y="0" type="line"/>
      <point x="132" y="-47" type="line"/>
      <point x="148" y="-41"/>
      <point x="156" y="-39"/>
      <point x="167" y="-39" type="curve" smooth="yes"/>
      <point x="206" y="-39"/>
      <point x="230" y="-64"/>
      <point x="230" y="-101" type="curve" smooth="yes"/>
      <point x="230" y="-107"/>
      <point x="229" y="-113"/>
      <point x="228" y="-119" type="curve" smooth="yes"/>
      <point x="218" y="-174"/>
      <point x="175" y="-213"/>
      <point x="123" y="-213" type="curve" smooth="yes"/>
      <point x="77" y="-213"/>
      <point x="50" y="-187"/>
      <point x="48" y="-140" type="curve"/>
      <point x="93" y="-135" type="line"/>
      <point x="95" y="-157"/>
      <point x="108" y="-170"/>
      <point x="131" y="-170" type="curve" smooth="yes"/>
      <point x="157" y="-170"/>
      <point x="179" y="-151"/>
      <point x="184" y="-124" type="curve" smooth="yes"/>
      <point x="185" y="-120"/>
      <point x="185" y="-115"/>
      <point x="185" y="-111" type="curve" smooth="yes"/>
      <point x="185" y="-87"/>
      <point x="171" y="-72"/>
      <point x="148" y="-72" type="curve" smooth="yes"/>
      <point x="130" y="-72"/>
      <point x="117" y="-79"/>
      <point x="100" y="-96" type="curve"/>
      <point x="74" y="-79" type="line"/>
    </contour>
  </outline>
</glyph>
<glyph name="uni00B9" format="1">
  <advance width="332"/>
  <unicode hex="00B9"/>
  <outline>
    <contour>
      <point x="226" y="288" type="line"/>
      <point x="300" y="684" type="line"/>
      <point x="225" y="684" type="line"/>
      <point x="235" y="739" type="line"/>
      <point x="370" y="739" type="line"/>
      <point x="286" y="288" type="line"/>
    </contour>
  </outline>
</glyph>
<glyph name="ordmasculine" format="1">
  <advance width="369"/>
  <unicode hex="00BA"/>
  <outline>
    <contour>
      <point x="324" y="745" type="curve" smooth="yes"/>
      <point x="397" y="745"/>
      <point x="450" y="689"/>
      <point x="450" y="620" type="curve" smooth="yes"/>
      <point x="450" y="611"/>
      <point x="449" y="603"/>
      <point x="447" y="594" type="curve" smooth="yes"/>
      <point x="432" y="511"/>
      <point x="350" y="442"/>
      <point x="266" y="442" type="curve" smooth="yes"/>
      <point x="192" y="442"/>
      <point x="139" y="496"/>
      <point x="139" y="566" type="curve" smooth="yes"/>
      <point x="139" y="575"/>
      <point x="140" y="584"/>
      <point x="142" y="593" type="curve" smooth="yes"/>
      <point x="158" y="677"/>
      <point x="239" y="745"/>
    </contour>
    <contour>
      <point x="312" y="696" type="curve" smooth="yes"/>
      <point x="258" y="696"/>
      <point x="205" y="650"/>
      <point x="195" y="594" type="curve" smooth="yes"/>
      <point x="194" y="587"/>
      <point x="193" y="581"/>
      <point x="193" y="574" type="curve" smooth="yes"/>
      <point x="193" y="526"/>
      <point x="227" y="491"/>
      <point x="276" y="491" type="curve" smooth="yes"/>
      <point x="331" y="491"/>
      <point x="383" y="536"/>
      <point x="394" y="593" type="curve" smooth="yes"/>
      <point x="395" y="600"/>
      <point x="396" y="606"/>
      <point x="396" y="613" type="curve" smooth="yes"/>
      <point x="396" y="661"/>
      <point x="362" y="696"/>
    </contour>
    <contour>
      <point x="101" y="370" type="line"/>
      <point x="406" y="370" type="line"/>
      <point x="396" y="319" type="line"/>
      <point x="91" y="319" type="line"/>
    </contour>
  </outline>
</glyph>
<glyph name="guillemotright" format="1">
  <advance width="425"/>
  <unicode hex="00BB"/>
  <outline>
    <contour>
      <point x="290" y="99" type="line"/>
      <point x="237" y="132" type="line"/>
      <point x="363" y="300" type="line"/>
      <point x="300" y="467" type="line"/>
      <point x="364" y="499" type="line"/>
      <point x="441" y="300" type="line"/>
    </contour>
    <contour>
      <point x="117" y="99" type="line"/>
      <point x="64" y="132" type="line"/>
      <point x="190" y="300" type="line"/>
      <point x="127" y="467" type="line"/>
      <point x="191" y="499" type="line"/>
      <point x="270" y="300" type="line"/>
    </contour>
  </outline>
</glyph>
<glyph name="onequarter" format="1">
  <advance width="831"/>
  <unicode hex="00BC"/>
  <outline>
    <contour>
      <point x="701" y="0" type="line"/>
      <point x="716" y="79" type="line"/>
      <point x="485" y="79" type="line"/>
      <point x="494" y="129" type="line"/>
      <point x="780" y="451" type="line"/>
      <point x="845" y="451" type="line"/>
      <point x="786" y="134" type="line"/>
      <point x="828" y="134" type="line"/>
      <point x="818" y="79" type="line"/>
      <point x="776" y="79" type="line"/>
      <point x="761" y="0" type="line"/>
    </contour>
    <contour>
      <point x="726" y="134" type="line"/>
      <point x="768" y="359" type="line"/>
      <point x="570" y="134" type="line"/>
    </contour>
    <contour>
      <point x="211" y="0" type="line"/>
      <point x="689" y="739" type="line"/>
      <point x="744" y="739" type="line"/>
      <point x="265" y="0" type="line"/>
    </contour>
    <contour>
      <point x="229" y="288" type="line"/>
      <point x="303" y="684" type="line"/>
      <point x="228" y="684" type="line"/>
      <point x="238" y="739" type="line"/>
      <point x="373" y="739" type="line"/>
      <point x="289" y="288" type="line"/>
    </contour>
  </outline>
</glyph>
<glyph name="onehalf" format="1">
  <advance width="831"/>
  <unicode hex="00BD"/>
  <outline>
    <contour>
      <point x="206" y="0" type="line"/>
      <point x="684" y="739" type="line"/>
      <point x="739" y="739" type="line"/>
      <point x="260" y="0" type="line"/>
    </contour>
    <contour>
      <point x="224" y="288" type="line"/>
      <point x="298" y="684" type="line"/>
      <point x="223" y="684" type="line"/>
      <point x="233" y="739" type="line"/>
      <point x="368" y="739" type="line"/>
      <point x="284" y="288" type="line"/>
    </contour>
    <contour>
      <point x="506" y="0" type="line"/>
      <point x="515" y="51" type="line"/>
      <point x="706" y="201" type="line" smooth="yes"/>
      <point x="755" y="239"/>
      <point x="755" y="239"/>
      <point x="770" y="253" type="curve" smooth="yes"/>
      <point x="794" y="276"/>
      <point x="808" y="298"/>
      <point x="812" y="320" type="curve" smooth="yes"/>
      <point x="813" y="325"/>
      <point x="814" y="329"/>
      <point x="814" y="334" type="curve" smooth="yes"/>
      <point x="814" y="373"/>
      <point x="782" y="404"/>
      <point x="737" y="404" type="curve" smooth="yes"/>
      <point x="698" y="404"/>
      <point x="658" y="380"/>
      <point x="640" y="346" type="curve" smooth="yes"/>
      <point x="632" y="332"/>
      <point x="630" y="324"/>
      <point x="625" y="295" type="curve"/>
      <point x="565" y="295" type="line"/>
      <point x="567" y="307" type="line" smooth="yes"/>
      <point x="585" y="398"/>
      <point x="658" y="459"/>
      <point x="750" y="459" type="curve" smooth="yes"/>
      <point x="824" y="459"/>
      <point x="875" y="409"/>
      <point x="875" y="343" type="curve" smooth="yes"/>
      <point x="875" y="335"/>
      <point x="875" y="326"/>
      <point x="873" y="318" type="curve" smooth="yes"/>
      <point x="864" y="271"/>
      <point x="836" y="233"/>
      <point x="761" y="176" type="curve" smooth="yes"/>
      <point x="605" y="55" type="line"/>
      <point x="822" y="55" type="line"/>
      <point x="812" y="0" type="line"/>
    </contour>
  </outline>
</glyph>
<glyph name="questiondown" format="1">
  <advance width="591"/>
  <unicode hex="00BF"/>
  <outline>
    <contour>
      <point x="431" y="547" type="line"/>
      <point x="408" y="421" type="line"/>
      <point x="334" y="421" type="line"/>
      <point x="357" y="547" type="line"/>
    </contour>
    <contour>
      <point x="463" y="39" type="curve"/>
      <point x="533" y="39" type="line"/>
      <point x="520" y="-27"/>
      <point x="502" y="-66"/>
      <point x="467" y="-107" type="curve" smooth="yes"/>
      <point x="412" y="-170"/>
      <point x="337" y="-205"/>
      <point x="254" y="-205" type="curve" smooth="yes"/>
      <point x="139" y="-205"/>
      <point x="64" y="-134"/>
      <point x="64" y="-31" type="curve" smooth="yes"/>
      <point x="64" y="-17"/>
      <point x="65" y="-3"/>
      <point x="68" y="12" type="curve" smooth="yes"/>
      <point x="80" y="77"/>
      <point x="113" y="122"/>
      <point x="190" y="182" type="curve" smooth="yes"/>
      <point x="276" y="247"/>
      <point x="312" y="292"/>
      <point x="325" y="354" type="curve"/>
      <point x="395" y="354" type="line"/>
      <point x="392" y="339" type="line" smooth="yes"/>
      <point x="386" y="305"/>
      <point x="366" y="267"/>
      <point x="339" y="232" type="curve" smooth="yes"/>
      <point x="318" y="205"/>
      <point x="303" y="191"/>
      <point x="252" y="150" type="curve" smooth="yes"/>
      <point x="172" y="86"/>
      <point x="151" y="59"/>
      <point x="142" y="10" type="curve" smooth="yes"/>
      <point x="140" y="0"/>
      <point x="139" y="-10"/>
      <point x="139" y="-20" type="curve" smooth="yes"/>
      <point x="139" y="-90"/>
      <point x="189" y="-138"/>
      <point x="267" y="-138" type="curve" smooth="yes"/>
      <point x="328" y="-138"/>
      <point x="388" y="-108"/>
      <point x="423" y="-57" type="curve" smooth="yes"/>
      <point x="441" y="-32"/>
      <point x="451" y="-7"/>
    </contour>
  </outline>
</glyph>
<glyph name="Aacute" format="1">
  <advance width="740"/>
  <unicode hex="00C1"/>
  <outline>
    <contour>
      <point x="11" y="0" type="line"/>
      <point x="465" y="739" type="line"/>
      <point x="548" y="739" type="line"/>
      <point x="729" y="0" type="line"/>
      <point x="648" y="0" type="line"/>
      <point x="587" y="249" type="line"/>
      <point x="243" y="249" type="line"/>
      <point x="89" y="0" type="line"/>
    </contour>
    <contour>
      <point x="284" y="316" type="line"/>
      <point x="571" y="316" type="line"/>
      <point x="491" y="655" type="line"/>
    </contour>
    <contour>
      <point x="447" y="848" type="line"/>
      <point x="662" y="964" type="line"/>
      <point x="685" y="906" type="line"/>
      <point x="471" y="792" type="line"/>
    </contour>
  </outline>
</glyph>
<glyph name="Atilde" format="1">
  <advance width="740"/>
  <unicode hex="00C3"/>
  <outline>
    <contour>
      <point x="11" y="0" type="line"/>
      <point x="465" y="739" type="line"/>
      <point x="548" y="739" type="line"/>
      <point x="729" y="0" type="line"/>
      <point x="648" y="0" type="line"/>
      <point x="587" y="249" type="line"/>
      <point x="243" y="249" type="line"/>
      <point x="89" y="0" type="line"/>
    </contour>
    <contour>
      <point x="284" y="316" type="line"/>
      <point x="571" y="316" type="line"/>
      <point x="491" y="655" type="line"/>
    </contour>
    <contour>
      <point x="654" y="910" type="curve"/>
      <point x="678" y="864" type="line"/>
      <point x="657" y="838"/>
      <point x="611" y="815"/>
      <point x="578" y="815" type="curve" smooth="yes"/>
      <point x="563" y="815"/>
      <point x="547" y="821"/>
      <point x="516" y="837" type="curve" smooth="yes"/>
      <point x="502" y="843"/>
      <point x="489" y="847"/>
      <point x="478" y="847" type="curve" smooth="yes"/>
      <point x="459" y="847"/>
      <point x="450" y="843"/>
      <point x="420" y="821" type="curve" smooth="yes"/>
      <point x="412" y="815" type="line"/>
      <point x="388" y="861" type="line"/>
      <point x="417" y="892"/>
      <point x="454" y="910"/>
      <point x="490" y="910" type="curve" smooth="yes"/>
      <point x="508" y="910"/>
      <point x="518" y="907"/>
      <point x="546" y="893" type="curve" smooth="yes"/>
      <point x="562" y="886"/>
      <point x="582" y="879"/>
      <point x="591" y="879" type="curve" smooth="yes"/>
      <point x="610" y="879"/>
      <point x="629" y="888"/>
    </contour>
  </outline>
</glyph>
<glyph name="Adieresis" format="1">
  <advance width="740"/>
  <unicode hex="00C4"/>
  <outline>
    <contour>
      <point x="11" y="0" type="line"/>
      <point x="465" y="739" type="line"/>
      <point x="548" y="739" type="line"/>
      <point x="729" y="0" type="line"/>
      <point x="648" y="0" type="line"/>
      <point x="587" y="249" type="line"/>
      <point x="243" y="249" type="line"/>
      <point x="89" y="0" type="line"/>
    </contour>
    <contour>
      <point x="284" y="316" type="line"/>
      <point x="571" y="316" type="line"/>
      <point x="491" y="655" type="line"/>
    </contour>
    <contour>
      <point x="433" y="931" type="line"/>
      <point x="507" y="931" type="line"/>
      <point x="483" y="805" type="line"/>
      <point x="409" y="805" type="line"/>
    </contour>
    <contour>
      <point x="580" y="931" type="line"/>
      <point x="654" y="931" type="line"/>
      <point x="630" y="805" type="line"/>
      <point x="556" y="805" type="line"/>
    </contour>
  </outline>
</glyph>
<glyph name="Aring" format="1">
  <advance width="740"/>
  <unicode hex="00C5"/>
  <outline>
    <contour>
      <point x="11" y="0" type="line"/>
      <point x="465" y="739" type="line"/>
      <point x="548" y="739" type="line"/>
      <point x="729" y="0" type="line"/>
      <point x="648" y="0" type="line"/>
      <point x="587" y="249" type="line"/>
      <point x="243" y="249" type="line"/>
      <point x="89" y="0" type="line"/>
    </contour>
    <contour>
      <point x="284" y="316" type="line"/>
      <point x="571" y="316" type="line"/>
      <point x="491" y="655" type="line"/>
    </contour>
    <contour>
      <point x="552" y="976" type="curve" smooth="yes"/>
      <point x="596" y="976"/>
      <point x="627" y="943"/>
      <point x="627" y="901" type="curve" smooth="yes"/>
      <point x="627" y="896"/>
      <point x="627" y="890"/>
      <point x="626" y="884" type="curve" smooth="yes"/>
      <point x="617" y="833"/>
      <point x="568" y="792"/>
      <point x="517" y="792" type="curve" smooth="yes"/>
      <point x="472" y="792"/>
      <point x="440" y="825"/>
      <point x="440" y="867" type="curve" smooth="yes"/>
      <point x="440" y="872"/>
      <point x="441" y="877"/>
      <point x="442" y="883" type="curve" smooth="yes"/>
      <point x="452" y="935"/>
      <point x="500" y="976"/>
    </contour>
    <contour>
      <point x="542" y="935" type="curve" smooth="yes"/>
      <point x="515" y="935"/>
      <point x="488" y="912"/>
      <point x="483" y="883" type="curve" smooth="yes"/>
      <point x="482" y="880"/>
      <point x="482" y="877"/>
      <point x="482" y="874" type="curve" smooth="yes"/>
      <point x="482" y="850"/>
      <point x="499" y="833"/>
      <point x="524" y="833" type="curve" smooth="yes"/>
      <point x="552" y="833"/>
      <point x="580" y="856"/>
      <point x="585" y="883" type="curve" smooth="yes"/>
      <point x="586" y="886"/>
      <point x="586" y="890"/>
      <point x="586" y="893" type="curve" smooth="yes"/>
      <point x="586" y="917"/>
      <point x="568" y="935"/>
    </contour>
  </outline>
</glyph>
<glyph name="AE" format="1">
  <advance width="992"/>
  <unicode hex="00C6"/>
  <outline>
    <contour>
      <point x="11" y="0" type="line"/>
      <point x="659" y="739" type="line"/>
      <point x="1073" y="739" type="line"/>
      <point x="1061" y="672" type="line"/>
      <point x="742" y="672" type="line"/>
      <point x="692" y="407" type="line"/>
      <point x="1000" y="407" type="line"/>
      <point x="988" y="340" type="line"/>
      <point x="680" y="340" type="line"/>
      <point x="629" y="67" type="line"/>
      <point x="948" y="67" type="line"/>
      <point x="936" y="0" type="line"/>
      <point x="543" y="0" type="line"/>
      <point x="589" y="250" type="line"/>
      <point x="318" y="250" type="line"/>
      <point x="99" y="0" type="line"/>
    </contour>
    <contour>
      <point x="378" y="317" type="line"/>
      <point x="602" y="317" type="line"/>
      <point x="662" y="644" type="line"/>
    </contour>
  </outline>
</glyph>
<glyph name="Ccedilla" format="1">
  <advance width="813"/>
  <unicode hex="00C7"/>
  <outline>
    <contour>
      <point x="427" y="-13" type="curve"/>
      <point x="392" y="-68" type="line"/>
      <point x="407" y="-63"/>
      <point x="416" y="-61"/>
      <point x="428" y="-61" type="curve" smooth="yes"/>
      <point x="468" y="-61"/>
      <point x="491" y="-86"/>
      <point x="491" y="-125" type="curve" smooth="yes"/>
      <point x="491" y="-131"/>
      <point x="490" y="-138"/>
      <point x="489" y="-145" type="curve" smooth="yes"/>
      <point x="479" y="-201"/>
      <point x="434" y="-240"/>
      <point x="380" y="-240" type="curve" smooth="yes"/>
      <point x="333" y="-240"/>
      <point x="305" y="-214"/>
      <point x="300" y="-166" type="curve"/>
      <point x="349" y="-159" type="line"/>
      <point x="353" y="-183"/>
      <point x="364" y="-193"/>
      <point x="387" y="-193" type="curve" smooth="yes"/>
      <point x="415" y="-193"/>
      <point x="436" y="-175"/>
      <point x="441" y="-147" type="curve" smooth="yes"/>
      <point x="442" y="-143"/>
      <point x="442" y="-139"/>
      <point x="442" y="-136" type="curve" smooth="yes"/>
      <point x="442" y="-114"/>
      <point x="427" y="-99"/>
      <point x="404" y="-99" type="curve" smooth="yes"/>
      <point x="386" y="-99"/>
      <point x="374" y="-105"/>
      <point x="356" y="-121" type="curve"/>
      <point x="329" y="-103" type="line"/>
      <point x="388" y="-12" type="line"/>
      <point x="304" y="1"/>
      <point x="262" y="18"/>
      <point x="214" y="57" type="curve" smooth="yes"/>
      <point x="142" y="116"/>
      <point x="105" y="197"/>
      <point x="105" y="292" type="curve" smooth="yes"/>
      <point x="105" y="316"/>
      <point x="107" y="341"/>
      <point x="112" y="367" type="curve" smooth="yes"/>
      <point x="153" y="588"/>
      <point x="346" y="752"/>
      <point x="566" y="752" type="curve" smooth="yes"/>
      <point x="719" y="752"/>
      <point x="835" y="674"/>
      <point x="868" y="547" type="curve"/>
      <point x="785" y="547" type="line"/>
      <point x="765" y="593"/>
      <point x="748" y="615"/>
      <point x="717" y="637" type="curve" smooth="yes"/>
      <point x="674" y="668"/>
      <point x="620" y="684"/>
      <point x="557" y="684" type="curve" smooth="yes"/>
      <point x="380" y="684"/>
      <point x="221" y="548"/>
      <point x="188" y="370" type="curve" smooth="yes"/>
      <point x="184" y="350"/>
      <point x="182" y="331"/>
      <point x="182" y="312" type="curve" smooth="yes"/>
      <point x="182" y="166"/>
      <point x="289" y="55"/>
      <point x="441" y="55" type="curve" smooth="yes"/>
      <point x="510" y="55"/>
      <point x="581" y="78"/>
      <point x="640" y="119" type="curve" smooth="yes"/>
      <point x="667" y="138"/>
      <point x="688" y="156"/>
      <point x="724" y="194" type="curve"/>
      <point x="806" y="194" type="line"/>
      <point x="710" y="58"/>
      <point x="581" y="-13"/>
    </contour>
  </outline>
</glyph>
<glyph name="Eacute" format="1">
  <advance width="536"/>
  <unicode hex="00C9"/>
  <outline>
    <contour>
      <point x="76" y="0" type="line"/>
      <point x="213" y="739" type="line"/>
      <point x="617" y="739" type="line"/>
      <point x="605" y="672" type="line"/>
      <point x="275" y="672" type="line"/>
      <point x="225" y="407" type="line"/>
      <point x="544" y="407" type="line"/>
      <point x="532" y="340" type="line"/>
      <point x="213" y="340" type="line"/>
      <point x="162" y="67" type="line"/>
      <point x="492" y="67" type="line"/>
      <point x="480" y="0" type="line"/>
    </contour>
    <contour>
      <point x="355" y="848" type="line"/>
      <point x="570" y="964" type="line"/>
      <point x="593" y="906" type="line"/>
      <point x="379" y="792" type="line"/>
    </contour>
  </outline>
</glyph>
<glyph name="Ecircumflex" format="1">
  <advance width="536"/>
  <unicode hex="00CA"/>
  <outline>
    <contour>
      <point x="76" y="0" type="line"/>
      <point x="213" y="739" type="line"/>
      <point x="617" y="739" type="line"/>
      <point x="605" y="672" type="line"/>
      <point x="275" y="672" type="line"/>
      <point x="225" y="407" type="line"/>
      <point x="544" y="407" type="line"/>
      <point x="532" y="340" type="line"/>
      <point x="213" y="340" type="line"/>
      <point x="162" y="67" type="line"/>
      <point x="492" y="67" type="line"/>
      <point x="480" y="0" type="line"/>
    </contour>
    <contour>
      <point x="250" y="805" type="line"/>
      <point x="419" y="931" type="line"/>
      <point x="485" y="931" type="line"/>
      <point x="604" y="805" type="line"/>
      <point x="515" y="805" type="line"/>
      <point x="443" y="879" type="line"/>
      <point x="341" y="805" type="line"/>
    </contour>
  </outline>
</glyph>
<glyph name="Edieresis" format="1">
  <advance width="536"/>
  <unicode hex="00CB"/>
  <outline>
    <contour>
      <point x="76" y="0" type="line"/>
      <point x="213" y="739" type="line"/>
      <point x="617" y="739" type="line"/>
      <point x="605" y="672" type="line"/>
      <point x="275" y="672" type="line"/>
      <point x="225" y="407" type="line"/>
      <point x="544" y="407" type="line"/>
      <point x="532" y="340" type="line"/>
      <point x="213" y="340" type="line"/>
      <point x="162" y="67" type="line"/>
      <point x="492" y="67" type="line"/>
      <point x="480" y="0" type="line"/>
    </contour>
    <contour>
      <point x="341" y="931" type="line"/>
      <point x="415" y="931" type="line"/>
      <point x="391" y="805" type="line"/>
      <point x="317" y="805" type="line"/>
    </contour>
    <contour>
      <point x="488" y="931" type="line"/>
      <point x="562" y="931" type="line"/>
      <point x="538" y="805" type="line"/>
      <point x="464" y="805" type="line"/>
    </contour>
  </outline>
</glyph>
<glyph name="Igrave" format="1">
  <advance width="226"/>
  <unicode hex="00CC"/>
  <outline>
    <contour>
      <point x="76" y="0" type="line"/>
      <point x="213" y="739" type="line"/>
      <point x="287" y="739" type="line"/>
      <point x="150" y="0" type="line"/>
    </contour>
    <contour>
      <point x="208" y="958" type="line"/>
      <point x="385" y="848" type="line"/>
      <point x="342" y="792" type="line"/>
      <point x="165" y="900" type="line"/>
    </contour>
  </outline>
</glyph>
<glyph name="Iacute" format="1">
  <advance width="226"/>
  <unicode hex="00CD"/>
  <outline>
    <contour>
      <point x="76" y="0" type="line"/>
      <point x="213" y="739" type="line"/>
      <point x="287" y="739" type="line"/>
      <point x="150" y="0" type="line"/>
    </contour>
    <contour>
      <point x="156" y="848" type="line"/>
      <point x="371" y="964" type="line"/>
      <point x="394" y="906" type="line"/>
      <point x="180" y="792" type="line"/>
    </contour>
  </outline>
</glyph>
<glyph name="Icircumflex" format="1">
  <advance width="226"/>
  <unicode hex="00CE"/>
  <outline>
    <contour>
      <point x="76" y="0" type="line"/>
      <point x="213" y="739" type="line"/>
      <point x="287" y="739" type="line"/>
      <point x="150" y="0" type="line"/>
    </contour>
    <contour>
      <point x="85" y="805" type="line"/>
      <point x="254" y="931" type="line"/>
      <point x="320" y="931" type="line"/>
      <point x="439" y="805" type="line"/>
      <point x="350" y="805" type="line"/>
      <point x="278" y="879" type="line"/>
      <point x="176" y="805" type="line"/>
    </contour>
  </outline>
</glyph>
<glyph name="Eth" format="1">
  <advance width="790"/>
  <unicode hex="00D0"/>
  <outline>
    <contour>
      <point x="186" y="347" type="line"/>
      <point x="90" y="347" type="line"/>
      <point x="103" y="414" type="line"/>
      <point x="199" y="414" type="line"/>
      <point x="259" y="739" type="line"/>
      <point x="433" y="739" type="line" smooth="yes"/>
      <point x="571" y="739"/>
      <point x="648" y="722"/>
      <point x="711" y="676" type="curve" smooth="yes"/>
      <point x="784" y="624"/>
      <point x="822" y="546"/>
      <point x="822" y="449" type="curve" smooth="yes"/>
      <point x="822" y="423"/>
      <point x="819" y="396"/>
      <point x="814" y="367" type="curve" smooth="yes"/>
      <point x="788" y="226"/>
      <point x="705" y="115"/>
      <point x="577" y="51" type="curve" smooth="yes"/>
      <point x="507" y="16"/>
      <point x="428" y="0"/>
      <point x="321" y="0" type="curve" smooth="yes"/>
      <point x="122" y="0" type="line"/>
    </contour>
    <contour>
      <point x="260" y="347" type="line"/>
      <point x="208" y="67" type="line"/>
      <point x="311" y="67" type="line" smooth="yes"/>
      <point x="446" y="67"/>
      <point x="528" y="87"/>
      <point x="597" y="138" type="curve" smooth="yes"/>
      <point x="671" y="193"/>
      <point x="723" y="276"/>
      <point x="740" y="370" type="curve" smooth="yes"/>
      <point x="744" y="392"/>
      <point x="746" y="413"/>
      <point x="746" y="433" type="curve" smooth="yes"/>
      <point x="746" y="518"/>
      <point x="710" y="588"/>
      <point x="646" y="628" type="curve" smooth="yes"/>
      <point x="598" y="659"/>
      <point x="532" y="672"/>
      <point x="424" y="672" type="curve" smooth="yes"/>
      <point x="321" y="672" type="line"/>
      <point x="273" y="414" type="line"/>
      <point x="478" y="414" type="line"/>
      <point x="465" y="347" type="line"/>
    </contour>
  </outline>
</glyph>
<glyph name="Ntilde" format="1">
  <advance width="740"/>
  <unicode hex="00D1"/>
  <outline>
    <contour>
      <point x="76" y="0" type="line"/>
      <point x="213" y="739" type="line"/>
      <point x="313" y="739" type="line"/>
      <point x="613" y="126" type="line"/>
      <point x="727" y="739" type="line"/>
      <point x="801" y="739" type="line"/>
      <point x="664" y="0" type="line"/>
      <point x="590" y="0" type="line"/>
      <point x="270" y="650" type="line"/>
      <point x="150" y="0" type="line"/>
    </contour>
    <contour>
      <point x="658" y="910" type="curve"/>
      <point x="682" y="864" type="line"/>
      <point x="661" y="838"/>
      <point x="615" y="815"/>
      <point x="582" y="815" type="curve" smooth="yes"/>
      <point x="567" y="815"/>
      <point x="551" y="821"/>
      <point x="520" y="837" type="curve" smooth="yes"/>
      <point x="506" y="843"/>
      <point x="493" y="847"/>
      <point x="482" y="847" type="curve" smooth="yes"/>
      <point x="463" y="847"/>
      <point x="454" y="843"/>
      <point x="424" y="821" type="curve" smooth="yes"/>
      <point x="416" y="815" type="line"/>
      <point x="392" y="861" type="line"/>
      <point x="421" y="892"/>
      <point x="458" y="910"/>
      <point x="494" y="910" type="curve" smooth="yes"/>
      <point x="512" y="910"/>
      <point x="522" y="907"/>
      <point x="550" y="893" type="curve" smooth="yes"/>
      <point x="566" y="886"/>
      <point x="586" y="879"/>
      <point x="595" y="879" type="curve" smooth="yes"/>
      <point x="614" y="879"/>
      <point x="633" y="888"/>
    </contour>
  </outline>
</glyph>
<glyph name="Ograve" format="1">
  <advance width="869"/>
  <unicode hex="00D2"/>
  <outline>
    <contour>
      <point x="579" y="752" type="curve" smooth="yes"/>
      <point x="765" y="752"/>
      <point x="900" y="615"/>
      <point x="900" y="437" type="curve" smooth="yes"/>
      <point x="900" y="415"/>
      <point x="897" y="392"/>
      <point x="893" y="369" type="curve" smooth="yes"/>
      <point x="854" y="159"/>
      <point x="647" y="-13"/>
      <point x="433" y="-13" type="curve" smooth="yes"/>
      <point x="242" y="-13"/>
      <point x="106" y="124"/>
      <point x="106" y="302" type="curve" smooth="yes"/>
      <point x="106" y="324"/>
      <point x="108" y="346"/>
      <point x="112" y="369" type="curve" smooth="yes"/>
      <point x="151" y="582"/>
      <point x="359" y="752"/>
    </contour>
    <contour>
      <point x="558" y="684" type="curve" smooth="yes"/>
      <point x="389" y="684"/>
      <point x="219" y="539"/>
      <point x="187" y="369" type="curve" smooth="yes"/>
      <point x="183" y="350"/>
      <point x="182" y="331"/>
      <point x="182" y="313" type="curve" smooth="yes"/>
      <point x="182" y="167"/>
      <point x="291" y="55"/>
      <point x="445" y="55" type="curve" smooth="yes"/>
      <point x="617" y="55"/>
      <point x="786" y="197"/>
      <point x="818" y="368" type="curve" smooth="yes"/>
      <point x="822" y="388"/>
      <point x="824" y="407"/>
      <point x="824" y="426" type="curve" smooth="yes"/>
      <point x="824" y="573"/>
      <point x="715" y="684"/>
    </contour>
    <contour>
      <point x="496" y="958" type="line"/>
      <point x="673" y="848" type="line"/>
      <point x="630" y="792" type="line"/>
      <point x="453" y="900" type="line"/>
    </contour>
  </outline>
</glyph>
<glyph name="multiply" format="1">
  <advance width="606"/>
  <unicode hex="00D7"/>
  <outline>
    <contour>
      <point x="410" y="299" type="line"/>
      <point x="573" y="99" type="line"/>
      <point x="512" y="48" type="line"/>
      <point x="349" y="248" type="line"/>
      <point x="112" y="48" type="line"/>
      <point x="69" y="99" type="line"/>
      <point x="306" y="299" type="line"/>
      <point x="144" y="500" type="line"/>
      <point x="205" y="551" type="line"/>
      <point x="368" y="351" type="line"/>
      <point x="605" y="551" type="line"/>
      <point x="648" y="500" type="line"/>
    </contour>
  </outline>
</glyph>
<glyph name="Oslash" format="1">
  <advance width="868"/>
  <unicode hex="00D8"/>
  <outline>
    <contour>
      <point x="75" y="-42" type="line"/>
      <point x="191" y="82" type="line"/>
      <point x="135" y="137"/>
      <point x="106" y="212"/>
      <point x="106" y="297" type="curve" smooth="yes"/>
      <point x="106" y="321"/>
      <point x="108" y="345"/>
      <point x="113" y="370" type="curve" smooth="yes"/>
      <point x="153" y="584"/>
      <point x="353" y="752"/>
      <point x="570" y="752" type="curve" smooth="yes"/>
      <point x="646" y="752"/>
      <point x="721" y="731"/>
      <point x="765" y="696" type="curve"/>
      <point x="882" y="821" type="line"/>
      <point x="928" y="779" type="line"/>
      <point x="814" y="656" type="line"/>
      <point x="872" y="599"/>
      <point x="900" y="528"/>
      <point x="900" y="446" type="curve" smooth="yes"/>
      <point x="900" y="422"/>
      <point x="898" y="398"/>
      <point x="893" y="372" type="curve" smooth="yes"/>
      <point x="853" y="157"/>
      <point x="651" y="-13"/>
      <point x="436" y="-13" type="curve" smooth="yes"/>
      <point x="363" y="-13"/>
      <point x="294" y="6"/>
      <point x="241" y="42" type="curve"/>
      <point x="124" y="-83" type="line"/>
    </contour>
    <contour>
      <point x="245" y="138" type="curve"/>
      <point x="714" y="641" type="line"/>
      <point x="673" y="669"/>
      <point x="618" y="684"/>
      <point x="557" y="684" type="curve" smooth="yes"/>
      <point x="382" y="684"/>
      <point x="220" y="545"/>
      <point x="187" y="366" type="curve" smooth="yes"/>
      <point x="183" y="345"/>
      <point x="181" y="325"/>
      <point x="181" y="306" type="curve" smooth="yes"/>
      <point x="181" y="242"/>
      <point x="203" y="186"/>
    </contour>
    <contour>
      <point x="761" y="600" type="curve"/>
      <point x="292" y="97" type="line"/>
      <point x="343" y="67"/>
      <point x="387" y="55"/>
      <point x="446" y="55" type="curve" smooth="yes"/>
      <point x="621" y="55"/>
      <point x="784" y="193"/>
      <point x="817" y="369" type="curve" smooth="yes"/>
      <point x="821" y="391"/>
      <point x="824" y="413"/>
      <point x="824" y="433" type="curve" smooth="yes"/>
      <point x="824" y="496"/>
      <point x="803" y="550"/>
    </contour>
  </outline>
</glyph>
<glyph name="Ugrave" format="1">
  <advance width="655"/>
  <unicode hex="00D9"/>
  <outline>
    <contour>
      <point x="213" y="739" type="line"/>
      <point x="287" y="739" type="line"/>
      <point x="202" y="278" type="line" smooth="yes"/>
      <point x="197" y="249"/>
      <point x="193" y="222"/>
      <point x="193" y="199" type="curve" smooth="yes"/>
      <point x="193" y="169"/>
      <point x="198" y="145"/>
      <point x="207" y="125" type="curve" smooth="yes"/>
      <point x="227" y="82"/>
      <point x="277" y="55"/>
      <point x="337" y="55" type="curve" smooth="yes"/>
      <point x="398" y="55"/>
      <point x="458" y="82"/>
      <point x="494" y="125" type="curve" smooth="yes"/>
      <point x="523" y="160"/>
      <point x="545" y="211"/>
      <point x="557" y="278" type="curve" smooth="yes"/>
      <point x="642" y="739" type="line"/>
      <point x="716" y="739" type="line"/>
      <point x="631" y="278" type="line" smooth="yes"/>
      <point x="613" y="183"/>
      <point x="587" y="127"/>
      <point x="541" y="78" type="curve" smooth="yes"/>
      <point x="486" y="20"/>
      <point x="408" y="-13"/>
      <point x="325" y="-13" type="curve" smooth="yes"/>
      <point x="243" y="-13"/>
      <point x="175" y="20"/>
      <point x="142" y="78" type="curve" smooth="yes"/>
      <point x="125" y="108"/>
      <point x="117" y="140"/>
      <point x="117" y="182" type="curve" smooth="yes"/>
      <point x="117" y="209"/>
      <point x="121" y="241"/>
      <point x="128" y="278" type="curve" smooth="yes"/>
    </contour>
    <contour>
      <point x="389" y="958" type="line"/>
      <point x="566" y="848" type="line"/>
      <point x="523" y="792" type="line"/>
      <point x="346" y="900" type="line"/>
    </contour>
  </outline>
</glyph>
<glyph name="Ucircumflex" format="1">
  <advance width="655"/>
  <unicode hex="00DB"/>
  <outline>
    <contour>
      <point x="213" y="739" type="line"/>
      <point x="287" y="739" type="line"/>
      <point x="202" y="278" type="line" smooth="yes"/>
      <point x="197" y="249"/>
      <point x="193" y="222"/>
      <point x="193" y="199" type="curve" smooth="yes"/>
      <point x="193" y="169"/>
      <point x="198" y="145"/>
      <point x="207" y="125" type="curve" smooth="yes"/>
      <point x="227" y="82"/>
      <point x="277" y="55"/>
      <point x="337" y="55" type="curve" smooth="yes"/>
      <point x="398" y="55"/>
      <point x="458" y="82"/>
      <point x="494" y="125" type="curve" smooth="yes"/>
      <point x="523" y="160"/>
      <point x="545" y="211"/>
      <point x="557" y="278" type="curve" smooth="yes"/>
      <point x="642" y="739" type="line"/>
      <point x="716" y="739" type="line"/>
      <point x="631" y="278" type="line" smooth="yes"/>
      <point x="613" y="183"/>
      <point x="587" y="127"/>
      <point x="541" y="78" type="curve" smooth="yes"/>
      <point x="486" y="20"/>
      <point x="408" y="-13"/>
      <point x="325" y="-13" type="curve" smooth="yes"/>
      <point x="243" y="-13"/>
      <point x="175" y="20"/>
      <point x="142" y="78" type="curve" smooth="yes"/>
      <point x="125" y="108"/>
      <point x="117" y="140"/>
      <point x="117" y="182" type="curve" smooth="yes"/>
      <point x="117" y="209"/>
      <point x="121" y="241"/>
      <point x="128" y="278" type="curve" smooth="yes"/>
    </contour>
    <contour>
      <point x="299" y="805" type="line"/>
      <point x="468" y="931" type="line"/>
      <point x="534" y="931" type="line"/>
      <point x="653" y="805" type="line"/>
      <point x="564" y="805" type="line"/>
      <point x="492" y="879" type="line"/>
      <point x="390" y="805" type="line"/>
    </contour>
  </outline>
</glyph>
<glyph name="Yacute" format="1">
  <advance width="592"/>
  <unicode hex="00DD"/>
  <outline>
    <contour>
      <point x="258" y="0" type="line"/>
      <point x="304" y="247" type="line"/>
      <point x="139" y="739" type="line"/>
      <point x="221" y="739" type="line"/>
      <point x="354" y="325" type="line"/>
      <point x="646" y="739" type="line"/>
      <point x="727" y="739" type="line"/>
      <point x="378" y="247" type="line"/>
      <point x="332" y="0" type="line"/>
    </contour>
    <contour>
      <point x="373" y="848" type="line"/>
      <point x="588" y="964" type="line"/>
      <point x="611" y="906" type="line"/>
      <point x="397" y="792" type="line"/>
    </contour>
  </outline>
</glyph>
<glyph name="Thorn" format="1">
  <advance width="592"/>
  <unicode hex="00DE"/>
  <outline>
    <contour>
      <point x="76" y="0" type="line"/>
      <point x="213" y="739" type="line"/>
      <point x="280" y="739" type="line"/>
      <point x="255" y="606" type="line"/>
      <point x="392" y="606" type="line" smooth="yes"/>
      <point x="487" y="606"/>
      <point x="541" y="595"/>
      <point x="582" y="567" type="curve" smooth="yes"/>
      <point x="621" y="541"/>
      <point x="641" y="496"/>
      <point x="641" y="437" type="curve" smooth="yes"/>
      <point x="641" y="420"/>
      <point x="640" y="401"/>
      <point x="636" y="382" type="curve" smooth="yes"/>
      <point x="622" y="308"/>
      <point x="584" y="247"/>
      <point x="530" y="212" type="curve" smooth="yes"/>
      <point x="479" y="179"/>
      <point x="423" y="166"/>
      <point x="323" y="166" type="curve" smooth="yes"/>
      <point x="181" y="166" type="line"/>
      <point x="150" y="0" type="line"/>
    </contour>
    <contour>
      <point x="193" y="233" type="line"/>
      <point x="330" y="233" type="line" smooth="yes"/>
      <point x="398" y="233"/>
      <point x="443" y="240"/>
      <point x="477" y="258" type="curve" smooth="yes"/>
      <point x="520" y="279"/>
      <point x="550" y="325"/>
      <point x="561" y="383" type="curve" smooth="yes"/>
      <point x="564" y="397"/>
      <point x="565" y="410"/>
      <point x="565" y="423" type="curve" smooth="yes"/>
      <point x="565" y="474"/>
      <point x="544" y="509"/>
      <point x="504" y="523" type="curve" smooth="yes"/>
      <point x="473" y="534"/>
      <point x="428" y="539"/>
      <point x="355" y="539" type="curve" smooth="yes"/>
      <point x="250" y="539" type="line"/>
    </contour>
  </outline>
</glyph>
<glyph name="germandbls" format="1">
  <advance width="554"/>
  <unicode hex="00DF"/>
  <outline>
    <contour>
      <point x="59" y="0" type="line"/>
      <point x="148" y="481" type="line" smooth="yes"/>
      <point x="164" y="566"/>
      <point x="184" y="620"/>
      <point x="218" y="664" type="curve" smooth="yes"/>
      <point x="259" y="718"/>
      <point x="329" y="752"/>
      <point x="402" y="752" type="curve" smooth="yes"/>
      <point x="509" y="752"/>
      <point x="579" y="683"/>
      <point x="579" y="585" type="curve" smooth="yes"/>
      <point x="579" y="572"/>
      <point x="578" y="558"/>
      <point x="575" y="544" type="curve" smooth="yes"/>
      <point x="562" y="472"/>
      <point x="526" y="424"/>
      <point x="461" y="389" type="curve"/>
      <point x="530" y="366"/>
      <point x="565" y="316"/>
      <point x="565" y="245" type="curve" smooth="yes"/>
      <point x="565" y="231"/>
      <point x="564" y="215"/>
      <point x="561" y="199" type="curve" smooth="yes"/>
      <point x="538" y="77"/>
      <point x="435" y="-13"/>
      <point x="317" y="-13" type="curve" smooth="yes"/>
      <point x="231" y="-13"/>
      <point x="175" y="28"/>
      <point x="153" y="109" type="curve"/>
      <point x="133" y="0" type="line"/>
    </contour>
    <contour>
      <point x="171" y="203" type="line"/>
      <point x="222" y="203" type="line"/>
      <point x="220" y="192"/>
      <point x="219" y="182"/>
      <point x="219" y="172" type="curve" smooth="yes"/>
      <point x="219" y="102"/>
      <point x="261" y="55"/>
      <point x="327" y="55" type="curve" smooth="yes"/>
      <point x="402" y="55"/>
      <point x="471" y="117"/>
      <point x="486" y="197" type="curve" smooth="yes"/>
      <point x="488" y="208"/>
      <point x="488" y="218"/>
      <point x="488" y="228" type="curve" smooth="yes"/>
      <point x="488" y="301"/>
      <point x="433" y="343"/>
      <point x="333" y="343" type="curve" smooth="yes"/>
      <point x="323" y="343"/>
      <point x="318" y="343"/>
      <point x="287" y="341" type="curve"/>
      <point x="300" y="408" type="line"/>
      <point x="313" y="408" type="line" smooth="yes"/>
      <point x="413" y="408"/>
      <point x="485" y="462"/>
      <point x="501" y="548" type="curve" smooth="yes"/>
      <point x="503" y="558"/>
      <point x="503" y="567"/>
      <point x="503" y="576" type="curve" smooth="yes"/>
      <point x="503" y="640"/>
      <point x="459" y="684"/>
      <point x="391" y="684" type="curve" smooth="yes"/>
      <point x="344" y="684"/>
      <point x="297" y="660"/>
      <point x="271" y="621" type="curve" smooth="yes"/>
      <point x="248" y="587"/>
      <point x="235" y="552"/>
      <point x="222" y="481" type="curve" smooth="yes"/>
    </contour>
  </outline>
</glyph>
<glyph name="atilde" format="1">
  <advance width="683"/>
  <unicode hex="00E3"/>
  <outline>
    <contour>
      <point x="721" y="547" type="line"/>
      <point x="620" y="0" type="line"/>
      <point x="546" y="0" type="line"/>
      <point x="564" y="96" type="line"/>
      <point x="492" y="18"/>
      <point x="427" y="-13"/>
      <point x="334" y="-13" type="curve" smooth="yes"/>
      <point x="185" y="-13"/>
      <point x="87" y="81"/>
      <point x="87" y="216" type="curve" smooth="yes"/>
      <point x="87" y="234"/>
      <point x="88" y="253"/>
      <point x="92" y="272" type="curve" smooth="yes"/>
      <point x="122" y="436"/>
      <point x="270" y="560"/>
      <point x="434" y="560" type="curve" smooth="yes"/>
      <point x="529" y="560"/>
      <point x="588" y="527"/>
      <point x="629" y="450" type="curve"/>
      <point x="647" y="547" type="line"/>
    </contour>
    <contour>
      <point x="420" y="492" type="curve" smooth="yes"/>
      <point x="303" y="492"/>
      <point x="190" y="395"/>
      <point x="168" y="275" type="curve" smooth="yes"/>
      <point x="165" y="261"/>
      <point x="164" y="246"/>
      <point x="164" y="233" type="curve" smooth="yes"/>
      <point x="164" y="130"/>
      <point x="238" y="55"/>
      <point x="345" y="55" type="curve" smooth="yes"/>
      <point x="464" y="55"/>
      <point x="574" y="151"/>
      <point x="597" y="275" type="curve" smooth="yes"/>
      <point x="600" y="290"/>
      <point x="601" y="304"/>
      <point x="601" y="318" type="curve" smooth="yes"/>
      <point x="601" y="420"/>
      <point x="529" y="492"/>
    </contour>
    <contour>
      <point x="598" y="728" type="curve"/>
      <point x="622" y="682" type="line"/>
      <point x="601" y="656"/>
      <point x="555" y="633"/>
      <point x="522" y="633" type="curve" smooth="yes"/>
      <point x="507" y="633"/>
      <point x="491" y="639"/>
      <point x="460" y="655" type="curve" smooth="yes"/>
      <point x="446" y="661"/>
      <point x="433" y="665"/>
      <point x="422" y="665" type="curve" smooth="yes"/>
      <point x="403" y="665"/>
      <point x="394" y="661"/>
      <point x="364" y="639" type="curve" smooth="yes"/>
      <point x="356" y="633" type="line"/>
      <point x="332" y="679" type="line"/>
      <point x="361" y="710"/>
      <point x="398" y="728"/>
      <point x="434" y="728" type="curve" smooth="yes"/>
      <point x="452" y="728"/>
      <point x="462" y="725"/>
      <point x="490" y="711" type="curve" smooth="yes"/>
      <point x="506" y="704"/>
      <point x="526" y="697"/>
      <point x="535" y="697" type="curve" smooth="yes"/>
      <point x="554" y="697"/>
      <point x="573" y="706"/>
    </contour>
  </outline>
</glyph>
<glyph name="aring" format="1">
  <advance width="683"/>
  <unicode hex="00E5"/>
  <outline>
    <contour>
      <point x="721" y="547" type="line"/>
      <point x="620" y="0" type="line"/>
      <point x="546" y="0" type="line"/>
      <point x="564" y="96" type="line"/>
      <point x="492" y="18"/>
      <point x="427" y="-13"/>
      <point x="334" y="-13" type="curve" smooth="yes"/>
      <point x="185" y="-13"/>
      <point x="87" y="81"/>
      <point x="87" y="216" type="curve" smooth="yes"/>
      <point x="87" y="234"/>
      <point x="88" y="253"/>
      <point x="92" y="272" type="curve" smooth="yes"/>
      <point x="122" y="436"/>
      <point x="270" y="560"/>
      <point x="434" y="560" type="curve" smooth="yes"/>
      <point x="529" y="560"/>
      <point x="588" y="527"/>
      <point x="629" y="450" type="curve"/>
      <point x="647" y="547" type="line"/>
    </contour>
    <contour>
      <point x="420" y="492" type="curve" smooth="yes"/>
      <point x="303" y="492"/>
      <point x="190" y="395"/>
      <point x="168" y="275" type="curve" smooth="yes"/>
      <point x="165" y="261"/>
      <point x="164" y="246"/>
      <point x="164" y="233" type="curve" smooth="yes"/>
      <point x="164" y="130"/>
      <point x="238" y="55"/>
      <point x="345" y="55" type="curve" smooth="yes"/>
      <point x="464" y="55"/>
      <point x="574" y="151"/>
      <point x="597" y="275" type="curve" smooth="yes"/>
      <point x="600" y="290"/>
      <point x="601" y="304"/>
      <point x="601" y="318" type="curve" smooth="yes"/>
      <point x="601" y="420"/>
      <point x="529" y="492"/>
    </contour>
    <contour>
      <point x="499" y="794" type="curve" smooth="yes"/>
      <point x="543" y="794"/>
      <point x="575" y="761"/>
      <point x="575" y="719" type="curve" smooth="yes"/>
      <point x="575" y="714"/>
      <point x="574" y="708"/>
      <point x="573" y="702" type="curve" smooth="yes"/>
      <point x="564" y="651"/>
      <point x="515" y="610"/>
      <point x="464" y="610" type="curve" smooth="yes"/>
      <point x="419" y="610"/>
      <point x="387" y="643"/>
      <point x="387" y="685" type="curve" smooth="yes"/>
      <point x="387" y="690"/>
      <point x="388" y="695"/>
      <point x="389" y="701" type="curve" smooth="yes"/>
      <point x="399" y="753"/>
      <point x="447" y="794"/>
    </contour>
    <contour>
      <point x="490" y="753" type="curve" smooth="yes"/>
      <point x="463" y="753"/>
      <point x="435" y="730"/>
      <point x="430" y="701" type="curve" smooth="yes"/>
      <point x="429" y="698"/>
      <point x="429" y="695"/>
      <point x="429" y="692" type="curve" smooth="yes"/>
      <point x="429" y="668"/>
      <point x="447" y="651"/>
      <point x="472" y="651" type="curve" smooth="yes"/>
      <point x="500" y="651"/>
      <point x="527" y="674"/>
      <point x="532" y="701" type="curve" smooth="yes"/>
      <point x="533" y="704"/>
      <point x="533" y="708"/>
      <point x="533" y="711" type="curve" smooth="yes"/>
      <point x="533" y="735"/>
      <point x="516" y="753"/>
    </contour>
  </outline>
</glyph>
<glyph name="ae" format="1">
  <advance width="1157"/>
  <unicode hex="00E6"/>
  <outline>
    <contour>
      <point x="1164" y="247" type="curve"/>
      <point x="669" y="247" type="line"/>
      <point x="668" y="240"/>
      <point x="668" y="234"/>
      <point x="668" y="228" type="curve" smooth="yes"/>
      <point x="668" y="128"/>
      <point x="743" y="55"/>
      <point x="849" y="55" type="curve" smooth="yes"/>
      <point x="933" y="55"/>
      <point x="1016" y="103"/>
      <point x="1061" y="178" type="curve"/>
      <point x="1138" y="178" type="line"/>
      <point x="1079" y="64"/>
      <point x="958" y="-13"/>
      <point x="837" y="-13" type="curve" smooth="yes"/>
      <point x="750" y="-13"/>
      <point x="683" y="22"/>
      <point x="636" y="92" type="curve"/>
      <point x="619" y="0" type="line"/>
      <point x="548" y="0" type="line"/>
      <point x="565" y="92" type="line"/>
      <point x="489" y="18"/>
      <point x="420" y="-13"/>
      <point x="329" y="-13" type="curve" smooth="yes"/>
      <point x="184" y="-13"/>
      <point x="87" y="83"/>
      <point x="87" y="217" type="curve" smooth="yes"/>
      <point x="87" y="235"/>
      <point x="88" y="253"/>
      <point x="92" y="272" type="curve" smooth="yes"/>
      <point x="106" y="345"/>
      <point x="147" y="419"/>
      <point x="206" y="472" type="curve" smooth="yes"/>
      <point x="270" y="530"/>
      <point x="347" y="560"/>
      <point x="434" y="560" type="curve" smooth="yes"/>
      <point x="530" y="560"/>
      <point x="592" y="526"/>
      <point x="632" y="452" type="curve"/>
      <point x="649" y="547" type="line"/>
      <point x="720" y="547" type="line"/>
      <point x="703" y="452" type="line"/>
      <point x="776" y="526"/>
      <point x="849" y="560"/>
      <point x="938" y="560" type="curve" smooth="yes"/>
      <point x="1041" y="560"/>
      <point x="1121" y="509"/>
      <point x="1157" y="423" type="curve" smooth="yes"/>
      <point x="1168" y="396"/>
      <point x="1174" y="370"/>
      <point x="1174" y="338" type="curve" smooth="yes"/>
      <point x="1174" y="312"/>
      <point x="1171" y="283"/>
    </contour>
    <contour>
      <point x="684" y="314" type="curve"/>
      <point x="1104" y="314" type="line"/>
      <point x="1104" y="422"/>
      <point x="1034" y="492"/>
      <point x="927" y="492" type="curve" smooth="yes"/>
      <point x="818" y="492"/>
      <point x="719" y="419"/>
    </contour>
    <contour>
      <point x="422" y="492" type="curve" smooth="yes"/>
      <point x="301" y="492"/>
      <point x="192" y="397"/>
      <point x="169" y="274" type="curve" smooth="yes"/>
      <point x="166" y="259"/>
      <point x="165" y="245"/>
      <point x="165" y="231" type="curve" smooth="yes"/>
      <point x="165" y="129"/>
      <point x="236" y="55"/>
      <point x="343" y="55" type="curve" smooth="yes"/>
      <point x="466" y="55"/>
      <point x="578" y="151"/>
      <point x="601" y="277" type="curve" smooth="yes"/>
      <point x="604" y="292"/>
      <point x="606" y="307"/>
      <point x="606" y="321" type="curve" smooth="yes"/>
      <point x="606" y="423"/>
      <point x="534" y="492"/>
    </contour>
  </outline>
</glyph>
<glyph name="ccedilla" format="1">
  <advance width="647"/>
  <unicode hex="00E7"/>
  <outline>
    <contour>
      <point x="341" y="-13" type="curve"/>
      <point x="313" y="-58" type="line"/>
      <point x="328" y="-52"/>
      <point x="336" y="-51"/>
      <point x="347" y="-51" type="curve" smooth="yes"/>
      <point x="387" y="-51"/>
      <point x="410" y="-75"/>
      <point x="410" y="-113" type="curve" smooth="yes"/>
      <point x="410" y="-119"/>
      <point x="410" y="-125"/>
      <point x="409" y="-131" type="curve" smooth="yes"/>
      <point x="399" y="-186"/>
      <point x="354" y="-224"/>
      <point x="302" y="-224" type="curve" smooth="yes"/>
      <point x="257" y="-224"/>
      <point x="230" y="-198"/>
      <point x="229" y="-151" type="curve"/>
      <point x="274" y="-146" type="line"/>
      <point x="276" y="-169"/>
      <point x="289" y="-181"/>
      <point x="311" y="-181" type="curve" smooth="yes"/>
      <point x="338" y="-181"/>
      <point x="360" y="-162"/>
      <point x="365" y="-135" type="curve" smooth="yes"/>
      <point x="366" y="-131"/>
      <point x="366" y="-127"/>
      <point x="366" y="-123" type="curve" smooth="yes"/>
      <point x="366" y="-99"/>
      <point x="351" y="-84"/>
      <point x="327" y="-84" type="curve" smooth="yes"/>
      <point x="310" y="-84"/>
      <point x="298" y="-90"/>
      <point x="281" y="-108" type="curve"/>
      <point x="254" y="-90" type="line"/>
      <point x="304" y="-11" type="line"/>
      <point x="172" y="3"/>
      <point x="88" y="96"/>
      <point x="88" y="220" type="curve" smooth="yes"/>
      <point x="88" y="238"/>
      <point x="90" y="256"/>
      <point x="93" y="275" type="curve" smooth="yes"/>
      <point x="122" y="434"/>
      <point x="275" y="560"/>
      <point x="439" y="560" type="curve" smooth="yes"/>
      <point x="563" y="560"/>
      <point x="654" y="491"/>
      <point x="678" y="381" type="curve"/>
      <point x="595" y="381" type="line"/>
      <point x="566" y="453"/>
      <point x="506" y="492"/>
      <point x="425" y="492" type="curve" smooth="yes"/>
      <point x="303" y="492"/>
      <point x="191" y="396"/>
      <point x="168" y="273" type="curve" smooth="yes"/>
      <point x="165" y="259"/>
      <point x="164" y="245"/>
      <point x="164" y="232" type="curve" smooth="yes"/>
      <point x="164" y="130"/>
      <point x="238" y="55"/>
      <point x="347" y="55" type="curve" smooth="yes"/>
      <point x="425" y="55"/>
      <point x="483" y="85"/>
      <point x="554" y="161" type="curve"/>
      <point x="638" y="161" type="line"/>
      <point x="563" y="49"/>
      <point x="461" y="-11"/>
    </contour>
  </outline>
</glyph>
<glyph name="igrave" format="1">
  <advance width="200"/>
  <unicode hex="00EC"/>
  <outline>
    <contour>
      <point x="63" y="0" type="line"/>
      <point x="164" y="547" type="line"/>
      <point x="238" y="547" type="line"/>
      <point x="137" y="0" type="line"/>
    </contour>
    <contour>
      <point x="161" y="776" type="line"/>
      <point x="338" y="666" type="line"/>
      <point x="295" y="610" type="line"/>
      <point x="118" y="718" type="line"/>
    </contour>
  </outline>
</glyph>
<glyph name="iacute" format="1">
  <advance width="200"/>
  <unicode hex="00ED"/>
  <outline>
    <contour>
      <point x="63" y="0" type="line"/>
      <point x="164" y="547" type="line"/>
      <point x="238" y="547" type="line"/>
      <point x="137" y="0" type="line"/>
    </contour>
    <contour>
      <point x="110" y="666" type="line"/>
      <point x="325" y="782" type="line"/>
      <point x="348" y="724" type="line"/>
      <point x="134" y="610" type="line"/>
    </contour>
  </outline>
</glyph>
<glyph name="icircumflex" format="1">
  <advance width="200"/>
  <unicode hex="00EE"/>
  <outline>
    <contour>
      <point x="63" y="0" type="line"/>
      <point x="164" y="547" type="line"/>
      <point x="238" y="547" type="line"/>
      <point x="137" y="0" type="line"/>
    </contour>
    <contour>
      <point x="38" y="623" type="line"/>
      <point x="207" y="749" type="line"/>
      <point x="273" y="749" type="line"/>
      <point x="392" y="623" type="line"/>
      <point x="303" y="623" type="line"/>
      <point x="231" y="697" type="line"/>
      <point x="129" y="623" type="line"/>
    </contour>
  </outline>
</glyph>
<glyph name="idieresis" format="1">
  <advance width="200"/>
  <unicode hex="00EF"/>
  <outline>
    <contour>
      <point x="129" y="749" type="line"/>
      <point x="203" y="749" type="line"/>
      <point x="179" y="623" type="line"/>
      <point x="105" y="623" type="line"/>
    </contour>
    <contour>
      <point x="276" y="749" type="line"/>
      <point x="350" y="749" type="line"/>
      <point x="326" y="623" type="line"/>
      <point x="252" y="623" type="line"/>
    </contour>
    <contour>
      <point x="64" y="0" type="line"/>
      <point x="165" y="547" type="line"/>
      <point x="239" y="547" type="line"/>
      <point x="138" y="0" type="line"/>
    </contour>
  </outline>
</glyph>
<glyph name="eth" format="1">
  <advance width="655"/>
  <unicode hex="00F0"/>
  <outline>
    <contour>
      <point x="348" y="727" type="curve"/>
      <point x="406" y="756" type="line"/>
      <point x="432" y="735"/>
      <point x="443" y="724"/>
      <point x="464" y="701" type="curve"/>
      <point x="567" y="743" type="line"/>
      <point x="598" y="699" type="line"/>
      <point x="501" y="660" type="line"/>
      <point x="535" y="625"/>
      <point x="570" y="582"/>
      <point x="604" y="537" type="curve" smooth="yes"/>
      <point x="651" y="472"/>
      <point x="672" y="414"/>
      <point x="672" y="348" type="curve" smooth="yes"/>
      <point x="672" y="326"/>
      <point x="670" y="303"/>
      <point x="665" y="279" type="curve" smooth="yes"/>
      <point x="633" y="107"/>
      <point x="497" y="-13"/>
      <point x="332" y="-13" type="curve" smooth="yes"/>
      <point x="184" y="-13"/>
      <point x="87" y="82"/>
      <point x="87" y="217" type="curve" smooth="yes"/>
      <point x="87" y="235"/>
      <point x="89" y="254"/>
      <point x="93" y="274" type="curve" smooth="yes"/>
      <point x="123" y="435"/>
      <point x="263" y="556"/>
      <point x="419" y="556" type="curve" smooth="yes"/>
      <point x="453" y="556"/>
      <point x="472" y="552"/>
      <point x="512" y="538" type="curve"/>
      <point x="462" y="600"/>
      <point x="461" y="602"/>
      <point x="434" y="630" type="curve"/>
      <point x="340" y="591" type="line"/>
      <point x="312" y="637" type="line"/>
      <point x="398" y="672" type="line"/>
      <point x="385" y="688"/>
      <point x="384" y="688"/>
      <point x="369" y="705" type="curve" smooth="yes"/>
      <point x="361" y="712"/>
      <point x="355" y="719"/>
    </contour>
    <contour>
      <point x="417" y="492" type="curve" smooth="yes"/>
      <point x="297" y="492"/>
      <point x="190" y="398"/>
      <point x="167" y="272" type="curve" smooth="yes"/>
      <point x="164" y="257"/>
      <point x="163" y="242"/>
      <point x="163" y="228" type="curve" smooth="yes"/>
      <point x="163" y="126"/>
      <point x="233" y="55"/>
      <point x="343" y="55" type="curve" smooth="yes"/>
      <point x="463" y="55"/>
      <point x="564" y="144"/>
      <point x="588" y="271" type="curve" smooth="yes"/>
      <point x="591" y="288"/>
      <point x="593" y="304"/>
      <point x="593" y="319" type="curve" smooth="yes"/>
      <point x="593" y="422"/>
      <point x="525" y="492"/>
    </contour>
  </outline>
</glyph>
<glyph name="ntilde" format="1">
  <advance width="610"/>
  <unicode hex="00F1"/>
  <outline>
    <contour>
      <point x="63" y="0" type="line"/>
      <point x="164" y="547" type="line"/>
      <point x="238" y="547" type="line"/>
      <point x="225" y="476" type="line"/>
      <point x="282" y="533"/>
      <point x="345" y="560"/>
      <point x="417" y="560" type="curve" smooth="yes"/>
      <point x="494" y="560"/>
      <point x="554" y="530"/>
      <point x="587" y="475" type="curve" smooth="yes"/>
      <point x="603" y="447"/>
      <point x="610" y="418"/>
      <point x="610" y="380" type="curve" smooth="yes"/>
      <point x="610" y="354"/>
      <point x="607" y="324"/>
      <point x="600" y="287" type="curve" smooth="yes"/>
      <point x="547" y="0" type="line"/>
      <point x="473" y="0" type="line"/>
      <point x="526" y="287" type="line" smooth="yes"/>
      <point x="531" y="316"/>
      <point x="534" y="340"/>
      <point x="534" y="361" type="curve" smooth="yes"/>
      <point x="534" y="392"/>
      <point x="528" y="415"/>
      <point x="515" y="436" type="curve" smooth="yes"/>
      <point x="492" y="472"/>
      <point x="448" y="492"/>
      <point x="395" y="492" type="curve" smooth="yes"/>
      <point x="335" y="492"/>
      <point x="278" y="466"/>
      <point x="241" y="422" type="curve" smooth="yes"/>
      <point x="216" y="392"/>
      <point x="204" y="360"/>
      <point x="193" y="301" type="curve" smooth="yes"/>
      <point x="137" y="0" type="line"/>
    </contour>
    <contour>
      <point x="545" y="728" type="curve"/>
      <point x="569" y="682" type="line"/>
      <point x="548" y="656"/>
      <point x="502" y="633"/>
      <point x="469" y="633" type="curve" smooth="yes"/>
      <point x="454" y="633"/>
      <point x="438" y="639"/>
      <point x="407" y="655" type="curve" smooth="yes"/>
      <point x="393" y="661"/>
      <point x="380" y="665"/>
      <point x="369" y="665" type="curve" smooth="yes"/>
      <point x="350" y="665"/>
      <point x="341" y="661"/>
      <point x="311" y="639" type="curve" smooth="yes"/>
      <point x="303" y="633" type="line"/>
      <point x="279" y="679" type="line"/>
      <point x="308" y="710"/>
      <point x="345" y="728"/>
      <point x="381" y="728" type="curve" smooth="yes"/>
      <point x="399" y="728"/>
      <point x="409" y="725"/>
      <point x="437" y="711" type="curve" smooth="yes"/>
      <point x="453" y="704"/>
      <point x="473" y="697"/>
      <point x="482" y="697" type="curve" smooth="yes"/>
      <point x="501" y="697"/>
      <point x="520" y="706"/>
    </contour>
  </outline>
</glyph>
<glyph name="otilde" format="1">
  <advance width="655"/>
  <unicode hex="00F5"/>
  <outline>
    <contour>
      <point x="436" y="560" type="curve" smooth="yes"/>
      <point x="577" y="560"/>
      <point x="669" y="465"/>
      <point x="669" y="331" type="curve" smooth="yes"/>
      <point x="669" y="312"/>
      <point x="667" y="292"/>
      <point x="663" y="272" type="curve" smooth="yes"/>
      <point x="633" y="108"/>
      <point x="493" y="-13"/>
      <point x="332" y="-13" type="curve" smooth="yes"/>
      <point x="185" y="-13"/>
      <point x="87" y="82"/>
      <point x="87" y="217" type="curve" smooth="yes"/>
      <point x="87" y="235"/>
      <point x="89" y="254"/>
      <point x="93" y="273" type="curve" smooth="yes"/>
      <point x="124" y="439"/>
      <point x="268" y="560"/>
    </contour>
    <contour>
      <point x="417" y="492" type="curve" smooth="yes"/>
      <point x="297" y="492"/>
      <point x="190" y="398"/>
      <point x="167" y="272" type="curve" smooth="yes"/>
      <point x="164" y="257"/>
      <point x="163" y="242"/>
      <point x="163" y="228" type="curve" smooth="yes"/>
      <point x="163" y="126"/>
      <point x="233" y="55"/>
      <point x="342" y="55" type="curve" smooth="yes"/>
      <point x="462" y="55"/>
      <point x="565" y="145"/>
      <point x="588" y="271" type="curve" smooth="yes"/>
      <point x="591" y="288"/>
      <point x="593" y="304"/>
      <point x="593" y="319" type="curve" smooth="yes"/>
      <point x="593" y="422"/>
      <point x="525" y="492"/>
    </contour>
    <contour>
      <point x="581" y="728" type="curve"/>
      <point x="605" y="682" type="line"/>
      <point x="584" y="656"/>
      <point x="538" y="633"/>
      <point x="505" y="633" type="curve" smooth="yes"/>
      <point x="490" y="633"/>
      <point x="474" y="639"/>
      <point x="443" y="655" type="curve" smooth="yes"/>
      <point x="429" y="661"/>
      <point x="416" y="665"/>
      <point x="405" y="665" type="curve" smooth="yes"/>
      <point x="386" y="665"/>
      <point x="377" y="661"/>
      <point x="347" y="639" type="curve" smooth="yes"/>
      <point x="339" y="633" type="line"/>
      <point x="315" y="679" type="line"/>
      <point x="344" y="710"/>
      <point x="381" y="728"/>
      <point x="417" y="728" type="curve" smooth="yes"/>
      <point x="435" y="728"/>
      <point x="445" y="725"/>
      <point x="473" y="711" type="curve" smooth="yes"/>
      <point x="489" y="704"/>
      <point x="509" y="697"/>
      <point x="518" y="697" type="curve" smooth="yes"/>
      <point x="537" y="697"/>
      <point x="556" y="706"/>
    </contour>
  </outline>
</glyph>
<glyph name="divide" format="1">
  <advance width="606"/>
  <unicode hex="00F7"/>
  <outline>
    <contour>
      <point x="422" y="409" type="line"/>
      <point x="335" y="409" type="line"/>
      <point x="351" y="496" type="line"/>
      <point x="438" y="496" type="line"/>
    </contour>
    <contour>
      <point x="367" y="112" type="line"/>
      <point x="280" y="112" type="line"/>
      <point x="296" y="199" type="line"/>
      <point x="383" y="199" type="line"/>
    </contour>
    <contour>
      <point x="618" y="341" type="line"/>
      <point x="604" y="267" type="line"/>
      <point x="100" y="267" type="line"/>
      <point x="114" y="341" type="line"/>
    </contour>
  </outline>
</glyph>
<glyph name="oslash" format="1">
  <advance width="653"/>
  <unicode hex="00F8"/>
  <outline>
    <contour>
      <point x="73" y="1" type="line"/>
      <point x="137" y="68" type="line"/>
      <point x="102" y="119"/>
      <point x="87" y="162"/>
      <point x="87" y="213" type="curve" smooth="yes"/>
      <point x="87" y="231"/>
      <point x="88" y="251"/>
      <point x="92" y="272" type="curve" smooth="yes"/>
      <point x="122" y="432"/>
      <point x="272" y="560"/>
      <point x="432" y="560" type="curve" smooth="yes"/>
      <point x="486" y="560"/>
      <point x="530" y="547"/>
      <point x="570" y="519" type="curve"/>
      <point x="641" y="594" type="line"/>
      <point x="686" y="552" type="line"/>
      <point x="617" y="478" type="line"/>
      <point x="652" y="439"/>
      <point x="669" y="394"/>
      <point x="669" y="339" type="curve" smooth="yes"/>
      <point x="669" y="321"/>
      <point x="667" y="301"/>
      <point x="663" y="281" type="curve" smooth="yes"/>
      <point x="631" y="110"/>
      <point x="491" y="-13"/>
      <point x="327" y="-13" type="curve" smooth="yes"/>
      <point x="271" y="-13"/>
      <point x="233" y="-2"/>
      <point x="183" y="28" type="curve"/>
      <point x="119" y="-39" type="line"/>
    </contour>
    <contour>
      <point x="188" y="121" type="curve"/>
      <point x="521" y="468" type="line"/>
      <point x="492" y="484"/>
      <point x="458" y="492"/>
      <point x="420" y="492" type="curve" smooth="yes"/>
      <point x="300" y="492"/>
      <point x="190" y="394"/>
      <point x="166" y="266" type="curve" smooth="yes"/>
      <point x="163" y="250"/>
      <point x="162" y="234"/>
      <point x="162" y="220" type="curve" smooth="yes"/>
      <point x="162" y="186"/>
      <point x="170" y="156"/>
    </contour>
    <contour>
      <point x="566" y="426" type="curve"/>
      <point x="233" y="79" type="line"/>
      <point x="270" y="61"/>
      <point x="294" y="55"/>
      <point x="333" y="55" type="curve" smooth="yes"/>
      <point x="459" y="55"/>
      <point x="563" y="147"/>
      <point x="588" y="280" type="curve" smooth="yes"/>
      <point x="591" y="298"/>
      <point x="593" y="314"/>
      <point x="593" y="330" type="curve" smooth="yes"/>
      <point x="593" y="366"/>
      <point x="584" y="396"/>
    </contour>
  </outline>
</glyph>
<glyph name="yacute" format="1">
  <advance width="536"/>
  <unicode hex="00FD"/>
  <outline>
    <contour>
      <point x="96" y="-192" type="line"/>
      <point x="224" y="18" type="line"/>
      <point x="110" y="547" type="line"/>
      <point x="191" y="547" type="line"/>
      <point x="284" y="111" type="line"/>
      <point x="549" y="547" type="line"/>
      <point x="628" y="547" type="line"/>
      <point x="175" y="-192" type="line"/>
    </contour>
    <contour>
      <point x="318" y="666" type="line"/>
      <point x="533" y="782" type="line"/>
      <point x="556" y="724" type="line"/>
      <point x="342" y="610" type="line"/>
    </contour>
  </outline>
</glyph>
<glyph name="ydieresis" format="1">
  <advance width="536"/>
  <unicode hex="00FF"/>
  <outline>
    <contour>
      <point x="96" y="-192" type="line"/>
      <point x="224" y="18" type="line"/>
      <point x="110" y="547" type="line"/>
      <point x="191" y="547" type="line"/>
      <point x="284" y="111" type="line"/>
      <point x="549" y="547" type="line"/>
      <point x="628" y="547" type="line"/>
      <point x="175" y="-192" type="line"/>
    </contour>
    <contour>
      <point x="294" y="749" type="line"/>
      <point x="368" y="749" type="line"/>
      <point x="344" y="623" type="line"/>
      <point x="270" y="623" type="line"/>
    </contour>
    <contour>
      <point x="441" y="749" type="line"/>
      <point x="515" y="749" type="line"/>
      <point x="491" y="623" type="line"/>
      <point x="417" y="623" type="line"/>
    </contour>
  </outline>
</glyph>
<glyph name="Ldot" format="1">
  <advance width="462"/>
  <unicode hex="013F"/>
  <outline>
    <contour>
      <point x="76" y="0" type="line"/>
      <point x="213" y="739" type="line"/>
      <point x="287" y="739" type="line"/>
      <point x="162" y="67" type="line"/>
      <point x="468" y="67" type="line"/>
      <point x="456" y="0" type="line"/>
    </contour>
    <contour>
      <point x="356" y="313" type="line"/>
      <point x="380" y="439" type="line"/>
      <point x="454" y="439" type="line"/>
      <point x="430" y="313" type="line"/>
    </contour>
  </outline>
</glyph>
<glyph name="ldot" format="1">
  <advance width="354"/>
  <unicode hex="0140"/>
  <outline>
    <contour>
      <point x="63" y="0" type="line"/>
      <point x="200" y="739" type="line"/>
      <point x="274" y="739" type="line"/>
      <point x="137" y="0" type="line"/>
    </contour>
    <contour>
      <point x="253" y="229" type="line"/>
      <point x="277" y="355" type="line"/>
      <point x="351" y="355" type="line"/>
      <point x="327" y="229" type="line"/>
    </contour>
  </outline>
</glyph>
<glyph name="Lslash" format="1">
  <advance width="517"/>
  <unicode hex="0141"/>
  <outline>
    <contour>
      <point x="122" y="0" type="line"/>
      <point x="178" y="303" type="line"/>
      <point x="68" y="224" type="line"/>
      <point x="83" y="307" type="line"/>
      <point x="194" y="387" type="line"/>
      <point x="259" y="739" type="line"/>
      <point x="333" y="739" type="line"/>
      <point x="277" y="436" type="line"/>
      <point x="461" y="569" type="line"/>
      <point x="446" y="485" type="line"/>
      <point x="261" y="353" type="line"/>
      <point x="208" y="67" type="line"/>
      <point x="514" y="67" type="line"/>
      <point x="502" y="0" type="line"/>
    </contour>
  </outline>
</glyph>
<glyph name="lslash" format="1">
  <advance width="300"/>
  <unicode hex="0142"/>
  <outline>
    <contour>
      <point x="114" y="0" type="line"/>
      <point x="178" y="346" type="line"/>
      <point x="90" y="293" type="line"/>
      <point x="104" y="365" type="line"/>
      <point x="191" y="418" type="line"/>
      <point x="251" y="739" type="line"/>
      <point x="325" y="739" type="line"/>
      <point x="272" y="451" type="line"/>
      <point x="364" y="506" type="line"/>
      <point x="350" y="433" type="line"/>
      <point x="258" y="379" type="line"/>
      <point x="188" y="0" type="line"/>
    </contour>
  </outline>
</glyph>
<glyph name="OE" format="1">
  <advance width="1194"/>
  <unicode hex="0152"/>
  <outline>
    <contour>
      <point x="882" y="739" type="line"/>
      <point x="1275" y="739" type="line"/>
      <point x="1263" y="672" type="line"/>
      <point x="944" y="672" type="line"/>
      <point x="894" y="407" type="line"/>
      <point x="1202" y="407" type="line"/>
      <point x="1190" y="340" type="line"/>
      <point x="882" y="340" type="line"/>
      <point x="831" y="67" type="line"/>
      <point x="1150" y="67" type="line"/>
      <point x="1138" y="0" type="line"/>
      <point x="745" y="0" type="line"/>
      <point x="773" y="151" type="line"/>
      <point x="692" y="44"/>
      <point x="578" y="-13"/>
      <point x="443" y="-13" type="curve" smooth="yes"/>
      <point x="239" y="-13"/>
      <point x="106" y="114"/>
      <point x="106" y="296" type="curve" smooth="yes"/>
      <point x="106" y="320"/>
      <point x="108" y="345"/>
      <point x="113" y="371" type="curve" smooth="yes"/>
      <point x="153" y="589"/>
      <point x="349" y="752"/>
      <point x="571" y="752" type="curve" smooth="yes"/>
      <point x="710" y="752"/>
      <point x="812" y="695"/>
      <point x="855" y="592" type="curve"/>
    </contour>
    <contour>
      <point x="554" y="684" type="curve" smooth="yes"/>
      <point x="378" y="684"/>
      <point x="221" y="550"/>
      <point x="188" y="371" type="curve" smooth="yes"/>
      <point x="184" y="350"/>
      <point x="182" y="330"/>
      <point x="182" y="310" type="curve" smooth="yes"/>
      <point x="182" y="162"/>
      <point x="288" y="55"/>
      <point x="448" y="55" type="curve" smooth="yes"/>
      <point x="626" y="55"/>
      <point x="781" y="188"/>
      <point x="815" y="371" type="curve" smooth="yes"/>
      <point x="819" y="394"/>
      <point x="821" y="416"/>
      <point x="821" y="437" type="curve" smooth="yes"/>
      <point x="821" y="585"/>
      <point x="719" y="684"/>
    </contour>
  </outline>
</glyph>
<glyph name="oe" format="1">
  <advance width="1137"/>
  <unicode hex="0153"/>
  <outline>
    <contour>
      <point x="1142" y="248" type="curve"/>
      <point x="654" y="248" type="line"/>
      <point x="653" y="238"/>
      <point x="652" y="228"/>
      <point x="652" y="219" type="curve" smooth="yes"/>
      <point x="652" y="185"/>
      <point x="661" y="159"/>
      <point x="681" y="130" type="curve" smooth="yes"/>
      <point x="716" y="80"/>
      <point x="767" y="55"/>
      <point x="834" y="55" type="curve" smooth="yes"/>
      <point x="920" y="55"/>
      <point x="990" y="96"/>
      <point x="1045" y="179" type="curve"/>
      <point x="1119" y="179" type="line"/>
      <point x="1096" y="129"/>
      <point x="1059" y="85"/>
      <point x="1007" y="47" type="curve" smooth="yes"/>
      <point x="953" y="7"/>
      <point x="893" y="-13"/>
      <point x="826" y="-13" type="curve" smooth="yes"/>
      <point x="711" y="-13"/>
      <point x="625" y="43"/>
      <point x="597" y="138" type="curve"/>
      <point x="518" y="33"/>
      <point x="435" y="-13"/>
      <point x="329" y="-13" type="curve" smooth="yes"/>
      <point x="184" y="-13"/>
      <point x="88" y="85"/>
      <point x="88" y="219" type="curve" smooth="yes"/>
      <point x="88" y="237"/>
      <point x="89" y="255"/>
      <point x="93" y="274" type="curve" smooth="yes"/>
      <point x="123" y="436"/>
      <point x="269" y="560"/>
      <point x="428" y="560" type="curve" smooth="yes"/>
      <point x="536" y="560"/>
      <point x="606" y="513"/>
      <point x="648" y="414" type="curve"/>
      <point x="723" y="512"/>
      <point x="812" y="560"/>
      <point x="920" y="560" type="curve" smooth="yes"/>
      <point x="1062" y="560"/>
      <point x="1156" y="467"/>
      <point x="1156" y="338" type="curve" smooth="yes"/>
      <point x="1156" y="321"/>
      <point x="1154" y="304"/>
      <point x="1151" y="286" type="curve" smooth="yes"/>
      <point x="1150" y="278"/>
      <point x="1146" y="265"/>
    </contour>
    <contour>
      <point x="666" y="315" type="curve"/>
      <point x="1085" y="315" type="line"/>
      <point x="1085" y="421"/>
      <point x="1015" y="492"/>
      <point x="906" y="492" type="curve" smooth="yes"/>
      <point x="804" y="492"/>
      <point x="713" y="425"/>
    </contour>
    <contour>
      <point x="414" y="492" type="curve" smooth="yes"/>
      <point x="297" y="492"/>
      <point x="191" y="398"/>
      <point x="168" y="273" type="curve" smooth="yes"/>
      <point x="165" y="258"/>
      <point x="164" y="244"/>
      <point x="164" y="230" type="curve" smooth="yes"/>
      <point x="164" y="129"/>
      <point x="235" y="55"/>
      <point x="341" y="55" type="curve" smooth="yes"/>
      <point x="458" y="55"/>
      <point x="564" y="150"/>
      <point x="587" y="275" type="curve" smooth="yes"/>
      <point x="590" y="291"/>
      <point x="591" y="306"/>
      <point x="591" y="320" type="curve" smooth="yes"/>
      <point x="591" y="421"/>
      <point x="522" y="492"/>
    </contour>
  </outline>
</glyph>
<glyph name="Scaron" format="1">
  <advance width="498"/>
  <unicode hex="0160"/>
  <outline>
    <contour>
      <point x="60" y="207" type="curve"/>
      <point x="139" y="207" type="line"/>
      <point x="138" y="197"/>
      <point x="138" y="188"/>
      <point x="138" y="180" type="curve" smooth="yes"/>
      <point x="138" y="149"/>
      <point x="144" y="128"/>
      <point x="158" y="107" type="curve" smooth="yes"/>
      <point x="179" y="74"/>
      <point x="219" y="55"/>
      <point x="265" y="55" type="curve" smooth="yes"/>
      <point x="350" y="55"/>
      <point x="422" y="117"/>
      <point x="438" y="202" type="curve" smooth="yes"/>
      <point x="440" y="212"/>
      <point x="441" y="222"/>
      <point x="441" y="231" type="curve" smooth="yes"/>
      <point x="441" y="263"/>
      <point x="430" y="290"/>
      <point x="408" y="308" type="curve" smooth="yes"/>
      <point x="386" y="325"/>
      <point x="357" y="339"/>
      <point x="302" y="356" type="curve" smooth="yes"/>
      <point x="220" y="383"/>
      <point x="200" y="394"/>
      <point x="176" y="422" type="curve" smooth="yes"/>
      <point x="155" y="445"/>
      <point x="145" y="479"/>
      <point x="145" y="516" type="curve" smooth="yes"/>
      <point x="145" y="528"/>
      <point x="146" y="540"/>
      <point x="148" y="553" type="curve" smooth="yes"/>
      <point x="170" y="669"/>
      <point x="271" y="752"/>
      <point x="390" y="752" type="curve" smooth="yes"/>
      <point x="497" y="752"/>
      <point x="564" y="689"/>
      <point x="564" y="591" type="curve" smooth="yes"/>
      <point x="564" y="579"/>
      <point x="562" y="566"/>
      <point x="560" y="552" type="curve"/>
      <point x="483" y="552" type="line"/>
      <point x="484" y="560"/>
      <point x="485" y="567"/>
      <point x="485" y="574" type="curve" smooth="yes"/>
      <point x="485" y="641"/>
      <point x="444" y="684"/>
      <point x="376" y="684" type="curve" smooth="yes"/>
      <point x="302" y="684"/>
      <point x="238" y="630"/>
      <point x="224" y="555" type="curve" smooth="yes"/>
      <point x="223" y="547"/>
      <point x="222" y="540"/>
      <point x="222" y="532" type="curve" smooth="yes"/>
      <point x="222" y="507"/>
      <point x="230" y="484"/>
      <point x="243" y="469" type="curve" smooth="yes"/>
      <point x="260" y="452"/>
      <point x="280" y="443"/>
      <point x="343" y="423" type="curve" smooth="yes"/>
      <point x="415" y="400"/>
      <point x="443" y="386"/>
      <point x="470" y="364" type="curve" smooth="yes"/>
      <point x="501" y="337"/>
      <point x="518" y="295"/>
      <point x="518" y="247" type="curve" smooth="yes"/>
      <point x="518" y="234"/>
      <point x="517" y="220"/>
      <point x="514" y="206" type="curve" smooth="yes"/>
      <point x="491" y="80"/>
      <point x="379" y="-13"/>
      <point x="251" y="-13" type="curve" smooth="yes"/>
      <point x="131" y="-13"/>
      <point x="58" y="58"/>
      <point x="58" y="170" type="curve" smooth="yes"/>
      <point x="58" y="182"/>
      <point x="58" y="194"/>
    </contour>
    <contour>
      <point x="609" y="931" type="line"/>
      <point x="440" y="805" type="line"/>
      <point x="374" y="805" type="line"/>
      <point x="255" y="931" type="line"/>
      <point x="344" y="931" type="line"/>
      <point x="416" y="857" type="line"/>
      <point x="518" y="931" type="line"/>
    </contour>
  </outline>
</glyph>
<glyph name="scaron" format="1">
  <advance width="388"/>
  <unicode hex="0161"/>
  <outline>
    <contour>
      <point x="49" y="161" type="curve"/>
      <point x="122" y="161" type="line"/>
      <point x="121" y="153"/>
      <point x="120" y="146"/>
      <point x="120" y="139" type="curve" smooth="yes"/>
      <point x="120" y="85"/>
      <point x="150" y="55"/>
      <point x="205" y="55" type="curve" smooth="yes"/>
      <point x="259" y="55"/>
      <point x="305" y="95"/>
      <point x="315" y="150" type="curve" smooth="yes"/>
      <point x="317" y="158"/>
      <point x="317" y="165"/>
      <point x="317" y="172" type="curve" smooth="yes"/>
      <point x="317" y="207"/>
      <point x="295" y="226"/>
      <point x="228" y="255" type="curve" smooth="yes"/>
      <point x="157" y="287"/>
      <point x="156" y="287"/>
      <point x="137" y="308" type="curve" smooth="yes"/>
      <point x="120" y="327"/>
      <point x="112" y="350"/>
      <point x="112" y="378" type="curve" smooth="yes"/>
      <point x="112" y="387"/>
      <point x="112" y="396"/>
      <point x="114" y="406" type="curve" smooth="yes"/>
      <point x="130" y="495"/>
      <point x="208" y="560"/>
      <point x="298" y="560" type="curve" smooth="yes"/>
      <point x="377" y="560"/>
      <point x="426" y="512"/>
      <point x="426" y="439" type="curve" smooth="yes"/>
      <point x="426" y="430"/>
      <point x="425" y="421"/>
      <point x="424" y="412" type="curve"/>
      <point x="349" y="412" type="line"/>
      <point x="350" y="417"/>
      <point x="350" y="422"/>
      <point x="350" y="427" type="curve" smooth="yes"/>
      <point x="350" y="469"/>
      <point x="327" y="492"/>
      <point x="284" y="492" type="curve" smooth="yes"/>
      <point x="240" y="492"/>
      <point x="199" y="457"/>
      <point x="191" y="413" type="curve" smooth="yes"/>
      <point x="190" y="408"/>
      <point x="189" y="403"/>
      <point x="189" y="398" type="curve" smooth="yes"/>
      <point x="189" y="374"/>
      <point x="202" y="355"/>
      <point x="228" y="340" type="curve" smooth="yes"/>
      <point x="243" y="333"/>
      <point x="246" y="331"/>
      <point x="322" y="297" type="curve" smooth="yes"/>
      <point x="371" y="275"/>
      <point x="394" y="240"/>
      <point x="394" y="191" type="curve" smooth="yes"/>
      <point x="394" y="180"/>
      <point x="393" y="169"/>
      <point x="391" y="157" type="curve" smooth="yes"/>
      <point x="372" y="57"/>
      <point x="292" y="-13"/>
      <point x="193" y="-13" type="curve" smooth="yes"/>
      <point x="100" y="-13"/>
      <point x="45" y="39"/>
      <point x="45" y="123" type="curve" smooth="yes"/>
      <point x="45" y="135"/>
      <point x="47" y="148"/>
    </contour>
    <contour>
      <point x="510" y="749" type="line"/>
      <point x="341" y="623" type="line"/>
      <point x="275" y="623" type="line"/>
      <point x="156" y="749" type="line"/>
      <point x="245" y="749" type="line"/>
      <point x="317" y="675" type="line"/>
      <point x="419" y="749" type="line"/>
    </contour>
  </outline>
</glyph>
